<svg width="24" height="25" viewBox="0 0 24 25" fill="none" xmlns="http://www.w3.org/2000/svg">
<path d="M17 5.6626L19.3077 5.6626C19.69 5.6626 20 5.97255 20 6.35491L20 19.9703C20 20.3526 19.69 20.6626 19.3077 20.6626L5.69231 20.6626C5.30996 20.6626 5 20.3526 5 19.9703L5 17.6626" stroke="black" stroke-width="1.42105"/>
<path d="M17.2895 4.37312L17.2895 17.9521L3.71053 17.9521L3.71053 4.37312L17.2895 4.37312Z" stroke="black" stroke-width="1.42105"/>
<path d="M6.5 18.1626L13.9115 10.8897C14.0416 10.7619 14.2486 10.7571 14.3846 10.8786L17.5 13.6626" stroke="black" stroke-width="1.42105"/>
<path d="M10.25 9.1626C10.25 10.1291 9.4665 10.9126 8.5 10.9126C7.5335 10.9126 6.75 10.1291 6.75 9.1626C6.75 8.1961 7.5335 7.4126 8.5 7.4126C9.4665 7.4126 10.25 8.1961 10.25 9.1626Z" stroke="black" stroke-width="1.5"/>
</svg>
