<svg width="28" height="28" viewBox="0 0 28 28" fill="none" xmlns="http://www.w3.org/2000/svg">
<path d="M24.25 24.1538C24.25 24.207 24.207 24.25 24.1538 24.25L3.84616 24.25C3.79305 24.25 3.75 24.207 3.75 24.1538L3.75 3.84616C3.75 3.79305 3.79305 3.75 3.84615 3.75L24.1538 3.75C24.207 3.75 24.25 3.79305 24.25 3.84616L24.25 24.1538Z" stroke="black" stroke-width="1.5"/>
<path d="M7.27734 24.3888L19.2011 11.2726C19.3636 11.0939 19.6425 11.0873 19.8133 11.2581L24.3885 15.8332" stroke="black" stroke-width="1.5"/>
<path d="M3.61133 21.333L8.20212 16.1684C8.36384 15.9864 8.64536 15.9782 8.81749 16.1503L12.1669 19.4997" stroke="black" stroke-width="1.5"/>
<path d="M11.25 9C11.25 10.2426 10.2426 11.25 9 11.25C7.75736 11.25 6.75 10.2426 6.75 9C6.75 7.75736 7.75736 6.75 9 6.75C10.2426 6.75 11.25 7.75736 11.25 9Z" stroke="black" stroke-width="1.5"/>
</svg>
