<svg width="24" height="25" viewBox="0 0 24 25" fill="none" xmlns="http://www.w3.org/2000/svg">
<mask id="path-1-inside-1_681_2461" fill="white">
<path d="M7 8.6626H5.5C3.567 8.6626 2 10.2296 2 12.1626C2 14.0956 3.567 15.6626 5.5 15.6626H6C6.55228 15.6626 7 15.2149 7 14.6626V8.6626Z"/>
</mask>
<path d="M7 8.6626V7.1626H8.5V8.6626H7ZM7 10.1626H5.5V7.1626H7V10.1626ZM5.5 14.1626H6V17.1626H5.5V14.1626ZM5.5 14.6626V8.6626H8.5V14.6626H5.5ZM6 14.1626C5.72386 14.1626 5.5 14.3865 5.5 14.6626H8.5C8.5 16.0433 7.38071 17.1626 6 17.1626V14.1626ZM3.5 12.1626C3.5 13.2672 4.39543 14.1626 5.5 14.1626V17.1626C2.73858 17.1626 0.5 14.924 0.5 12.1626H3.5ZM5.5 10.1626C4.39543 10.1626 3.5 11.058 3.5 12.1626H0.5C0.5 9.40117 2.73858 7.1626 5.5 7.1626V10.1626Z" fill="white" mask="url(#path-1-inside-1_681_2461)"/>
<mask id="path-3-inside-2_681_2461" fill="white">
<path d="M17 8.6626H18.5C20.433 8.6626 22 10.2296 22 12.1626C22 14.0956 20.433 15.6626 18.5 15.6626H18C17.4477 15.6626 17 15.2149 17 14.6626V8.6626Z"/>
</mask>
<path d="M17 8.6626V7.1626H15.5V8.6626H17ZM17 10.1626H18.5V7.1626H17V10.1626ZM18.5 14.1626H18V17.1626H18.5V14.1626ZM18.5 14.6626V8.6626H15.5V14.6626H18.5ZM18 14.1626C18.2761 14.1626 18.5 14.3865 18.5 14.6626H15.5C15.5 16.0433 16.6193 17.1626 18 17.1626V14.1626ZM20.5 12.1626C20.5 13.2672 19.6046 14.1626 18.5 14.1626V17.1626C21.2614 17.1626 23.5 14.924 23.5 12.1626H20.5ZM18.5 10.1626C19.6046 10.1626 20.5 11.058 20.5 12.1626H23.5C23.5 9.40117 21.2614 7.1626 18.5 7.1626V10.1626Z" fill="white" mask="url(#path-3-inside-2_681_2461)"/>
<path d="M15.016 19.9562L14.7374 19.2599L15.016 19.9562ZM17 14.6626V15.2071H18.5V14.6626H17ZM14.7374 19.2599L14.2215 19.4662L14.7785 20.859L15.2945 20.6526L14.7374 19.2599ZM16.7907 16.9076C16.5236 17.9759 15.7598 18.8509 14.7374 19.2599L15.2945 20.6526C16.7641 20.0647 17.862 18.807 18.2459 17.2714L16.7907 16.9076ZM17 15.2071C17 15.7804 16.9297 16.3515 16.7907 16.9076L18.2459 17.2714C18.4147 16.5963 18.5 15.903 18.5 15.2071H17Z" fill="white"/>
<path fill-rule="evenodd" clip-rule="evenodd" d="M12 3.1626C8.41015 3.1626 5.5 6.07275 5.5 9.6626V10.1626H7V9.6626C7 6.90117 9.23858 4.6626 12 4.6626C14.7614 4.6626 17 6.90117 17 9.6626V10.1626H18.5V9.6626C18.5 6.07275 15.5899 3.1626 12 3.1626Z" fill="white"/>
<rect x="9.75" y="19.4126" width="4.5" height="2.5" rx="1.25" stroke="white" stroke-width="1.5"/>
</svg>
