<svg width="26" height="34" viewBox="0 0 26 34" fill="none" xmlns="http://www.w3.org/2000/svg">
<g filter="url(#filter0_d_300_4995)">
<path d="M20.1 27.9976C19.8799 27.9982 19.6672 27.9157 19.5021 27.7655L12 20.8836L4.49794 27.7655C4.36812 27.8845 4.20767 27.9623 4.03596 27.9893C3.86425 28.0164 3.68862 27.9916 3.53025 27.918C3.37188 27.8444 3.23755 27.7251 3.14346 27.5744C3.04937 27.4238 2.99955 27.2483 3 27.0691V5.71394C3.00105 4.72927 3.38066 3.78524 4.05557 3.08898C4.73047 2.39271 5.64554 2.00108 6.6 2H17.4C18.3545 2.00108 19.2695 2.39271 19.9444 3.08898C20.6193 3.78524 20.999 4.72927 21 5.71394V27.0691C21 27.3153 20.9052 27.5515 20.7364 27.7256C20.5676 27.8998 20.3387 27.9976 20.1 27.9976Z" fill="#15D4E0"/>
</g>
<defs>
<filter id="filter0_d_300_4995" x="0" y="0" width="26" height="34" filterUnits="userSpaceOnUse" color-interpolation-filters="sRGB">
<feFlood flood-opacity="0" result="BackgroundImageFix"/>
<feColorMatrix in="SourceAlpha" type="matrix" values="0 0 0 0 0 0 0 0 0 0 0 0 0 0 0 0 0 0 127 0" result="hardAlpha"/>
<feOffset dx="1" dy="2"/>
<feGaussianBlur stdDeviation="2"/>
<feComposite in2="hardAlpha" operator="out"/>
<feColorMatrix type="matrix" values="0 0 0 0 0 0 0 0 0 0 0 0 0 0 0 0 0 0 0.25 0"/>
<feBlend mode="normal" in2="BackgroundImageFix" result="effect1_dropShadow_300_4995"/>
<feBlend mode="normal" in="SourceGraphic" in2="effect1_dropShadow_300_4995" result="shape"/>
</filter>
</defs>
</svg>
