<svg width="20" height="21" viewBox="0 0 20 21" fill="none" xmlns="http://www.w3.org/2000/svg">
<mask id="mask0_617_8157" style="mask-type:alpha" maskUnits="userSpaceOnUse" x="7" y="1" width="12" height="13">
<path d="M11 13.1626L7.5 9.6626V1.6626H19V13.1626H11Z" fill="black"/>
</mask>
<g mask="url(#mask0_617_8157)">
<path fill-rule="evenodd" clip-rule="evenodd" d="M18.0218 6.00109C17.985 5.8711 17.9425 5.74218 17.8942 5.61473C17.6741 5.03299 16.9349 4.96666 16.4951 5.40646L14.9973 6.90422L13.7978 5.70469L15.3001 4.20239C15.739 3.76347 15.6741 3.02578 15.0942 2.80426C14.9662 2.75536 14.8368 2.71226 14.7062 2.67495C13.1819 2.23942 11.5102 2.5943 10.349 3.75545C9.14903 4.95545 8.80794 6.703 9.30944 8.27059L3.95796 13.2681C2.94349 14.2154 2.91614 15.815 3.89763 16.7965C4.88207 17.7809 6.48743 17.75 7.43324 16.7284L12.3821 11.3829C13.9577 11.9084 15.7247 11.5746 16.9361 10.3633C18.0972 9.20215 18.4541 7.52841 18.0218 6.00109ZM16.699 7.32382C16.6848 8.06473 16.402 8.77596 15.8754 9.30259C15.0999 10.0781 13.9404 10.3214 12.8568 9.95994L11.9388 9.65371L6.33253 15.7093C5.96491 16.1064 5.34093 16.1185 4.95829 15.7358C4.5768 15.3543 4.58743 14.7326 4.98174 14.3644L11.0276 8.71844L10.7381 7.81353C10.3926 6.73344 10.6408 5.58497 11.4097 4.81611C11.9364 4.28944 12.6466 4.00772 13.3859 3.99524L11.6765 5.70469L14.9973 9.02554L16.699 7.32382Z" fill="black"/>
</g>
<path d="M7.40687 10.1042C7.44563 10.0687 7.50545 10.07 7.54261 10.1072L10.5933 13.1579C10.6305 13.195 10.6318 13.2548 10.5963 13.2936L6.95137 17.2757C5.99136 18.3245 4.35048 18.3608 3.34509 17.3554C2.33971 16.35 2.37596 14.7091 3.42477 13.7491L7.40687 10.1042Z" stroke="black" stroke-width="1.5"/>
</svg>
