<svg width="20" height="18" viewBox="0 0 20 18" fill="none" xmlns="http://www.w3.org/2000/svg">
<path d="M9.77777 12.7111C11.3978 12.7111 12.7111 11.3978 12.7111 9.77778C12.7111 8.15774 11.3978 6.84444 9.77777 6.84444C8.15773 6.84444 6.84444 8.15774 6.84444 9.77778C6.84444 11.3978 8.15773 12.7111 9.77777 12.7111Z" fill="white"/>
<path d="M14.5004 1.95556L12.7111 0H6.84444L5.05511 1.95556H0V17.6H19.5556V1.95556H14.5004ZM9.77778 14.6667C7.07911 14.6667 4.88889 12.4764 4.88889 9.77778C4.88889 7.07911 7.07911 4.88889 9.77778 4.88889C12.4764 4.88889 14.6667 7.07911 14.6667 9.77778C14.6667 12.4764 12.4764 14.6667 9.77778 14.6667Z" fill="white"/>
</svg>
