<svg width="28" height="28" viewBox="0 0 28 28" fill="none" xmlns="http://www.w3.org/2000/svg">
<path d="M9.5 6.75L9.86051 6.75L10.0857 6.46847L11.3554 4.88099C11.4218 4.79795 11.5224 4.74961 11.6288 4.74961L17.4499 4.74961C17.5601 4.74961 17.6639 4.80149 17.73 4.88964L18.9 6.44994L19.125 6.75L19.5 6.75L24.9 6.75C25.0933 6.75 25.25 6.9067 25.25 7.1L25.25 21.9C25.25 22.0933 25.0933 22.25 24.9 22.25L3.1 22.25C2.9067 22.25 2.75 22.0933 2.75 21.9L2.75 7.1C2.75 6.9067 2.9067 6.75 3.1 6.75L9.5 6.75Z" stroke="black" stroke-width="1.5"/>
<path d="M19.25 14C19.25 16.6234 17.1234 18.75 14.5 18.75C11.8766 18.75 9.75 16.6234 9.75 14C9.75 11.3766 11.8766 9.25 14.5 9.25C17.1234 9.25 19.25 11.3766 19.25 14Z" stroke="black" stroke-width="1.5"/>
<path d="M7.5 10.5C7.5 11.0523 7.05228 11.5 6.5 11.5C5.94772 11.5 5.5 11.0523 5.5 10.5C5.5 9.94772 5.94772 9.5 6.5 9.5C7.05228 9.5 7.5 9.94772 7.5 10.5Z" fill="black"/>
</svg>
