<svg width="20" height="21" viewBox="0 0 20 21" fill="none" xmlns="http://www.w3.org/2000/svg">
<mask id="mask0_617_8134" style="mask-type:alpha" maskUnits="userSpaceOnUse" x="4" y="1" width="13" height="19">
<path d="M6 9.6626H4V1.6626H17V19.6626H4V15.6626H6V9.6626Z" fill="black"/>
</mask>
<g mask="url(#mask0_617_8134)">
<mask id="path-2-inside-1_617_8134" fill="white">
<path fill-rule="evenodd" clip-rule="evenodd" d="M7 1.6626C5.34315 1.6626 4 3.00574 4 4.6626V16.6626C4 18.3195 5.34315 19.6626 7 19.6626H13C14.6569 19.6626 16 18.3195 16 16.6626V15.6626C16.5523 15.6626 17 15.2149 17 14.6626V10.6626C17 10.1103 16.5523 9.6626 16 9.6626V4.6626C16 3.00574 14.6569 1.6626 13 1.6626H7Z"/>
</mask>
<path d="M16 15.6626V14.1626H14.5V15.6626H16ZM16 9.6626H14.5V11.1626H16V9.6626ZM5.5 4.6626C5.5 3.83417 6.17157 3.1626 7 3.1626V0.162598C4.51472 0.162598 2.5 2.17732 2.5 4.6626H5.5ZM5.5 16.6626V4.6626H2.5V16.6626H5.5ZM7 18.1626C6.17157 18.1626 5.5 17.491 5.5 16.6626H2.5C2.5 19.1479 4.51472 21.1626 7 21.1626V18.1626ZM13 18.1626H7V21.1626H13V18.1626ZM14.5 16.6626C14.5 17.491 13.8284 18.1626 13 18.1626V21.1626C15.4853 21.1626 17.5 19.1479 17.5 16.6626H14.5ZM14.5 15.6626V16.6626H17.5V15.6626H14.5ZM15.5 14.6626C15.5 14.3865 15.7239 14.1626 16 14.1626V17.1626C17.3807 17.1626 18.5 16.0433 18.5 14.6626H15.5ZM15.5 10.6626V14.6626H18.5V10.6626H15.5ZM16 11.1626C15.7239 11.1626 15.5 10.9387 15.5 10.6626H18.5C18.5 9.28189 17.3807 8.1626 16 8.1626V11.1626ZM14.5 4.6626V9.6626H17.5V4.6626H14.5ZM13 3.1626C13.8284 3.1626 14.5 3.83417 14.5 4.6626H17.5C17.5 2.17732 15.4853 0.162598 13 0.162598V3.1626ZM7 3.1626H13V0.162598H7V3.1626Z" fill="black" mask="url(#path-2-inside-1_617_8134)"/>
</g>
<mask id="path-4-inside-2_617_8134" fill="white">
<path fill-rule="evenodd" clip-rule="evenodd" d="M9 16.6626C11.2091 16.6626 13 14.8717 13 12.6626C13 10.4535 11.2091 8.6626 9 8.6626C7.98555 8.6626 7.05931 9.04023 6.35418 9.6626H3C2.44772 9.6626 2 10.1103 2 10.6626V14.6626C2 15.2149 2.44772 15.6626 3 15.6626H6.35418C7.05931 16.285 7.98555 16.6626 9 16.6626Z"/>
</mask>
<path d="M6.35418 9.6626V11.1626H6.92146L7.34678 10.7872L6.35418 9.6626ZM6.35418 15.6626L7.34678 14.538L6.92146 14.1626H6.35418V15.6626ZM11.5 12.6626C11.5 14.0433 10.3807 15.1626 9 15.1626V18.1626C12.0376 18.1626 14.5 15.7002 14.5 12.6626H11.5ZM9 10.1626C10.3807 10.1626 11.5 11.2819 11.5 12.6626H14.5C14.5 9.62503 12.0376 7.1626 9 7.1626V10.1626ZM7.34678 10.7872C7.78839 10.3974 8.36495 10.1626 9 10.1626V7.1626C7.60616 7.1626 6.33023 7.68304 5.36158 8.53799L7.34678 10.7872ZM3 11.1626H6.35418V8.1626H3V11.1626ZM3.5 10.6626C3.5 10.9387 3.27614 11.1626 3 11.1626V8.1626C1.61929 8.1626 0.5 9.28189 0.5 10.6626H3.5ZM3.5 14.6626V10.6626H0.5V14.6626H3.5ZM3 14.1626C3.27614 14.1626 3.5 14.3865 3.5 14.6626H0.5C0.5 16.0433 1.61929 17.1626 3 17.1626V14.1626ZM6.35418 14.1626H3V17.1626H6.35418V14.1626ZM9 15.1626C8.36495 15.1626 7.78839 14.9278 7.34678 14.538L5.36158 16.7872C6.33023 17.6422 7.60616 18.1626 9 18.1626V15.1626Z" fill="black" mask="url(#path-4-inside-2_617_8134)"/>
<circle cx="9" cy="12.6626" r="1" fill="black"/>
<path d="M8 5.6626H12" stroke="black" stroke-width="1.5" stroke-linecap="round" stroke-linejoin="bevel"/>
</svg>
