<svg width="20" height="21" viewBox="0 0 20 21" fill="none" xmlns="http://www.w3.org/2000/svg">
<path d="M11.5 10.6621C11.5 11.4905 10.8284 12.1621 10 12.1621C9.17157 12.1621 8.5 11.4905 8.5 10.6621C8.5 9.83368 9.17157 9.16211 10 9.16211C10.8284 9.16211 11.5 9.83368 11.5 10.6621Z" fill="black"/>
<path d="M6 10.6621C6 11.4905 5.32843 12.1621 4.5 12.1621C3.67157 12.1621 3 11.4905 3 10.6621C3 9.83368 3.67157 9.16211 4.5 9.16211C5.32843 9.16211 6 9.83368 6 10.6621Z" fill="black"/>
<path d="M17 10.6621C17 11.4905 16.3284 12.1621 15.5 12.1621C14.6716 12.1621 14 11.4905 14 10.6621C14 9.83368 14.6716 9.16211 15.5 9.16211C16.3284 9.16211 17 9.83368 17 10.6621Z" fill="black"/>
</svg>
