<svg width="36" height="34" viewBox="0 0 36 34" fill="none" xmlns="http://www.w3.org/2000/svg">
<g filter="url(#filter0_d_300_4980)">
<path fill-rule="evenodd" clip-rule="evenodd" d="M8.8526 10.7444L8.8526 12.7729L9.22683 12.8028C6.77357 13.8426 5.05263 16.273 5.05263 19.1053C5.05263 22.8841 8.11594 25.9474 11.8947 25.9474C15.6735 25.9474 18.7368 22.8841 18.7368 19.1053C18.7368 16.6473 17.4407 14.4921 15.4947 13.2857L17.5376 12.2294C19.5231 13.8607 20.7894 16.3351 20.7894 19.1053C20.7894 24.0177 16.8071 28 11.8947 28C6.9823 28 3 24.0177 3 19.1053C3 15.2614 5.43831 11.987 8.8526 10.7444Z" fill="white"/>
<path fill-rule="evenodd" clip-rule="evenodd" d="M28.3154 19.1052C28.3154 22.884 25.2521 25.9473 21.4733 25.9473C19.7961 25.9473 18.2598 25.3438 17.0697 24.3421L15.9997 25.9473L15.3787 25.5838C16.9707 27.082 19.1148 27.9999 21.4733 27.9999C26.3858 27.9999 30.3681 24.0176 30.3681 19.1052C30.3681 14.1928 26.3858 10.2105 21.4733 10.2105C17.0787 10.2105 13.4284 13.3976 12.7078 17.5865L13.9701 18.0461L14.6317 19.1849C14.6314 19.1584 14.6312 19.1318 14.6312 19.1052C14.6312 15.3264 17.6946 12.2631 21.4733 12.2631C25.2521 12.2631 28.3154 15.3264 28.3154 19.1052Z" fill="white"/>
<path fill-rule="evenodd" clip-rule="evenodd" d="M20.1863 16.7739C19.1619 17.3854 17.9641 17.7368 16.6843 17.7368C12.9055 17.7368 9.84218 14.6735 9.84218 10.8947C9.84218 7.11594 12.9055 4.05263 16.6843 4.05263C20.4631 4.05263 23.5264 7.11594 23.5264 10.8947C23.5264 11.1445 23.513 11.3912 23.4869 11.6341L23.5263 11.5789L25.2494 13.302C25.4641 12.5364 25.579 11.729 25.579 10.8947C25.579 5.9823 21.5967 2 16.6843 2C11.7719 2 7.78955 5.9823 7.78955 10.8947C7.78955 15.8071 11.7719 19.7894 16.6843 19.7894C18.0924 19.7894 19.4241 19.4622 20.6075 18.8797L20.1863 16.7739Z" fill="white"/>
</g>
<defs>
<filter id="filter0_d_300_4980" x="0" y="0" width="35.3682" height="34" filterUnits="userSpaceOnUse" color-interpolation-filters="sRGB">
<feFlood flood-opacity="0" result="BackgroundImageFix"/>
<feColorMatrix in="SourceAlpha" type="matrix" values="0 0 0 0 0 0 0 0 0 0 0 0 0 0 0 0 0 0 127 0" result="hardAlpha"/>
<feOffset dx="1" dy="2"/>
<feGaussianBlur stdDeviation="2"/>
<feComposite in2="hardAlpha" operator="out"/>
<feColorMatrix type="matrix" values="0 0 0 0 0 0 0 0 0 0 0 0 0 0 0 0 0 0 0.25 0"/>
<feBlend mode="normal" in2="BackgroundImageFix" result="effect1_dropShadow_300_4980"/>
<feBlend mode="normal" in="SourceGraphic" in2="effect1_dropShadow_300_4980" result="shape"/>
</filter>
</defs>
</svg>
