<svg width="20" height="21" viewBox="0 0 20 21" fill="none" xmlns="http://www.w3.org/2000/svg">
<path d="M12.75 5.66211C12.75 7.18089 11.5188 8.41211 10 8.41211C8.48122 8.41211 7.25 7.18089 7.25 5.66211C7.25 4.14333 8.48122 2.91211 10 2.91211C11.5188 2.91211 12.75 4.14333 12.75 5.66211Z" stroke="black" stroke-width="1.5"/>
<path d="M11.5 15.1621H13.5" stroke="black" stroke-width="1.5" stroke-linecap="round"/>
<path d="M3.25 15.6621C3.25 11.9342 6.27208 8.91211 10 8.91211C13.7279 8.91211 16.75 11.9342 16.75 15.6621V18.3288C16.75 18.3748 16.7127 18.4121 16.6667 18.4121H3.33333C3.28731 18.4121 3.25 18.3748 3.25 18.3288V15.6621Z" stroke="black" stroke-width="1.5"/>
</svg>
