<svg width="48" height="48" viewBox="0 0 48 48" fill="none" xmlns="http://www.w3.org/2000/svg">
<path fill-rule="evenodd" clip-rule="evenodd" d="M6.19486 12H39.8051L23 25.7095L6.19486 12ZM5 34.2546V13.6063L17.0343 23.4238L5 34.2546ZM33.1441 29.875L27.3975 24.7031L24.2643 27.2592C23.5283 27.8595 22.4717 27.8595 21.7357 27.2592L18.6025 24.7031L6.0504 36H32.252C32.4347 36.7095 32.7122 37.381 33.0703 38H5C3.89543 38 3 37.1046 3 36V12C3 10.8954 3.89543 10 5 10H41C42.1046 10 43 10.8954 43 12V26.5815C42.3693 26.3262 41.6986 26.149 41 26.0619V13.6063L28.9657 23.4238L34.3852 28.3014C33.909 28.7706 33.4913 29.2992 33.1441 29.875Z" fill="black"/>
<path fill-rule="evenodd" clip-rule="evenodd" d="M40 42C44.4183 42 48 38.4183 48 34C48 29.5817 44.4183 26 40 26C35.5817 26 32 29.5817 32 34C32 38.4183 35.5817 42 40 42ZM39.6766 37.1809L44.1766 31.7809L43.0242 30.8206L39.05 35.5897L36.9307 33.4705L35.8701 34.5311L38.5701 37.2311L39.1508 37.8118L39.6766 37.1809Z" fill="#15D4E0"/>
</svg>
