<svg width="42" height="42" viewBox="0 0 42 42" fill="none" xmlns="http://www.w3.org/2000/svg">
<g opacity="0.3" filter="url(#filter0_d_1648_10167)">
<circle cx="21" cy="21" r="16.5" stroke="white" shape-rendering="crispEdges"/>
</g>
<path d="M20.4915 14.3338C20.3119 14.2563 20.1136 14.2332 19.9211 14.2672C19.7285 14.3013 19.5502 14.3911 19.4081 14.5254L15.3165 17.6671H14.6165C14.0371 17.7416 13.5104 18.0409 13.1498 18.5004C12.8084 18.9265 12.6363 19.4636 12.6665 20.0088V22.0171C12.6372 22.307 12.6655 22.5999 12.7499 22.8787C12.8343 23.1576 12.973 23.4171 13.1581 23.6421C13.3482 23.879 13.5842 24.075 13.8521 24.2182C14.1199 24.3614 14.4139 24.4489 14.7165 24.4754H15.3415L19.3331 27.4671C19.5309 27.6561 19.7929 27.7633 20.0665 27.7671C20.1951 27.7665 20.3225 27.741 20.4415 27.6921C20.7053 27.5676 20.9257 27.3669 21.0743 27.1158C21.2228 26.8648 21.2927 26.5749 21.2748 26.2838V15.7171C21.29 15.4358 21.2243 15.156 21.0854 14.9109C20.9466 14.6657 20.7405 14.4655 20.4915 14.3338V14.3338Z" fill="white"/>
<path d="M27.5469 16.5782C27.4884 16.5202 27.4191 16.4743 27.3429 16.4432C27.2667 16.412 27.1851 16.3961 27.1027 16.3965C27.0204 16.3969 26.9389 16.4134 26.863 16.4453C26.7871 16.4771 26.7181 16.5236 26.6602 16.5821C26.6022 16.6406 26.5563 16.7099 26.5252 16.7861C26.494 16.8623 26.4781 16.9439 26.4785 17.0263C26.4789 17.1086 26.4954 17.1901 26.5273 17.266C26.5591 17.3419 26.6056 17.4108 26.6641 17.4688C27.5996 18.4075 28.1249 19.6787 28.1249 21.004C28.1249 22.3292 27.5996 23.6005 26.6641 24.5391C26.6053 24.5966 26.5585 24.6653 26.5266 24.7411C26.4947 24.8169 26.4783 24.8983 26.4783 24.9805C26.4783 25.0628 26.4947 25.1442 26.5266 25.22C26.5585 25.2958 26.6053 25.3644 26.6641 25.4219C26.7808 25.5368 26.9378 25.6013 27.1016 25.6016C27.2675 25.6009 27.4269 25.5366 27.5469 25.4219C28.7167 24.2476 29.3735 22.6576 29.3735 21.0001C29.3735 19.3425 28.7167 17.7525 27.5469 16.5782V16.5782Z" fill="white"/>
<path d="M24.4532 18.789C24.3943 18.8465 24.3476 18.9151 24.3157 18.9909C24.2838 19.0667 24.2673 19.1481 24.2673 19.2304C24.2673 19.3126 24.2838 19.394 24.3157 19.4698C24.3476 19.5456 24.3943 19.6143 24.4532 19.6718C24.8043 20.0246 25.0014 20.5021 25.0014 20.9999C25.0014 21.4977 24.8043 21.9752 24.4532 22.328C24.3943 22.3855 24.3476 22.4542 24.3157 22.53C24.2838 22.6058 24.2673 22.6872 24.2673 22.7694C24.2673 22.8517 24.2838 22.9331 24.3157 23.0089C24.3476 23.0847 24.3943 23.1534 24.4532 23.2108C24.5099 23.2692 24.578 23.3152 24.6532 23.3461C24.7285 23.377 24.8093 23.3922 24.8907 23.3905C24.9732 23.3923 25.0552 23.3773 25.1318 23.3464C25.2083 23.3155 25.2778 23.2694 25.336 23.2108C25.9209 22.6237 26.2493 21.8287 26.2493 20.9999C26.2493 20.1711 25.9209 19.3761 25.336 18.789C25.2188 18.6721 25.0601 18.6064 24.8946 18.6064C24.7291 18.6064 24.5703 18.6721 24.4532 18.789Z" fill="white"/>
<defs>
<filter id="filter0_d_1648_10167" x="0" y="0" width="42" height="42" filterUnits="userSpaceOnUse" color-interpolation-filters="sRGB">
<feFlood flood-opacity="0" result="BackgroundImageFix"/>
<feColorMatrix in="SourceAlpha" type="matrix" values="0 0 0 0 0 0 0 0 0 0 0 0 0 0 0 0 0 0 127 0" result="hardAlpha"/>
<feOffset/>
<feGaussianBlur stdDeviation="2"/>
<feComposite in2="hardAlpha" operator="out"/>
<feColorMatrix type="matrix" values="0 0 0 0 0 0 0 0 0 0 0 0 0 0 0 0 0 0 0.25 0"/>
<feBlend mode="normal" in2="BackgroundImageFix" result="effect1_dropShadow_1648_10167"/>
<feBlend mode="normal" in="SourceGraphic" in2="effect1_dropShadow_1648_10167" result="shape"/>
</filter>
</defs>
</svg>
