<svg width="24" height="24" viewBox="0 0 24 24" fill="none" xmlns="http://www.w3.org/2000/svg">
<path d="M19.248 9V2" stroke="#ADB5BD" stroke-width="1.5"/>
<path d="M13 21H17.2482C18.3527 21 19.2482 20.1046 19.2482 19V17.5" stroke="#ADB5BD" stroke-width="1.5"/>
<mask id="mask0_581_2965" style="mask-type:alpha" maskUnits="userSpaceOnUse" x="4" y="4" width="16" height="4">
<rect x="4" y="4" width="16" height="4" fill="#C4C4C4"/>
</mask>
<g mask="url(#mask0_581_2965)">
<mask id="path-4-inside-1_581_2965" fill="white">
<path d="M4 7V10H20V7C20 5.34315 18.6569 4 17 4H7C5.34315 4 4 5.34315 4 7Z"/>
</mask>
<path d="M4 10H2.5V11.5H4V10ZM20 10V11.5H21.5V10H20ZM5.5 10V7H2.5V10H5.5ZM7 5.5H17V2.5H7V5.5ZM18.5 7V10H21.5V7H18.5ZM20 8.5H4V11.5H20V8.5ZM17 5.5C17.8284 5.5 18.5 6.17157 18.5 7H21.5C21.5 4.51472 19.4853 2.5 17 2.5V5.5ZM5.5 7C5.5 6.17157 6.17157 5.5 7 5.5V2.5C4.51472 2.5 2.5 4.51472 2.5 7H5.5Z" fill="#ADB5BD" mask="url(#path-4-inside-1_581_2965)"/>
</g>
<mask id="path-6-inside-2_581_2965" fill="white">
<path d="M2 10C2 8.89543 2.89543 8 4 8H20C21.1046 8 22 8.89543 22 10V14.4689C22 16.4862 20.4979 18.1878 18.4961 18.438L14.7659 18.9043C14.3147 18.9607 13.8822 18.7056 13.7134 18.2834L12.4642 15.1606C12.2966 14.7415 11.7034 14.7415 11.5358 15.1606L10.2866 18.2834C10.1178 18.7056 9.68533 18.9607 9.23414 18.9043L5.50386 18.438C3.50215 18.1878 2 16.4862 2 14.4689V10Z"/>
</mask>
<path d="M10.2866 18.2834L8.89393 17.7263L10.2866 18.2834ZM14.7659 18.9043L14.5798 17.4159L14.7659 18.9043ZM13.7134 18.2834L15.1061 17.7263L13.7134 18.2834ZM12.4642 15.1606L13.857 14.6035L12.4642 15.1606ZM11.5358 15.1606L12.9285 15.7177L11.5358 15.1606ZM4 9.5H20V6.5H4V9.5ZM20.5 10V14.4689H23.5V10H20.5ZM3.5 14.4689V10H0.5V14.4689H3.5ZM18.3101 16.9496L14.5798 17.4159L14.9519 20.3927L18.6822 19.9264L18.3101 16.9496ZM15.1061 17.7263L13.857 14.6035L11.0715 15.7177L12.3206 18.8405L15.1061 17.7263ZM10.143 14.6035L8.89393 17.7263L11.6794 18.8405L12.9285 15.7177L10.143 14.6035ZM9.42019 17.4159L5.68991 16.9496L5.31781 19.9264L9.04808 20.3927L9.42019 17.4159ZM8.89393 17.7263C8.97837 17.5152 9.19459 17.3877 9.42019 17.4159L9.04808 20.3927C10.1761 20.5337 11.2572 19.8959 11.6794 18.8405L8.89393 17.7263ZM14.5798 17.4159C14.8054 17.3877 15.0216 17.5152 15.1061 17.7263L12.3206 18.8405C12.7428 19.8959 13.8239 20.5337 14.9519 20.3927L14.5798 17.4159ZM13.857 14.6035C13.1864 12.9272 10.8136 12.9272 10.143 14.6035L12.9285 15.7177C12.5932 16.5558 11.4068 16.5558 11.0715 15.7177L13.857 14.6035ZM0.5 14.4689C0.5 17.2426 2.56545 19.5824 5.31781 19.9264L5.68991 16.9496C4.43884 16.7932 3.5 15.7297 3.5 14.4689H0.5ZM20.5 14.4689C20.5 15.7297 19.5612 16.7932 18.3101 16.9496L18.6822 19.9264C21.4345 19.5824 23.5 17.2426 23.5 14.4689H20.5ZM20 9.5C20.2761 9.5 20.5 9.72386 20.5 10H23.5C23.5 8.067 21.933 6.5 20 6.5V9.5ZM4 6.5C2.067 6.5 0.5 8.067 0.5 10H3.5C3.5 9.72386 3.72386 9.5 4 9.5V6.5Z" fill="#ADB5BD" mask="url(#path-6-inside-2_581_2965)"/>
<path d="M11 20C11 19.4477 11.4477 19 12 19C12.5523 19 13 19.4477 13 20V22C13 22.5523 12.5523 23 12 23C11.4477 23 11 22.5523 11 22V20Z" fill="#ADB5BD"/>
</svg>
