<svg width="24" height="24" viewBox="0 0 24 24" fill="none" xmlns="http://www.w3.org/2000/svg">
<mask id="path-1-inside-1_581_2933" fill="white">
<path d="M20 21C20 21.5523 19.5523 22 19 22L6.5 22C5.11929 22 4 20.8807 4 19.5L4 4C4 2.89543 4.89543 2 6 2L19 2C19.5523 2 20 2.44772 20 3L20 21Z"/>
</mask>
<path d="M19 20.5L6.5 20.5L6.5 23.5L19 23.5L19 20.5ZM5.5 19.5L5.5 4L2.5 4L2.5 19.5L5.5 19.5ZM6 3.5L19 3.5L19 0.5L6 0.5L6 3.5ZM18.5 3L18.5 21L21.5 21L21.5 3L18.5 3ZM19 3.5C18.7239 3.5 18.5 3.27614 18.5 3L21.5 3C21.5 1.61929 20.3807 0.5 19 0.5L19 3.5ZM5.5 4C5.5 3.72386 5.72386 3.5 6 3.5L6 0.5C4.067 0.500001 2.5 2.06701 2.5 4L5.5 4ZM6.5 20.5C5.94772 20.5 5.5 20.0523 5.5 19.5L2.5 19.5C2.5 21.7091 4.29086 23.5 6.5 23.5L6.5 20.5ZM19 23.5C20.3807 23.5 21.5 22.3807 21.5 21L18.5 21C18.5 20.7239 18.7239 20.5 19 20.5L19 23.5Z" fill="#008389" mask="url(#path-1-inside-1_581_2933)"/>
<mask id="path-3-inside-2_581_2933" fill="white">
<path d="M20 21C20 21.5523 19.5523 22 19 22L6.5 22C5.11929 22 4 20.8807 4 19.5C4 18.1193 5.11929 17 6.5 17L20 17L20 21Z"/>
</mask>
<path d="M20 17L21.5 17L21.5 15.5L20 15.5L20 17ZM19 20.5L6.5 20.5L6.5 23.5L19 23.5L19 20.5ZM6.5 18.5L20 18.5L20 15.5L6.5 15.5L6.5 18.5ZM18.5 17L18.5 21L21.5 21L21.5 17L18.5 17ZM5.5 19.5C5.5 18.9477 5.94772 18.5 6.5 18.5L6.5 15.5C4.29086 15.5 2.5 17.2909 2.5 19.5L5.5 19.5ZM6.5 20.5C5.94772 20.5 5.5 20.0523 5.5 19.5L2.5 19.5C2.5 21.7091 4.29086 23.5 6.5 23.5L6.5 20.5ZM19 23.5C20.3807 23.5 21.5 22.3807 21.5 21L18.5 21C18.5 20.7239 18.7239 20.5 19 20.5L19 23.5Z" fill="#008389" mask="url(#path-3-inside-2_581_2933)"/>
<mask id="path-5-inside-3_581_2933" fill="white">
<path d="M10 3C10 2.44772 10.4477 2 11 2H16C16.5523 2 17 2.44772 17 3V9.16833C17 9.9595 16.1248 10.4373 15.4592 10.0095L13.5 8.75L11.5408 10.0095C10.8752 10.4373 10 9.9595 10 9.16833V3Z"/>
</mask>
<path d="M13.5 8.75L14.3111 7.48823L13.5 6.96679L12.6889 7.48823L13.5 8.75ZM11 3.5H16V0.5H11V3.5ZM15.5 3V9.16833H18.5V3H15.5ZM11.5 9.16833V3H8.5V9.16833H11.5ZM16.2704 8.74775L14.3111 7.48823L12.6889 10.0118L14.6481 11.2713L16.2704 8.74775ZM12.6889 7.48823L10.7296 8.74775L12.3519 11.2713L14.3111 10.0118L12.6889 7.48823ZM8.5 9.16833C8.5 11.1463 10.6881 12.3409 12.3519 11.2713L10.7296 8.74775C11.0624 8.53383 11.5 8.77275 11.5 9.16833H8.5ZM15.5 9.16833C15.5 8.77275 15.9376 8.53383 16.2704 8.74775L14.6481 11.2713C16.3119 12.3409 18.5 11.1462 18.5 9.16833H15.5ZM16 3.5C15.7239 3.5 15.5 3.27614 15.5 3H18.5C18.5 1.61929 17.3807 0.5 16 0.5V3.5ZM11 0.5C9.61929 0.5 8.5 1.61929 8.5 3H11.5C11.5 3.27614 11.2761 3.5 11 3.5V0.5Z" fill="#008389" mask="url(#path-5-inside-3_581_2933)"/>
</svg>
