<svg width="48" height="48" viewBox="0 0 48 48" fill="none" xmlns="http://www.w3.org/2000/svg">
<path d="M24 24.85L7 14V37H26.3C26.3 37.4667 26.3417 37.975 26.425 38.525C26.5083 39.075 26.6167 39.5667 26.75 40H7C6.2 40 5.5 39.6917 4.9 39.075C4.3 38.4583 4 37.7667 4 37V11C4 10.2333 4.3 9.54167 4.9 8.925C5.5 8.30833 6.2 8 7 8H41C41.7667 8 42.4583 8.30833 43.075 8.925C43.6917 9.54167 44 10.2333 44 11V25.55C43.6333 25.35 43.1583 25.1583 42.575 24.975C41.9917 24.7917 41.4667 24.65 41 24.55V14L24 24.85ZM24 21.65L41 11H7L24 21.65ZM38.65 46C36.05 46 33.8417 45.1 32.025 43.3C30.2083 41.5 29.3 39.3 29.3 36.7C29.3 34.1 30.2083 31.8833 32.025 30.05C33.8417 28.2167 36.05 27.3 38.65 27.3C41.25 27.3 43.4583 28.2167 45.275 30.05C47.0917 31.8833 48 34.1 48 36.7C48 39.3 47.0917 41.5 45.275 43.3C43.4583 45.1 41.25 46 38.65 46ZM33 37.5H44.3V35.5H33V37.5ZM7 37V14.2V11V11.2V37Z" fill="black"/>
</svg>
