<svg width="24" height="24" viewBox="0 0 24 24" fill="none" xmlns="http://www.w3.org/2000/svg">
<path d="M12 21.25C17.1086 21.25 21.25 17.1086 21.25 12C21.25 6.89137 17.1086 2.75 12 2.75C6.89137 2.75 2.75 6.89137 2.75 12C2.75 17.1086 6.89137 21.25 12 21.25Z" stroke="black" stroke-width="1.5" stroke-linecap="round" stroke-linejoin="round"/>
<path d="M16.2401 15.0801C16.0701 15.3001 14.5701 17.1501 12.0001 17.1401C9.53014 17.1201 8.08014 15.3901 7.89014 15.1501" stroke="black" stroke-width="1.5" stroke-linecap="round" stroke-linejoin="round"/>
<path d="M8.40013 8.74023C7.70013 8.74023 7.14014 9.31024 7.14014 10.0002C7.14014 10.6902 7.71013 11.2603 8.40013 11.2603C9.10013 11.2603 9.66014 10.6902 9.66014 10.0002C9.66014 9.31024 9.10013 8.74023 8.40013 8.74023Z" fill="black"/>
<path d="M15.6003 8.74023C14.9003 8.74023 14.3403 9.31024 14.3403 10.0002C14.3403 10.6902 14.9103 11.2603 15.6003 11.2603C16.3003 11.2603 16.8603 10.6902 16.8603 10.0002C16.8603 9.31024 16.2903 8.74023 15.6003 8.74023Z" fill="black"/>
</svg>
