<svg width="20" height="20" viewBox="0 0 20 20" fill="none" xmlns="http://www.w3.org/2000/svg">
<path fill-rule="evenodd" clip-rule="evenodd" d="M7.90125 1.88957C7.95752 1.38313 8.38559 1 8.89514 1H11.105C11.6146 1 12.0427 1.38314 12.0989 1.88957L12.2639 3.37415C13.1341 3.67138 13.9271 4.13522 14.6048 4.72762L15.9752 4.1272C16.4419 3.92272 16.9878 4.10186 17.2425 4.54315L18.3475 6.45699C18.6023 6.89827 18.4845 7.46055 18.074 7.7625L16.8697 8.64846C16.9553 9.08577 17.0001 9.53765 17.0001 10C17.0001 10.4623 16.9553 10.9141 16.8698 11.3513L18.0746 12.2376C18.4851 12.5396 18.6028 13.1019 18.3481 13.5431L17.2431 15.457C16.9883 15.8983 16.4425 16.0774 15.9758 15.8729L14.6049 15.2723C13.9271 15.8647 13.1341 16.3286 12.2639 16.6259L12.0989 18.1104C12.0427 18.6169 11.6146 19 11.105 19H8.89514C8.38559 19 7.95752 18.6169 7.90125 18.1104L7.7363 16.6259C6.86635 16.3287 6.07356 15.865 5.39595 15.2729L4.02637 15.8729C3.55965 16.0774 3.01381 15.8983 2.75903 15.457L1.65408 13.5431C1.3993 13.1019 1.51708 12.5396 1.92752 12.2376L3.13066 11.3525C3.04499 10.9149 3.00009 10.4627 3.00009 10C3.00009 9.53721 3.045 9.0849 3.1307 8.64721L1.92809 7.7625C1.51764 7.46055 1.39987 6.89827 1.65464 6.45699L2.7596 4.54315C3.01438 4.10186 3.56021 3.92272 4.02693 4.1272L5.39603 4.72705C6.07363 4.13492 6.86638 3.67129 7.7363 3.37415L7.90125 1.88957ZM10.0001 13C11.6569 13 13.0001 11.6569 13.0001 10C13.0001 8.34315 11.6569 7 10.0001 7C8.34324 7 7.00009 8.34315 7.00009 10C7.00009 11.6569 8.34324 13 10.0001 13Z" fill="white"/>
</svg>
