<svg width="20" height="20" viewBox="0 0 20 20" fill="none" xmlns="http://www.w3.org/2000/svg">
    <path fill-rule="evenodd" clip-rule="evenodd" d="M7.9 1.89A1 1 0 0 1 8.896 1h2.21a1 1 0 0 1 .993.89l.165 1.484c.87.297 1.664.761 2.341 1.354l1.37-.6a1 1 0 0 1 1.268.415l1.105 1.914a1 1 0 0 1-.273 1.306l-1.205.885a7.03 7.03 0 0 1 0 2.703l1.205.887a1 1 0 0 1 .274 1.305l-1.105 1.914a1 1 0 0 1-1.268.416l-1.37-.6a6.995 6.995 0 0 1-2.342 1.353l-.165 1.484a1 1 0 0 1-.993.89h-2.21a1 1 0 0 1-.994-.89l-.165-1.484a6.994 6.994 0 0 1-2.34-1.353l-1.37.6a1 1 0 0 1-1.267-.416l-1.105-1.914a1 1 0 0 1 .273-1.305l1.203-.886a7.035 7.035 0 0 1 0-2.705l-1.202-.885a1 1 0 0 1-.274-1.305L2.76 4.543a1 1 0 0 1 1.267-.416l1.37.6a6.993 6.993 0 0 1 2.34-1.353L7.9 1.89zM10 13a3 3 0 1 0 0-6 3 3 0 0 0 0 6z" fill="#fff"/>
</svg>
