<svg width="24" height="24" viewBox="0 0 24 24" fill="none" xmlns="http://www.w3.org/2000/svg">
<path d="M13.8797 11.3346V4.15792C13.8595 3.80744 13.7021 3.47902 13.4414 3.24388C13.1807 3.00873 12.8379 2.88581 12.4872 2.90176C12.1349 2.88316 11.7895 3.00489 11.5267 3.24031C11.2639 3.47573 11.1051 3.80567 11.085 4.15792V11.3346" stroke="black" stroke-width="1.5" stroke-linecap="round" stroke-linejoin="round"/>
<path d="M13.8799 5.85237C13.9092 5.50191 14.0691 5.17524 14.3279 4.93714C14.5867 4.69904 14.9256 4.56689 15.2772 4.56689C15.6289 4.56689 15.9678 4.69904 16.2266 4.93714C16.4854 5.17524 16.6453 5.50191 16.6746 5.85237V11.3347" stroke="black" stroke-width="1.5" stroke-linecap="round" stroke-linejoin="round"/>
<path d="M19.5276 14.7136V7.53695C19.487 7.19352 19.3219 6.87692 19.0634 6.64718C18.805 6.41743 18.4712 6.29053 18.1254 6.29053C17.7796 6.29053 17.4458 6.41743 17.1873 6.64718C16.9289 6.87692 16.7637 7.19352 16.7231 7.53695" stroke="black" stroke-width="1.5" stroke-linecap="round" stroke-linejoin="round"/>
<path d="M11.0852 5.8522C11.0765 5.67693 11.0333 5.50511 10.9581 5.34657C10.8828 5.18803 10.777 5.04589 10.6468 4.9283C10.5165 4.81071 10.3643 4.71997 10.199 4.66129C10.0336 4.6026 9.85826 4.57712 9.68301 4.5863C9.33072 4.57041 8.98647 4.69466 8.72553 4.93188C8.46459 5.1691 8.30819 5.49999 8.29053 5.8522V13.0288" stroke="black" stroke-width="1.5" stroke-linecap="round" stroke-linejoin="round"/>
<path d="M19.5276 14.7138C19.564 16.2596 19.0332 17.7653 18.0355 18.9466C17.0378 20.1279 15.6423 20.9031 14.1122 21.126C12.5821 21.3489 11.0233 21.0039 9.73013 20.1563C8.43693 19.3087 7.49874 18.017 7.09262 16.525C6.90497 15.9648 6.63945 15.4338 6.30387 14.9475L4.20054 11.7925C4.1057 11.6507 4.04251 11.4902 4.01526 11.3218C3.98801 11.1535 3.99734 10.9812 4.04261 10.8167C4.08788 10.6523 4.16803 10.4995 4.27762 10.3688C4.3872 10.2381 4.52365 10.1325 4.67768 10.0592C4.9995 9.88049 5.37581 9.82638 5.73495 9.90718C6.09409 9.98799 6.41096 10.1981 6.62521 10.4974L8.30009 13.0389" stroke="black" stroke-width="1.5" stroke-linecap="round" stroke-linejoin="round"/>
</svg>
