<svg width="16" height="16" viewBox="0 0 16 16" fill="none" xmlns="http://www.w3.org/2000/svg">
<circle cx="8.00065" cy="8.00065" r="6.50065" stroke="#ADB5BD"/>
<path d="M8.75 11.25C8.75 11.6642 8.41421 12 8 12C7.58579 12 7.25 11.6642 7.25 11.25C7.25 10.8358 7.58579 10.5 8 10.5C8.41421 10.5 8.75 10.8358 8.75 11.25Z" fill="#ADB5BD"/>
<path d="M7.99904 4C6.74673 4 5.73242 5.01431 5.73242 6.26661H6.86573C6.86573 5.6433 7.37572 5.13331 7.99904 5.13331C8.62236 5.13331 9.13234 5.6433 9.13234 6.26661C9.13234 7.39992 7.43238 7.25826 7.43238 9.09988V9.5H8.57803V9.09988C8.57803 7.82491 10.2657 7.68325 10.2657 6.26661C10.2657 5.01431 9.25134 4 7.99904 4Z" fill="#ADB5BD"/>
</svg>
