<svg width="20" height="21" viewBox="0 0 20 21" fill="none" xmlns="http://www.w3.org/2000/svg">
<path d="M1.75 12.6626C1.75 12.8007 1.86193 12.9126 2 12.9126H5C5.13807 12.9126 5.25 12.8007 5.25 12.6626V4.6626C5.25 4.52453 5.13807 4.4126 5 4.4126H2C1.86193 4.4126 1.75 4.52453 1.75 4.6626V12.6626Z" stroke="#ADB5BD" stroke-width="1.5"/>
<mask id="path-2-inside-1_617_8605" fill="white">
<path d="M6.3406 12.6626C6.74063 12.6626 7.10217 12.901 7.25975 13.2687L9.65184 18.8503C9.84071 19.291 10.3616 19.4818 10.7905 19.2674L11.8475 18.7388C13.1052 18.11 13.7574 16.692 13.4163 15.3279L13 13.6626H16C17.1045 13.6626 18 12.7672 18 11.6626V6.6626C18 4.45346 16.2091 2.6626 14 2.6626H9.4798C8.52488 2.6626 7.60146 3.00422 6.87647 3.62572L4.5 5.66292V12.6626H6.3406Z"/>
</mask>
<path d="M13 13.6626L11.5448 14.0264L11.0788 12.1626H13V13.6626ZM4.5 5.66292H3V4.97307L3.52375 4.52409L4.5 5.66292ZM4.5 12.6626V14.1626H3V12.6626H4.5ZM7.25975 13.2687L5.88103 13.8596L7.25975 13.2687ZM16.5 11.6626V6.6626H19.5V11.6626H16.5ZM14 4.1626H9.4798V1.1626H14V4.1626ZM13 12.1626H16V15.1626H13V12.1626ZM8.63847 12.6778L11.0306 18.2594L8.27312 19.4411L5.88103 13.8596L8.63847 12.6778ZM10.1197 17.9257L11.1767 17.3972L12.5183 20.0805L11.4613 20.609L10.1197 17.9257ZM11.9611 15.6917L11.5448 14.0264L14.4552 13.2988L14.8715 14.9641L11.9611 15.6917ZM7.85272 4.76455L5.47625 6.80175L3.52375 4.52409L5.90022 2.48689L7.85272 4.76455ZM6 5.66292V12.6626H3V5.66292H6ZM4.5 11.1626H6.3406V14.1626H4.5V11.1626ZM11.1767 17.3972C11.8055 17.0828 12.1316 16.3738 11.9611 15.6917L14.8715 14.9641C15.3831 17.0103 14.4048 19.1372 12.5183 20.0805L11.1767 17.3972ZM9.4798 4.1626C8.88298 4.1626 8.30584 4.37611 7.85272 4.76455L5.90022 2.48689C6.89709 1.63233 8.16679 1.1626 9.4798 1.1626V4.1626ZM16.5 6.6626C16.5 5.28189 15.3807 4.1626 14 4.1626V1.1626C17.0375 1.1626 19.5 3.62503 19.5 6.6626H16.5ZM19.5 11.6626C19.5 13.5956 17.933 15.1626 16 15.1626V12.1626C16.2761 12.1626 16.5 11.9387 16.5 11.6626H19.5ZM11.0306 18.2594C10.8795 17.9068 10.4627 17.7542 10.1197 17.9257L11.4613 20.609C10.2605 21.2094 8.80197 20.6751 8.27312 19.4411L11.0306 18.2594ZM5.88103 13.8596C5.95982 14.0434 6.14059 14.1626 6.3406 14.1626V11.1626C7.34067 11.1626 8.24452 11.7586 8.63847 12.6778L5.88103 13.8596Z" fill="#ADB5BD" mask="url(#path-2-inside-1_617_8605)"/>
</svg>
