<svg width="24" height="24" viewBox="0 0 24 24" fill="none" xmlns="http://www.w3.org/2000/svg">
<path d="M12 19.3102H4.81C3.68 19.3102 2.75 18.3802 2.75 17.2502V6.97015C2.75 5.84015 3.68 4.91016 4.81 4.91016H5.72" stroke="black" stroke-width="1.5" stroke-linecap="round" stroke-linejoin="round"/>
<path d="M11.9998 4.91993V19.3099C11.6898 18.8099 10.7698 17.4799 8.98984 16.7499C8.17984 16.4199 7.40984 16.31 6.80984 16.28C6.25984 16.26 5.83984 15.8 5.83984 15.26V3.86994C5.83984 3.28994 6.30986 2.81997 6.88986 2.83997C7.45986 2.85997 8.13984 2.94993 8.86984 3.16993C10.3998 3.61993 11.4498 4.42993 11.9998 4.91993Z" stroke="black" stroke-width="1.5" stroke-linecap="round" stroke-linejoin="round"/>
<path d="M21.25 6.96991V17.2499C21.25 18.3799 20.32 19.3099 19.19 19.3099H12V4.91992H19.19C20.32 4.91992 21.25 5.83991 21.25 6.96991Z" stroke="black" stroke-width="1.5" stroke-linecap="round" stroke-linejoin="round"/>
<path d="M15.0698 7.96973H18.1798" stroke="black" stroke-width="1.5" stroke-linecap="round" stroke-linejoin="round"/>
<path d="M15.0698 12.1099H18.1798" stroke="black" stroke-width="1.5" stroke-linecap="round" stroke-linejoin="round"/>
<path d="M15.0698 16.2598H18.1798" stroke="black" stroke-width="1.5" stroke-linecap="round" stroke-linejoin="round"/>
</svg>
