<svg width="20" height="21" viewBox="0 0 20 21" fill="none" xmlns="http://www.w3.org/2000/svg">
<path d="M1.75 8.6626C1.75 8.52453 1.86193 8.4126 2 8.4126H5C5.13807 8.4126 5.25 8.52453 5.25 8.6626V16.6626C5.25 16.8007 5.13807 16.9126 5 16.9126H2C1.86193 16.9126 1.75 16.8007 1.75 16.6626V8.6626Z" stroke="#15D4E0" stroke-width="1.5"/>
<mask id="path-2-inside-1_617_8604" fill="white">
<path d="M6.3406 8.6626C6.74063 8.6626 7.10217 8.4242 7.25975 8.05651L9.65184 2.47493C9.84071 2.03422 10.3616 1.84341 10.7905 2.05784L11.8475 2.58637C13.1052 3.21519 13.7574 4.63315 13.4163 5.99727L13 7.6626H16C17.1045 7.6626 18 8.55803 18 9.6626V14.6626C18 16.8717 16.2091 18.6626 14 18.6626H9.4798C8.52488 18.6626 7.60146 18.321 6.87647 17.6995L4.5 15.6623V8.6626H6.3406Z"/>
</mask>
<path d="M13 7.6626L11.5448 7.29879L11.0788 9.1626H13V7.6626ZM4.5 15.6623H3V16.3521L3.52375 16.8011L4.5 15.6623ZM4.5 8.6626V7.1626H3V8.6626H4.5ZM7.25975 8.05651L5.88103 7.46564L7.25975 8.05651ZM16.5 9.6626V14.6626H19.5V9.6626H16.5ZM14 17.1626H9.4798V20.1626H14V17.1626ZM13 9.1626H16V6.1626H13V9.1626ZM8.63847 8.64739L11.0306 3.06581L8.27312 1.88406L5.88103 7.46564L8.63847 8.64739ZM10.1197 3.39948L11.1767 3.92801L12.5183 1.24473L11.4613 0.716199L10.1197 3.39948ZM11.9611 5.63346L11.5448 7.29879L14.4552 8.02641L14.8715 6.36108L11.9611 5.63346ZM7.85272 16.5606L5.47625 14.5234L3.52375 16.8011L5.90022 18.8383L7.85272 16.5606ZM6 15.6623V8.6626H3V15.6623H6ZM4.5 10.1626H6.3406V7.1626H4.5V10.1626ZM11.1767 3.92801C11.8055 4.24242 12.1316 4.9514 11.9611 5.63346L14.8715 6.36108C15.3831 4.3149 14.4048 2.18796 12.5183 1.24473L11.1767 3.92801ZM9.4798 17.1626C8.88298 17.1626 8.30584 16.9491 7.85272 16.5606L5.90022 18.8383C6.89709 19.6929 8.16679 20.1626 9.4798 20.1626V17.1626ZM16.5 14.6626C16.5 16.0433 15.3807 17.1626 14 17.1626V20.1626C17.0375 20.1626 19.5 17.7002 19.5 14.6626H16.5ZM19.5 9.6626C19.5 7.7296 17.933 6.1626 16 6.1626V9.1626C16.2761 9.1626 16.5 9.38646 16.5 9.6626H19.5ZM11.0306 3.06581C10.8795 3.41838 10.4627 3.57102 10.1197 3.39948L11.4613 0.716199C10.2605 0.115801 8.80197 0.650069 8.27312 1.88406L11.0306 3.06581ZM5.88103 7.46564C5.95982 7.2818 6.14059 7.1626 6.3406 7.1626V10.1626C7.34067 10.1626 8.24452 9.5666 8.63847 8.64739L5.88103 7.46564Z" fill="#15D4E0" mask="url(#path-2-inside-1_617_8604)"/>
</svg>
