<svg width="42" height="42" viewBox="0 0 42 42" fill="none" xmlns="http://www.w3.org/2000/svg">
    <g opacity="0" filter="url(#s54xptng9a)">
        <circle cx="21" cy="21" r="16.5" stroke="#fff" shape-rendering="crispEdges"/>
    </g>
    <g filter="url(#uoew2hokdb)">
        <path d="M22 17a1 1 0 0 1 1-1h2a1 1 0 0 1 1 1v8a1 1 0 0 1-1 1h-2a1 1 0 0 1-1-1v-8z" fill="#fff"/>
    </g>
    <g filter="url(#0o7csq3ikc)">
        <path d="M16 17a1 1 0 0 1 1-1h2a1 1 0 0 1 1 1v8a1 1 0 0 1-1 1h-2a1 1 0 0 1-1-1v-8z" fill="#fff"/>
    </g>
    <defs>
        <filter id="s54xptng9a" x="0" y="0" width="42" height="42" filterUnits="userSpaceOnUse" color-interpolation-filters="sRGB">
            <feFlood flood-opacity="0" result="BackgroundImageFix"/>
            <feColorMatrix in="SourceAlpha" values="0 0 0 0 0 0 0 0 0 0 0 0 0 0 0 0 0 0 127 0" result="hardAlpha"/>
            <feOffset/>
            <feGaussianBlur stdDeviation="2"/>
            <feComposite in2="hardAlpha" operator="out"/>
            <feColorMatrix values="0 0 0 0 0 0 0 0 0 0 0 0 0 0 0 0 0 0 0.25 0"/>
            <feBlend in2="BackgroundImageFix" result="effect1_dropShadow_26_11955"/>
            <feBlend in="SourceGraphic" in2="effect1_dropShadow_26_11955" result="shape"/>
        </filter>
        <filter id="uoew2hokdb" x="18" y="12" width="12" height="18" filterUnits="userSpaceOnUse" color-interpolation-filters="sRGB">
            <feFlood flood-opacity="0" result="BackgroundImageFix"/>
            <feColorMatrix in="SourceAlpha" values="0 0 0 0 0 0 0 0 0 0 0 0 0 0 0 0 0 0 127 0" result="hardAlpha"/>
            <feOffset/>
            <feGaussianBlur stdDeviation="2"/>
            <feComposite in2="hardAlpha" operator="out"/>
            <feColorMatrix values="0 0 0 0 0 0 0 0 0 0 0 0 0 0 0 0 0 0 0.25 0"/>
            <feBlend in2="BackgroundImageFix" result="effect1_dropShadow_26_11955"/>
            <feBlend in="SourceGraphic" in2="effect1_dropShadow_26_11955" result="shape"/>
        </filter>
        <filter id="0o7csq3ikc" x="12" y="12" width="12" height="18" filterUnits="userSpaceOnUse" color-interpolation-filters="sRGB">
            <feFlood flood-opacity="0" result="BackgroundImageFix"/>
            <feColorMatrix in="SourceAlpha" values="0 0 0 0 0 0 0 0 0 0 0 0 0 0 0 0 0 0 127 0" result="hardAlpha"/>
            <feOffset/>
            <feGaussianBlur stdDeviation="2"/>
            <feComposite in2="hardAlpha" operator="out"/>
            <feColorMatrix values="0 0 0 0 0 0 0 0 0 0 0 0 0 0 0 0 0 0 0.25 0"/>
            <feBlend in2="BackgroundImageFix" result="effect1_dropShadow_26_11955"/>
            <feBlend in="SourceGraphic" in2="effect1_dropShadow_26_11955" result="shape"/>
        </filter>
    </defs>
</svg>
