<svg width="336" height="231" viewBox="0 0 336 231" fill="none" xmlns="http://www.w3.org/2000/svg">
<mask id="mask0_884_11174" style="mask-type:alpha" maskUnits="userSpaceOnUse" x="0" y="0" width="169" height="231">
<rect y="0.00488281" width="169" height="230.005" fill="#D9D9D9"/>
</mask>
<g mask="url(#mask0_884_11174)">
<path d="M23.8791 218.258L23.4736 217.685C23.4736 217.685 17.4866 221.883 13.0977 227.679C7.63551 227.774 -100.297 226.653 -105.402 226.606L-112.438 216.731L-113.011 217.137L-105.783 227.297H-105.616C-100.87 227.345 10.4024 228.514 13.2647 228.371H13.4317L13.5271 228.228C17.8683 222.456 23.7837 218.306 23.8314 218.258" fill="#231815" fill-opacity="0.3"/>
<path d="M129.284 196.339C129.284 196.052 129.284 195.766 129.236 195.504C128.377 187.848 125.348 183.841 125.229 183.674L124.68 184.103C124.68 184.103 127.733 188.134 128.544 195.575C129.379 203.017 117.644 212.82 114.376 213.273C109.892 214.179 107.268 213.583 105.861 212.915C104.358 212.199 103.881 211.269 103.881 211.245L103.261 211.555C103.356 211.722 105.407 215.801 114.495 213.964C117.859 213.511 129.308 204.162 129.308 196.362" fill="#231815" fill-opacity="0.3"/>
<path d="M123.536 198.605C123.536 198.605 123.273 198.486 123.178 198.509C122.916 198.509 122.605 198.7 122.391 198.963L115.474 207.215C115.068 207.692 115.068 208.264 115.307 208.455L116.356 209.385C116.356 209.385 116.571 209.505 116.714 209.481C116.976 209.481 117.286 209.29 117.501 209.028L124.418 200.775C124.824 200.298 124.824 199.726 124.585 199.511L123.536 198.605ZM125.229 201.443L118.312 209.695C117.907 210.173 117.358 210.483 116.809 210.53C116.38 210.554 115.974 210.435 115.664 210.172L114.615 209.266C113.899 208.646 113.923 207.454 114.663 206.547L121.58 198.295C121.985 197.818 122.534 197.508 123.083 197.46C123.512 197.436 123.917 197.555 124.227 197.818L125.277 198.748C125.635 199.058 125.802 199.487 125.802 199.964C125.802 200.465 125.611 200.99 125.229 201.443" fill="#231815" fill-opacity="0.3"/>
<path d="M152.397 148.065H128.091V149.306H152.397V148.065Z" fill="#231815" fill-opacity="0.3"/>
<path d="M152.492 74.1992H128.854V75.4395H152.492V74.1992Z" fill="#231815" fill-opacity="0.3"/>
<path d="M-219.417 172.918V172.966C-215.386 193.811 -204.318 203.733 -195.755 208.384C-186.453 213.441 -177.985 213.56 -177.866 213.56C-175.719 213.655 36.712 222.289 84.2025 214.013C84.7988 213.918 85.4428 213.846 86.1107 213.751C97.4883 212.296 118.693 209.553 124.275 180.383C128.306 156.246 128.497 118.514 128.497 118.133V103.727C128.497 103.345 128.306 65.6133 124.299 41.5001C118.741 12.3067 97.5361 9.58774 86.1345 8.13284C85.4667 8.03743 84.8226 7.96588 84.1786 7.87048C36.7359 -0.405752 -175.719 8.22824 -177.889 8.32364C-177.985 8.32364 -186.453 8.4429 -195.755 13.4993C-204.318 18.1502 -215.362 28.0721 -219.393 48.9177V48.9654C-221.993 59.1736 -222.088 110.572 -222.088 111.073C-222.088 111.574 -221.993 162.686 -219.393 172.894L-219.417 172.918ZM126.016 180.693C123.512 193.811 117.548 203.328 108.27 208.957C100.518 213.655 92.0023 214.752 86.373 215.492C85.7052 215.587 85.0612 215.659 84.5126 215.73C36.879 224.054 -175.743 215.396 -177.866 215.301C-178.223 215.301 -186.786 215.182 -196.471 209.958C-205.391 205.14 -216.888 194.861 -221.063 173.324C-223.71 162.853 -223.806 113.196 -223.806 111.097C-223.806 108.974 -223.71 59.0543 -221.063 48.5838C-216.888 27.0465 -205.391 16.7668 -196.471 11.949C-186.786 6.70179 -178.223 6.60638 -177.889 6.60638C-175.743 6.51098 36.879 -2.14686 84.4887 6.17707C85.085 6.24862 85.7052 6.34403 86.373 6.41558C92.0023 7.1311 100.518 8.22824 108.27 12.9507C117.548 18.5795 123.512 28.096 126.016 41.2378C130.071 65.5179 130.262 103.393 130.262 103.775V118.204C130.262 118.586 130.071 156.461 126.016 180.765" fill="#231815" fill-opacity="0.3"/>
<path d="M152.612 97.9302C152.612 91.1566 152.564 75.8682 152.564 73.7216V54.3786C152.564 49.8231 149.893 49.5846 147.746 49.37C147.364 49.3461 147.03 49.2984 146.697 49.2507H146.649C127.71 49.203 125.515 41.7854 125.492 41.7139L124.824 41.8808C124.919 42.2147 127.114 49.8708 146.625 49.9424C146.983 49.9901 147.341 50.0378 147.698 50.0616C149.845 50.2525 151.873 50.4433 151.873 54.3548V73.6978C151.896 82.9519 151.944 100.578 151.92 101.055C151.92 101.055 151.825 102.2 151.014 102.2C150.823 102.2 150.37 102.2 149.773 102.2C147.531 102.2 143.333 102.2 141.258 102.152C138.014 102.08 137.275 106.326 137.012 107.709L136.965 107.948C136.869 109.283 136.869 111.931 136.869 112.026H137.561C137.561 112.026 137.561 109.212 137.656 107.924V107.828C137.895 106.588 138.563 102.796 141.21 102.843C143.286 102.891 147.484 102.891 149.726 102.867C150.322 102.867 150.751 102.867 150.966 102.867C152.111 102.867 152.517 101.699 152.564 101.079C152.564 100.983 152.564 99.7667 152.564 97.8825" fill="#231815" fill-opacity="0.3"/>
<path d="M152.612 126.17C152.612 124.286 152.612 123.07 152.612 122.974C152.564 122.354 152.158 121.186 151.014 121.186C150.799 121.186 150.346 121.186 149.749 121.186C147.507 121.186 143.309 121.186 141.258 121.233C138.61 121.281 137.942 117.489 137.728 116.249V116.153C137.608 114.865 137.608 112.075 137.608 112.051H136.917C136.917 112.051 136.917 114.794 137.012 116.129V116.249L137.06 116.344C137.298 117.727 138.062 121.973 141.306 121.901C143.357 121.853 147.531 121.853 149.773 121.853C150.393 121.853 150.847 121.853 151.037 121.853C151.824 121.853 151.944 122.998 151.944 122.998C151.968 123.475 151.944 141.101 151.92 150.355V169.698C151.92 173.61 149.892 173.801 147.746 174.015C147.388 174.039 147.03 174.087 146.672 174.134C127.137 174.206 124.943 181.862 124.871 182.196L125.539 182.363C125.539 182.363 127.757 174.874 146.696 174.826H146.744C147.078 174.778 147.436 174.731 147.793 174.707C149.94 174.516 152.588 174.254 152.588 169.698V150.355C152.588 148.209 152.635 132.896 152.635 126.147" fill="#231815" fill-opacity="0.3"/>
<path d="M143.643 121.161H146.052V102.915H143.643V121.161ZM142.951 102.199H146.744V121.852H142.951V102.199Z" fill="#231815" fill-opacity="0.3"/>
<path d="M-208.54 168.72V168.768C-204.747 188.301 -194.395 197.603 -186.357 201.968C-177.627 206.714 -169.684 206.834 -169.589 206.834C-167.585 206.929 31.56 215.014 76.0689 207.263C76.6414 207.191 77.2377 207.096 77.8579 207.024C88.5438 205.641 108.413 203.089 113.613 175.756C117.382 153.145 117.549 117.751 117.572 117.417V103.917C117.572 103.56 117.405 68.1888 113.637 45.5782C108.413 18.2214 88.5438 15.6693 77.8817 14.286C77.2377 14.2144 76.6414 14.119 76.0689 14.0475C31.5839 6.27212 -167.561 14.3814 -169.589 14.4768C-169.66 14.4768 -177.603 14.5961 -186.333 19.3424C-194.348 23.7071 -204.723 33.0089 -208.492 52.5427V52.5904C-210.949 62.1546 -211.021 110.333 -211.021 110.81C-211.021 111.287 -210.949 159.18 -208.492 168.768L-208.54 168.72ZM115.283 176.066C112.945 188.373 107.34 197.269 98.6573 202.564C91.3823 206.977 83.3917 208.002 78.1202 208.694C77.5001 208.765 76.9038 208.861 76.379 208.932C31.727 216.732 -167.585 208.622 -169.565 208.527C-169.899 208.527 -177.937 208.408 -187.001 203.518C-195.349 198.987 -206.155 189.375 -210.066 169.173C-212.547 159.347 -212.619 112.814 -212.619 110.834C-212.619 108.854 -212.547 62.0353 -210.066 52.2326C-206.155 32.0548 -195.373 22.4191 -187.001 17.8875C-177.937 12.9742 -169.899 12.8788 -169.589 12.8788C-167.585 12.7834 31.727 4.67411 76.3551 12.4733C76.9037 12.5449 77.5001 12.6403 78.1441 12.7118C83.4155 13.4035 91.4061 14.4291 98.6811 18.8415C107.363 24.1125 112.969 33.0327 115.306 45.3397C119.099 68.0934 119.29 103.607 119.29 103.965V117.488C119.29 117.846 119.123 153.336 115.306 176.114" fill="#231815" fill-opacity="0.3"/>
<path d="M45.4182 146.156C45.4182 151.069 49.4016 155.053 54.3152 155.053C59.2288 155.053 63.2122 151.069 63.2122 146.156C63.2122 141.243 59.2288 137.26 54.3152 137.26C49.4016 137.26 45.4182 141.243 45.4182 146.156ZM64.7388 146.156C64.7388 151.904 60.0637 156.579 54.3152 156.579C48.5667 156.579 43.8916 151.904 43.8916 146.156C43.8916 140.408 48.5667 135.733 54.3152 135.733C60.0637 135.733 64.7388 140.408 64.7388 146.156Z" fill="#231815"/>
<path d="M45.4182 76.6562C45.4182 81.5456 49.4016 85.5525 54.3152 85.5525C59.2288 85.5525 63.2122 81.5695 63.2122 76.6562C63.2122 71.7429 59.2288 67.7598 54.3152 67.7598C49.4016 67.7598 45.4182 71.7429 45.4182 76.6562ZM64.7388 76.6562C64.7388 82.4042 60.0637 87.079 54.3152 87.079C48.5667 87.079 43.8916 82.4042 43.8916 76.6562C43.8916 70.9082 48.5667 66.2334 54.3152 66.2334C60.0637 66.2334 64.7388 70.9082 64.7388 76.6562Z" fill="#231815"/>
<path d="M65.1682 111.669C65.1682 116.558 69.1516 120.565 74.0652 120.565C78.9788 120.565 82.9622 116.582 82.9622 111.669C82.9622 106.756 78.9788 102.773 74.0652 102.773C69.1516 102.773 65.1682 106.756 65.1682 111.669ZM84.4888 111.669C84.4888 117.417 79.8137 122.092 74.0652 122.092C68.3167 122.092 63.6416 117.417 63.6416 111.669C63.6416 105.921 68.3167 101.246 74.0652 101.246C79.8137 101.246 84.4888 105.921 84.4888 111.669Z" fill="#231815"/>
<path d="M70.1774 143.342L70.3921 143.08C74.3993 138.286 77.4286 132.848 79.3845 126.957L79.5038 126.623L79.8377 126.504C86.0155 124.119 90.1659 118.084 90.1659 111.478C90.1659 104.871 86.0155 98.8369 79.8377 96.4518L79.5038 96.3325L79.3845 95.9986C77.4286 90.0836 74.3993 84.6695 70.3921 79.8755L70.1774 79.6131L70.2251 79.2792C70.3682 78.4444 70.4159 77.6096 70.4159 76.7749C70.4159 67.9024 63.1886 60.6756 54.3155 60.6756C45.4423 60.6756 38.215 67.9024 38.215 76.7749C38.215 85.6474 45.4423 92.8741 54.3155 92.8741C56.1044 92.8741 57.8933 92.5641 59.5869 91.9917L60.1355 91.8009L60.4694 92.2779C61.8051 94.2098 62.9262 96.261 63.8088 98.3837L64.0234 98.9084L63.5941 99.2662C59.9924 102.343 57.9172 106.803 57.9172 111.525C57.9172 116.248 59.9924 120.708 63.5702 123.785L63.9996 124.143L63.7849 124.667C62.8785 126.814 61.7574 128.889 60.4456 130.773L60.1116 131.25L59.563 131.059C57.8695 130.463 56.0805 130.177 54.2916 130.177C45.4184 130.177 38.1911 137.404 38.1911 146.276C38.1911 155.149 45.4184 162.375 54.2916 162.375C63.1647 162.375 70.3921 155.149 70.3921 146.276C70.3921 145.441 70.3205 144.607 70.2012 143.772L70.1536 143.438L70.1774 143.342ZM91.6924 111.43C91.6924 118.561 87.3035 125.073 80.7202 127.744C78.7405 133.587 75.735 138.978 71.7755 143.772C71.8948 144.559 71.9425 145.37 71.9425 146.181C71.9425 155.912 64.0235 163.806 54.3155 163.806C44.6075 163.806 36.6884 155.888 36.6884 146.181C36.6884 136.473 44.6075 128.555 54.3155 128.555C56.0806 128.555 57.8456 128.817 59.5153 129.342C60.541 127.816 61.4235 126.17 62.1868 124.476C58.5135 121.137 56.4145 116.415 56.4145 111.43C56.4145 106.445 58.5135 101.723 62.1868 98.3837C61.4474 96.7141 60.541 95.0684 59.5153 93.5181C57.8218 94.0428 56.0805 94.3052 54.2916 94.3052C44.5597 94.3052 36.6646 86.3867 36.6646 76.6795C36.6646 66.9722 44.5836 59.0537 54.2916 59.0537C63.9996 59.0537 71.9186 66.9722 71.9186 76.6795C71.9186 77.4665 71.8709 78.2775 71.7517 79.0884C75.7112 83.8824 78.7166 89.2727 80.6964 95.1161C87.2797 97.8113 91.6685 104.323 91.6685 111.43" fill="#231815"/>
<g opacity="0.1">
<path d="M40.433 15.6218C40.433 15.6218 81.0062 11.9011 97.2021 24.8044C113.374 37.6838 115.736 70.264 114.4 82.9765C113.04 95.689 109.725 55.1426 98.8956 40.9037C74.6376 9.03898 35.7102 21.5607 40.4569 15.6218" fill="#231815" fill-opacity="0.3"/>
</g>
<g opacity="0.1">
<path d="M18.7272 205.426C18.7272 205.426 78.4301 209.838 95.3893 197.102C112.348 184.389 114.829 152.262 113.398 139.693C111.991 127.147 108.508 167.169 97.1544 181.193C71.7276 212.629 2.17353 197.984 18.7272 205.402" fill="#231815" fill-opacity="0.3"/>
</g>
<g opacity="0.1">
<path d="M-36.6822 40.4742C-40.4032 40.832 -78.9489 52.4712 -85.0313 81.1876C-91.6623 112.456 -86.2717 148.018 -82.6699 156.985C-79.0682 165.953 -64.2558 118.395 -59.6761 101.461C-47.5113 56.4066 0.336971 36.8728 -36.6822 40.4504" fill="#231815"/>
</g>
<ellipse cx="54.2661" cy="146.192" rx="8.91693" ry="9.1717" fill="#64DEE4"/>
<circle cx="54.5208" cy="76.8944" r="9.1717" fill="#64DEE4"/>
</g>
<path opacity="0.7" d="M221.56 109.38H226.85V108.72H224.61V107.69H223.79V108.72H221.56V109.38ZM228.49 110.84H229.82V110.16H228.49V107.78H227.67V113.17H228.49V110.84ZM226.35 111.43C226.35 111.183 226.297 110.963 226.19 110.77C226.09 110.57 225.943 110.4 225.75 110.26C225.563 110.12 225.337 110.013 225.07 109.94C224.81 109.867 224.52 109.83 224.2 109.83C223.88 109.83 223.587 109.867 223.32 109.94C223.06 110.013 222.837 110.12 222.65 110.26C222.463 110.4 222.317 110.57 222.21 110.77C222.11 110.963 222.06 111.183 222.06 111.43C222.06 111.67 222.11 111.89 222.21 112.09C222.317 112.283 222.463 112.45 222.65 112.59C222.837 112.73 223.06 112.837 223.32 112.91C223.587 112.983 223.88 113.02 224.2 113.02C224.52 113.02 224.81 112.983 225.07 112.91C225.337 112.837 225.563 112.73 225.75 112.59C225.943 112.45 226.09 112.283 226.19 112.09C226.297 111.89 226.35 111.67 226.35 111.43ZM222.84 111.43C222.84 111.13 222.96 110.893 223.2 110.72C223.447 110.54 223.78 110.45 224.2 110.45C224.62 110.45 224.953 110.54 225.2 110.72C225.447 110.893 225.57 111.13 225.57 111.43C225.57 111.73 225.447 111.97 225.2 112.15C224.953 112.323 224.62 112.41 224.2 112.41C223.78 112.41 223.447 112.323 223.2 112.15C222.96 111.97 222.84 111.73 222.84 111.43ZM228.49 113.68H222.86V116.62H228.49V113.68ZM227.68 115.96H223.66V114.33H227.68V115.96ZM238.279 116.73V107.77H237.499V116.73H238.279ZM236.609 108H235.839V111.29H234.689C234.743 110.85 234.776 110.427 234.789 110.02C234.803 109.613 234.809 109.22 234.809 108.84H233.129V109.51H234.099C234.093 109.93 234.069 110.37 234.029 110.83C233.989 111.283 233.916 111.74 233.809 112.2C233.709 112.66 233.566 113.113 233.379 113.56C233.193 114 232.946 114.42 232.639 114.82L233.279 115.19C233.639 114.69 233.919 114.17 234.119 113.63C234.326 113.083 234.483 112.527 234.589 111.96H235.839V116.28H236.609V108ZM232.829 108.84H230.839V109.51H232.129C232.116 109.93 232.083 110.347 232.029 110.76C231.983 111.167 231.903 111.57 231.789 111.97C231.676 112.37 231.526 112.76 231.339 113.14C231.159 113.52 230.929 113.89 230.649 114.25L231.289 114.61C231.609 114.177 231.869 113.723 232.069 113.25C232.276 112.77 232.433 112.283 232.539 111.79C232.653 111.297 232.729 110.803 232.769 110.31C232.809 109.81 232.829 109.32 232.829 108.84ZM249.015 110.35H250.155V109.67H249.015V107.78H248.195V112.44H249.015V110.35ZM247.425 112.3L247.815 111.7C247.568 111.58 247.355 111.433 247.175 111.26C247.001 111.08 246.855 110.89 246.735 110.69C246.621 110.483 246.535 110.273 246.475 110.06C246.421 109.847 246.395 109.647 246.395 109.46V108.94H247.485V108.28H244.995V108.94H245.625V109.46C245.625 109.607 245.611 109.77 245.585 109.95C245.558 110.123 245.511 110.303 245.445 110.49C245.385 110.677 245.301 110.86 245.195 111.04C245.088 111.213 244.958 111.37 244.805 111.51C244.645 111.363 244.511 111.2 244.405 111.02C244.298 110.84 244.211 110.657 244.145 110.47C244.085 110.283 244.041 110.103 244.015 109.93C243.988 109.757 243.975 109.6 243.975 109.46V108.94H244.605V108.28H242.095V108.94H243.205V109.46C243.205 109.64 243.175 109.837 243.115 110.05C243.061 110.257 242.975 110.463 242.855 110.67C242.741 110.877 242.595 111.07 242.415 111.25C242.241 111.43 242.031 111.58 241.785 111.7L242.175 112.3C242.535 112.127 242.828 111.9 243.055 111.62C243.281 111.333 243.455 111.03 243.575 110.71C243.668 111.037 243.811 111.35 244.005 111.65C244.198 111.95 244.465 112.197 244.805 112.39C245.145 112.203 245.408 111.963 245.595 111.67C245.788 111.377 245.931 111.06 246.025 110.72C246.151 111.047 246.325 111.35 246.545 111.63C246.771 111.903 247.065 112.127 247.425 112.3ZM249.015 112.92H248.275V114.08H246.915V112.92H246.165V116.64H249.015V112.92ZM243.635 116.02V115.06H245.625V113.01H242.815V113.63H244.825V114.46H242.845V116.64H244.075C244.301 116.64 244.515 116.633 244.715 116.62C244.915 116.613 245.108 116.597 245.295 116.57C245.488 116.55 245.688 116.52 245.895 116.48L245.815 115.86C245.635 115.893 245.461 115.92 245.295 115.94C245.135 115.96 244.968 115.977 244.795 115.99C244.621 116.003 244.441 116.01 244.255 116.01C244.068 116.017 243.861 116.02 243.635 116.02ZM246.915 114.7H248.275V116H246.915V114.7ZM258.584 116.74V107.77H257.804V116.74H258.584ZM256.714 108.01H255.934V111.44H254.384C254.537 111.04 254.647 110.63 254.714 110.21C254.781 109.783 254.814 109.35 254.814 108.91H251.354V109.58H254.004C253.931 110.527 253.647 111.393 253.154 112.18C252.667 112.96 251.941 113.64 250.974 114.22L251.454 114.81C252.081 114.43 252.607 114.013 253.034 113.56C253.461 113.107 253.814 112.62 254.094 112.1H255.934V116.29H256.714V108.01ZM263.29 110.57H269.38V109.91H264.1V107.9H263.29V110.57ZM266.66 112.96V112.02H270.33V111.35H262.2V112.02H265.84V112.96H263.2V113.59H268.48V114.43H263.22V116.64H269.6V116H264.04V115.03H269.3V112.96H266.66ZM278.679 116.75V107.76H277.859V111.22H276.149V111.89H277.859V116.75H278.679ZM272.439 113.91V111.74H275.619V108.6H271.609V109.27H274.819V111.08H271.629V114.59H272.319C272.725 114.59 273.102 114.587 273.449 114.58C273.802 114.573 274.142 114.56 274.469 114.54C274.802 114.513 275.125 114.483 275.439 114.45C275.759 114.41 276.089 114.36 276.429 114.3L276.349 113.62C276.029 113.68 275.715 113.73 275.409 113.77C275.102 113.803 274.792 113.833 274.479 113.86C274.172 113.88 273.849 113.893 273.509 113.9C273.175 113.907 272.819 113.91 272.439 113.91Z" fill="black"/>
<path d="M289.664 106.484H291.432V108.707H289.703V109.526H298.179V108.707H296.463V106.484H298.218V105.665H289.664V106.484ZM292.498 106.484H295.397V108.707H292.498V106.484ZM299.232 111.346V110.501H288.676V111.346H299.232ZM298.231 116.026H291.029V114.934H297.88V112.373H289.95V113.166H296.827V114.167H289.989V116.832H298.231V116.026ZM310.424 116.949V105.301H309.397V109.903H307.746V105.561H306.745V116.364H307.746V110.774H309.397V116.949H310.424ZM301.935 113.283V110.67H305.25V106.575H300.869V107.446H304.21V109.799H300.908V114.167H301.675C302.394 114.167 303.101 114.15 303.794 114.115C304.487 114.072 305.237 113.981 306.043 113.842L305.965 112.958C305.22 113.088 304.526 113.175 303.885 113.218C303.252 113.253 302.602 113.274 301.935 113.283ZM321.889 116.988V105.301H320.823V116.988H321.889ZM316.481 108.408V106.315H315.428V108.408C315.428 108.963 315.346 109.513 315.181 110.059C315.016 110.596 314.791 111.099 314.505 111.567C314.219 112.035 313.885 112.451 313.504 112.815C313.123 113.179 312.72 113.465 312.295 113.673L312.945 114.544C313.63 114.18 314.236 113.66 314.765 112.984C315.294 112.308 315.692 111.524 315.961 110.631C316.238 111.472 316.637 112.217 317.157 112.867C317.686 113.508 318.288 113.994 318.964 114.323L319.601 113.465C319.176 113.274 318.773 113.006 318.392 112.659C318.011 112.304 317.677 111.901 317.391 111.45C317.114 110.999 316.893 110.514 316.728 109.994C316.563 109.465 316.481 108.937 316.481 108.408ZM292.823 136.169C293.421 136.169 293.967 136.056 294.461 135.831C294.964 135.597 295.393 135.268 295.748 134.843C296.112 134.41 296.394 133.885 296.593 133.27C296.792 132.655 296.892 131.966 296.892 131.203C296.892 130.44 296.792 129.756 296.593 129.149C296.394 128.542 296.112 128.027 295.748 127.602C295.393 127.177 294.964 126.852 294.461 126.627C293.967 126.402 293.421 126.289 292.823 126.289C292.225 126.289 291.675 126.402 291.172 126.627C290.678 126.852 290.249 127.177 289.885 127.602C289.53 128.027 289.252 128.542 289.053 129.149C288.854 129.756 288.754 130.44 288.754 131.203C288.754 131.966 288.854 132.655 289.053 133.27C289.252 133.885 289.53 134.41 289.885 134.843C290.249 135.268 290.678 135.597 291.172 135.831C291.675 136.056 292.225 136.169 292.823 136.169ZM292.823 135.116C292.398 135.116 292.008 135.025 291.653 134.843C291.306 134.652 291.007 134.388 290.756 134.05C290.513 133.712 290.323 133.305 290.184 132.828C290.054 132.343 289.989 131.801 289.989 131.203C289.989 130.605 290.054 130.068 290.184 129.591C290.323 129.114 290.513 128.711 290.756 128.382C291.007 128.044 291.306 127.788 291.653 127.615C292.008 127.433 292.398 127.342 292.823 127.342C293.256 127.342 293.646 127.433 293.993 127.615C294.34 127.788 294.634 128.044 294.877 128.382C295.128 128.711 295.319 129.114 295.449 129.591C295.588 130.068 295.657 130.605 295.657 131.203C295.657 131.801 295.588 132.343 295.449 132.828C295.319 133.305 295.128 133.712 294.877 134.05C294.634 134.388 294.34 134.652 293.993 134.843C293.646 135.025 293.256 135.116 292.823 135.116ZM300.066 126.471H298.818V136H299.962V130.995C299.962 130.492 299.945 129.994 299.91 129.5C299.876 129.006 299.845 128.512 299.819 128.018H299.871L300.898 129.981L304.369 136H305.604V126.471H304.46V131.424C304.46 131.918 304.478 132.421 304.512 132.932C304.547 133.443 304.582 133.946 304.616 134.44H304.551L303.537 132.477L300.066 126.471ZM311.671 125.041H310.813L306.913 137.677H307.784L311.671 125.041ZM316.554 136.169C317.152 136.169 317.698 136.056 318.192 135.831C318.695 135.597 319.124 135.268 319.479 134.843C319.843 134.41 320.125 133.885 320.324 133.27C320.523 132.655 320.623 131.966 320.623 131.203C320.623 130.44 320.523 129.756 320.324 129.149C320.125 128.542 319.843 128.027 319.479 127.602C319.124 127.177 318.695 126.852 318.192 126.627C317.698 126.402 317.152 126.289 316.554 126.289C315.956 126.289 315.406 126.402 314.903 126.627C314.409 126.852 313.98 127.177 313.616 127.602C313.261 128.027 312.983 128.542 312.784 129.149C312.585 129.756 312.485 130.44 312.485 131.203C312.485 131.966 312.585 132.655 312.784 133.27C312.983 133.885 313.261 134.41 313.616 134.843C313.98 135.268 314.409 135.597 314.903 135.831C315.406 136.056 315.956 136.169 316.554 136.169ZM316.554 135.116C316.129 135.116 315.739 135.025 315.384 134.843C315.037 134.652 314.738 134.388 314.487 134.05C314.244 133.712 314.054 133.305 313.915 132.828C313.785 132.343 313.72 131.801 313.72 131.203C313.72 130.605 313.785 130.068 313.915 129.591C314.054 129.114 314.244 128.711 314.487 128.382C314.738 128.044 315.037 127.788 315.384 127.615C315.739 127.433 316.129 127.342 316.554 127.342C316.987 127.342 317.377 127.433 317.724 127.615C318.071 127.788 318.365 128.044 318.608 128.382C318.859 128.711 319.05 129.114 319.18 129.591C319.319 130.068 319.388 130.605 319.388 131.203C319.388 131.801 319.319 132.343 319.18 132.828C319.05 133.305 318.859 133.712 318.608 134.05C318.365 134.388 318.071 134.652 317.724 134.843C317.377 135.025 316.987 135.116 316.554 135.116ZM328.049 126.471H322.55V136H323.759V131.723H327.399V130.709H323.759V127.485H328.049V126.471ZM335.091 126.471H329.592V136H330.801V131.723H334.441V130.709H330.801V127.485H335.091V126.471Z" fill="black"/>
<circle cx="210" cy="113" r="4.5" stroke="black"/>
<path d="M58.3333 77.0049C58.3333 78.4776 59.5272 79.6715 61 79.6715C62.4728 79.6715 63.6667 78.4776 63.6667 77.0049C63.6667 75.5321 62.4728 74.3382 61 74.3382C59.5272 74.3382 58.3333 75.5321 58.3333 77.0049ZM192 77.0049H192.5V76.5049H192V77.0049ZM192 147.005V147.505H192.5V147.005H192ZM58.3333 147.005C58.3333 148.478 59.5272 149.672 61 149.672C62.4728 149.672 63.6667 148.478 63.6667 147.005C63.6667 145.532 62.4728 144.338 61 144.338C59.5272 144.338 58.3333 145.532 58.3333 147.005ZM61 77.5049H192V76.5049H61V77.5049ZM191.5 77.0049V147.005H192.5V77.0049H191.5ZM192 146.505H61V147.505H192V146.505Z" fill="black"/>
</svg>
