<svg width="357" height="231" viewBox="0 0 357 231" fill="none" xmlns="http://www.w3.org/2000/svg">
<mask id="mask0_960_20460" style="mask-type:alpha" maskUnits="userSpaceOnUse" x="0" y="0" width="169" height="231">
<rect y="0.00488281" width="169" height="230.005" fill="#D9D9D9"/>
</mask>
<g mask="url(#mask0_960_20460)">
<path d="M23.8793 218.258L23.4738 217.685C23.4738 217.685 17.4869 221.883 13.098 227.679C7.63575 227.774 -100.297 226.653 -105.402 226.606L-112.438 216.731L-113.01 217.137L-105.783 227.297H-105.616C-100.87 227.345 10.4026 228.514 13.265 228.371H13.4319L13.5273 228.228C17.8685 222.456 23.7839 218.306 23.8316 218.258" fill="#231815" fill-opacity="0.3"/>
<path d="M129.284 196.339C129.284 196.052 129.284 195.766 129.236 195.504C128.377 187.848 125.348 183.841 125.229 183.674L124.68 184.103C124.68 184.103 127.733 188.134 128.544 195.575C129.379 203.017 117.644 212.82 114.376 213.273C109.892 214.179 107.268 213.583 105.861 212.915C104.358 212.199 103.881 211.269 103.881 211.245L103.261 211.555C103.356 211.722 105.407 215.801 114.495 213.964C117.858 213.511 129.308 204.162 129.308 196.362" fill="#231815" fill-opacity="0.3"/>
<path d="M123.535 198.605C123.535 198.605 123.273 198.486 123.178 198.509C122.915 198.509 122.605 198.7 122.391 198.963L115.473 207.215C115.068 207.692 115.068 208.264 115.306 208.455L116.356 209.385C116.356 209.385 116.571 209.505 116.714 209.481C116.976 209.481 117.286 209.29 117.501 209.028L124.418 200.775C124.824 200.298 124.824 199.726 124.585 199.511L123.535 198.605ZM125.229 201.443L118.312 209.695C117.906 210.173 117.358 210.483 116.809 210.53C116.38 210.554 115.974 210.435 115.664 210.172L114.615 209.266C113.899 208.646 113.923 207.454 114.662 206.547L121.58 198.295C121.985 197.818 122.534 197.508 123.082 197.46C123.512 197.436 123.917 197.555 124.227 197.818L125.277 198.748C125.635 199.058 125.801 199.487 125.801 199.964C125.801 200.465 125.611 200.99 125.229 201.443Z" fill="#231815" fill-opacity="0.3"/>
<path d="M152.397 148.065H128.091V149.306H152.397V148.065Z" fill="#231815" fill-opacity="0.3"/>
<path d="M152.493 74.1992H128.855V75.4395H152.493V74.1992Z" fill="#231815" fill-opacity="0.3"/>
<path d="M-219.417 172.918V172.966C-215.385 193.811 -204.318 203.733 -195.755 208.384C-186.452 213.441 -177.985 213.56 -177.865 213.56C-175.719 213.655 36.7122 222.289 84.2027 214.013C84.799 213.918 85.443 213.846 86.1109 213.751C97.4886 212.296 118.693 209.553 124.275 180.383C128.306 156.246 128.497 118.514 128.497 118.133V103.727C128.497 103.345 128.306 65.6133 124.299 41.5001C118.741 12.3067 97.5363 9.58774 86.1348 8.13284C85.4669 8.03743 84.8228 7.96588 84.1788 7.87048C36.7361 -0.405752 -175.719 8.22824 -177.889 8.32364C-177.985 8.32364 -186.452 8.4429 -195.755 13.4993C-204.318 18.1502 -215.362 28.0721 -219.393 48.9177V48.9654C-221.993 59.1736 -222.088 110.572 -222.088 111.073C-222.088 111.574 -221.993 162.686 -219.393 172.894L-219.417 172.918ZM126.016 180.693C123.512 193.811 117.549 203.328 108.27 208.957C100.518 213.655 92.0025 214.752 86.3733 215.492C85.7054 215.587 85.0614 215.659 84.5128 215.73C36.8792 224.054 -175.743 215.396 -177.865 215.301C-178.223 215.301 -186.786 215.182 -196.47 209.958C-205.391 205.14 -216.888 194.861 -221.062 173.324C-223.71 162.853 -223.805 113.196 -223.805 111.097C-223.805 108.974 -223.71 59.0543 -221.062 48.5838C-216.888 27.0465 -205.391 16.7668 -196.47 11.949C-186.786 6.70179 -178.223 6.60638 -177.889 6.60638C-175.743 6.51098 36.8792 -2.14686 84.4889 6.17707C85.0852 6.24862 85.7054 6.34403 86.3733 6.41558C92.0025 7.1311 100.518 8.22824 108.27 12.9507C117.549 18.5795 123.512 28.096 126.016 41.2378C130.071 65.5179 130.262 103.393 130.262 103.775V118.204C130.262 118.586 130.071 156.461 126.016 180.765" fill="#231815" fill-opacity="0.3"/>
<path d="M152.612 97.9302C152.612 91.1566 152.564 75.8682 152.564 73.7216V54.3786C152.564 49.8231 149.893 49.5846 147.746 49.37C147.364 49.3461 147.03 49.2984 146.696 49.2507H146.649C127.71 49.203 125.515 41.7854 125.492 41.7139L124.824 41.8808C124.919 42.2147 127.114 49.8708 146.625 49.9424C146.983 49.9901 147.34 50.0378 147.698 50.0616C149.845 50.2525 151.872 50.4433 151.872 54.3548V73.6978C151.896 82.9519 151.944 100.578 151.92 101.055C151.92 101.055 151.825 102.2 151.014 102.2C150.823 102.2 150.37 102.2 149.773 102.2C147.531 102.2 143.333 102.2 141.258 102.152C138.014 102.08 137.275 106.326 137.012 107.709L136.965 107.948C136.869 109.283 136.869 111.931 136.869 112.026H137.561C137.561 112.026 137.561 109.212 137.656 107.924V107.828C137.895 106.588 138.563 102.796 141.21 102.843C143.286 102.891 147.484 102.891 149.726 102.867C150.322 102.867 150.751 102.867 150.966 102.867C152.111 102.867 152.516 101.699 152.564 101.079C152.564 100.983 152.564 99.7667 152.564 97.8825" fill="#231815" fill-opacity="0.3"/>
<path d="M152.612 126.17C152.612 124.286 152.612 123.07 152.612 122.974C152.564 122.354 152.159 121.186 151.014 121.186C150.799 121.186 150.346 121.186 149.749 121.186C147.507 121.186 143.309 121.186 141.258 121.233C138.61 121.281 137.942 117.489 137.728 116.249V116.153C137.608 114.865 137.608 112.075 137.608 112.051H136.917C136.917 112.051 136.917 114.794 137.012 116.129V116.249L137.06 116.344C137.298 117.727 138.062 121.973 141.306 121.901C143.357 121.853 147.531 121.853 149.773 121.853C150.393 121.853 150.847 121.853 151.037 121.853C151.825 121.853 151.944 122.998 151.944 122.998C151.968 123.475 151.944 141.101 151.92 150.355V169.698C151.92 173.61 149.893 173.801 147.746 174.015C147.388 174.039 147.03 174.087 146.672 174.134C127.137 174.206 124.943 181.862 124.871 182.196L125.539 182.363C125.539 182.363 127.757 174.874 146.696 174.826H146.744C147.078 174.778 147.436 174.731 147.793 174.707C149.94 174.516 152.588 174.254 152.588 169.698V150.355C152.588 148.209 152.636 132.896 152.636 126.147" fill="#231815" fill-opacity="0.3"/>
<path d="M143.643 121.161H146.052V102.915H143.643V121.161ZM142.951 102.199H146.744V121.852H142.951V102.199Z" fill="#231815" fill-opacity="0.3"/>
<path d="M-208.54 168.72V168.768C-204.747 188.301 -194.395 197.603 -186.357 201.968C-177.627 206.714 -169.684 206.834 -169.589 206.834C-167.585 206.929 31.5601 215.014 76.0689 207.263C76.6414 207.191 77.2377 207.096 77.8579 207.024C88.5438 205.641 108.413 203.089 113.613 175.756C117.382 153.145 117.549 117.751 117.572 117.417V103.917C117.572 103.56 117.405 68.1888 113.637 45.5783C108.413 18.2214 88.5438 15.6693 77.8817 14.286C77.2377 14.2144 76.6414 14.119 76.0689 14.0475C31.5839 6.27212 -167.561 14.3814 -169.589 14.4768C-169.66 14.4768 -177.603 14.5961 -186.333 19.3424C-194.348 23.7071 -204.723 33.0089 -208.492 52.5427V52.5904C-210.949 62.1546 -211.02 110.333 -211.02 110.81C-211.02 111.287 -210.949 159.18 -208.492 168.768L-208.54 168.72ZM115.283 176.066C112.945 188.373 107.34 197.269 98.6573 202.564C91.3823 206.977 83.3917 208.002 78.1203 208.694C77.5001 208.765 76.9038 208.861 76.379 208.932C31.727 216.732 -167.585 208.622 -169.565 208.527C-169.899 208.527 -177.937 208.408 -187.001 203.518C-195.349 198.987 -206.155 189.375 -210.066 169.173C-212.547 159.347 -212.619 112.814 -212.619 110.834C-212.619 108.854 -212.547 62.0353 -210.066 52.2326C-206.155 32.0548 -195.373 22.4191 -187.001 17.8875C-177.937 12.9742 -169.899 12.8788 -169.589 12.8788C-167.585 12.7834 31.727 4.67411 76.3552 12.4733C76.9038 12.5449 77.5001 12.6403 78.1441 12.7118C83.4155 13.4035 91.4061 14.4291 98.6812 18.8415C107.363 24.1125 112.969 33.0327 115.306 45.3397C119.099 68.0934 119.29 103.607 119.29 103.965V117.488C119.29 117.846 119.123 153.336 115.306 176.114" fill="#231815" fill-opacity="0.3"/>
<path d="M45.4183 146.156C45.4183 151.069 49.4017 155.053 54.3153 155.053C59.2289 155.053 63.2123 151.069 63.2123 146.156C63.2123 141.243 59.2289 137.26 54.3153 137.26C49.4017 137.26 45.4183 141.243 45.4183 146.156ZM64.7389 146.156C64.7389 151.904 60.0638 156.579 54.3153 156.579C48.5669 156.579 43.8917 151.904 43.8917 146.156C43.8917 140.408 48.5669 135.733 54.3153 135.733C60.0638 135.733 64.7389 140.408 64.7389 146.156Z" fill="#231815"/>
<path d="M45.4183 76.6562C45.4183 81.5456 49.4017 85.5525 54.3153 85.5525C59.2289 85.5525 63.2123 81.5695 63.2123 76.6562C63.2123 71.7429 59.2289 67.7598 54.3153 67.7598C49.4017 67.7598 45.4183 71.7429 45.4183 76.6562ZM64.7389 76.6562C64.7389 82.4042 60.0638 87.079 54.3153 87.079C48.5669 87.079 43.8917 82.4042 43.8917 76.6562C43.8917 70.9082 48.5669 66.2334 54.3153 66.2334C60.0638 66.2334 64.7389 70.9082 64.7389 76.6562Z" fill="#231815"/>
<path d="M65.1682 111.669C65.1682 116.558 69.1516 120.565 74.0653 120.565C78.9789 120.565 82.9623 116.582 82.9623 111.669C82.9623 106.756 78.9789 102.773 74.0653 102.773C69.1516 102.773 65.1682 106.756 65.1682 111.669ZM84.4888 111.669C84.4888 117.417 79.8137 122.092 74.0653 122.092C68.3168 122.092 63.6417 117.417 63.6417 111.669C63.6417 105.921 68.3168 101.246 74.0653 101.246C79.8137 101.246 84.4888 105.921 84.4888 111.669Z" fill="#231815"/>
<path d="M70.1773 143.342L70.3919 143.08C74.3992 138.286 77.4285 132.848 79.3844 126.957L79.5036 126.623L79.8376 126.504C86.0154 124.119 90.1657 118.084 90.1657 111.478C90.1657 104.871 86.0154 98.8369 79.8376 96.4518L79.5036 96.3325L79.3844 95.9986C77.4285 90.0836 74.3992 84.6695 70.3919 79.8755L70.1773 79.6131L70.225 79.2792C70.3681 78.4444 70.4158 77.6096 70.4158 76.7749C70.4158 67.9024 63.1885 60.6756 54.3153 60.6756C45.4422 60.6756 38.2148 67.9024 38.2148 76.7749C38.2148 85.6474 45.4422 92.8741 54.3153 92.8741C56.1043 92.8741 57.8932 92.5641 59.5867 91.9917L60.1353 91.8009L60.4693 92.2779C61.805 94.2098 62.9261 96.261 63.8087 98.3837L64.0233 98.9084L63.594 99.2662C59.9923 102.343 57.9171 106.803 57.9171 111.525C57.9171 116.248 59.9922 120.708 63.5701 123.785L63.9995 124.143L63.7848 124.667C62.8784 126.814 61.7573 128.889 60.4454 130.773L60.1115 131.25L59.5629 131.059C57.8694 130.463 56.0804 130.177 54.2915 130.177C45.4183 130.177 38.191 137.404 38.191 146.276C38.191 155.149 45.4183 162.375 54.2915 162.375C63.1646 162.375 70.3919 155.149 70.3919 146.276C70.3919 145.441 70.3204 144.607 70.2011 143.772L70.1534 143.438L70.1773 143.342ZM91.6923 111.43C91.6923 118.561 87.3034 125.073 80.7201 127.744C78.7403 133.587 75.7349 138.978 71.7754 143.772C71.8947 144.559 71.9424 145.37 71.9424 146.181C71.9424 155.912 64.0233 163.806 54.3153 163.806C44.6074 163.806 36.6883 155.888 36.6883 146.181C36.6883 136.473 44.6074 128.555 54.3153 128.555C56.0804 128.555 57.8455 128.817 59.5152 129.342C60.5408 127.816 61.4234 126.17 62.1867 124.476C58.5134 121.137 56.4143 116.415 56.4143 111.43C56.4143 106.445 58.5134 101.723 62.1867 98.3837C61.4472 96.7141 60.5408 95.0684 59.5152 93.5181C57.8217 94.0428 56.0804 94.3052 54.2915 94.3052C44.5596 94.3052 36.6644 86.3867 36.6644 76.6795C36.6644 66.9722 44.5835 59.0537 54.2915 59.0537C63.9995 59.0537 71.9185 66.9722 71.9185 76.6795C71.9185 77.4665 71.8708 78.2775 71.7516 79.0884C75.7111 83.8824 78.7165 89.2727 80.6963 95.1161C87.2796 97.8113 91.6684 104.323 91.6684 111.43" fill="#231815"/>
<g opacity="0.1">
<path d="M40.4332 15.6218C40.4332 15.6218 81.0064 11.9011 97.2023 24.8044C113.374 37.6838 115.736 70.264 114.4 82.9765C113.04 95.689 109.725 55.1426 98.8958 40.9037C74.6377 9.03898 35.7104 21.5607 40.457 15.6218" fill="#231815" fill-opacity="0.3"/>
</g>
<g opacity="0.1">
<path d="M18.7273 205.426C18.7273 205.426 78.4302 209.838 95.3894 197.102C112.349 184.389 114.829 152.262 113.398 139.693C111.991 127.147 108.508 167.169 97.1545 181.193C71.7277 212.629 2.17362 197.984 18.7273 205.402" fill="#231815" fill-opacity="0.3"/>
</g>
<g opacity="0.1">
<path d="M-36.6821 40.4742C-40.4031 40.832 -78.9489 52.4712 -85.0313 81.1876C-91.6623 112.456 -86.2716 148.018 -82.6699 156.985C-79.0681 165.953 -64.2557 118.395 -59.676 101.461C-47.5112 56.4066 0.337029 36.8728 -36.6821 40.4504" fill="#231815"/>
</g>
<ellipse cx="54.2658" cy="146.192" rx="8.91693" ry="9.1717" fill="#64DEE4"/>
<circle cx="54.5206" cy="76.8944" r="9.1717" fill="#64DEE4"/>
</g>
<path opacity="0.7" d="M212.04 90.13C212.42 90.13 212.763 90.0767 213.07 89.97C213.383 89.8633 213.647 89.7167 213.86 89.53C214.073 89.3367 214.237 89.1133 214.35 88.86C214.47 88.6067 214.53 88.3367 214.53 88.05C214.53 87.7767 214.49 87.54 214.41 87.34C214.337 87.1333 214.23 86.9533 214.09 86.8C213.957 86.6467 213.797 86.5133 213.61 86.4C213.43 86.2867 213.233 86.1833 213.02 86.09L211.97 85.64C211.83 85.58 211.687 85.5167 211.54 85.45C211.393 85.3833 211.263 85.3033 211.15 85.21C211.037 85.1167 210.943 85.0067 210.87 84.88C210.797 84.7533 210.76 84.6 210.76 84.42C210.76 84.08 210.883 83.8167 211.13 83.63C211.377 83.4367 211.71 83.34 212.13 83.34C212.47 83.34 212.777 83.4033 213.05 83.53C213.323 83.65 213.573 83.8167 213.8 84.03L214.29 83.44C214.03 83.16 213.713 82.94 213.34 82.78C212.973 82.6133 212.57 82.53 212.13 82.53C211.797 82.53 211.487 82.58 211.2 82.68C210.92 82.7733 210.677 82.9067 210.47 83.08C210.27 83.2533 210.11 83.46 209.99 83.7C209.877 83.94 209.82 84.2 209.82 84.48C209.82 84.7467 209.867 84.9833 209.96 85.19C210.053 85.39 210.17 85.5667 210.31 85.72C210.457 85.8667 210.617 85.9933 210.79 86.1C210.97 86.2 211.143 86.2867 211.31 86.36L212.37 86.82C212.543 86.9 212.703 86.98 212.85 87.06C212.997 87.1333 213.123 87.2167 213.23 87.31C213.343 87.4033 213.43 87.5167 213.49 87.65C213.557 87.7767 213.59 87.9333 213.59 88.12C213.59 88.48 213.453 88.77 213.18 88.99C212.907 89.21 212.53 89.32 212.05 89.32C211.67 89.32 211.303 89.24 210.95 89.08C210.597 88.9133 210.287 88.69 210.02 88.41L209.47 89.04C209.79 89.38 210.167 89.6467 210.6 89.84C211.04 90.0333 211.52 90.13 212.04 90.13ZM216.697 82.04H215.787V90H216.697V86.06C216.97 85.7867 217.217 85.58 217.437 85.44C217.657 85.3 217.907 85.23 218.187 85.23C218.547 85.23 218.807 85.3433 218.967 85.57C219.133 85.79 219.217 86.16 219.217 86.68V90H220.127V86.56C220.127 85.8533 219.997 85.3233 219.737 84.97C219.477 84.61 219.053 84.43 218.467 84.43C218.093 84.43 217.763 84.52 217.477 84.7C217.19 84.8733 216.92 85.0867 216.667 85.34L216.697 84.22V82.04ZM223.871 90.13C224.204 90.13 224.521 90.0667 224.821 89.94C225.128 89.8133 225.398 89.63 225.631 89.39C225.864 89.1433 226.048 88.8433 226.181 88.49C226.321 88.1367 226.391 87.7367 226.391 87.29C226.391 86.8367 226.321 86.4333 226.181 86.08C226.048 85.7267 225.864 85.4267 225.631 85.18C225.398 84.9333 225.128 84.7467 224.821 84.62C224.521 84.4933 224.204 84.43 223.871 84.43C223.538 84.43 223.218 84.4933 222.911 84.62C222.611 84.7467 222.344 84.9333 222.111 85.18C221.878 85.4267 221.691 85.7267 221.551 86.08C221.418 86.4333 221.351 86.8367 221.351 87.29C221.351 87.7367 221.418 88.1367 221.551 88.49C221.691 88.8433 221.878 89.1433 222.111 89.39C222.344 89.63 222.611 89.8133 222.911 89.94C223.218 90.0667 223.538 90.13 223.871 90.13ZM223.871 89.37C223.638 89.37 223.424 89.32 223.231 89.22C223.038 89.12 222.871 88.98 222.731 88.8C222.598 88.62 222.491 88.4033 222.411 88.15C222.338 87.89 222.301 87.6033 222.301 87.29C222.301 86.9767 222.338 86.6933 222.411 86.44C222.491 86.18 222.598 85.9567 222.731 85.77C222.871 85.5833 223.038 85.44 223.231 85.34C223.424 85.24 223.638 85.19 223.871 85.19C224.104 85.19 224.318 85.24 224.511 85.34C224.704 85.44 224.871 85.5833 225.011 85.77C225.151 85.9567 225.258 86.18 225.331 86.44C225.411 86.6933 225.451 86.9767 225.451 87.29C225.451 87.6033 225.411 87.89 225.331 88.15C225.258 88.4033 225.151 88.62 225.011 88.8C224.871 88.98 224.704 89.12 224.511 89.22C224.318 89.32 224.104 89.37 223.871 89.37ZM228.475 84.57H227.725V90H228.635V86.51C228.722 86.2767 228.822 86.08 228.935 85.92C229.049 85.76 229.165 85.6333 229.285 85.54C229.405 85.44 229.529 85.37 229.655 85.33C229.782 85.2833 229.899 85.26 230.005 85.26C230.119 85.26 230.212 85.2667 230.285 85.28C230.359 85.2933 230.442 85.3167 230.535 85.35L230.705 84.55C230.619 84.5033 230.529 84.4733 230.435 84.46C230.349 84.44 230.245 84.43 230.125 84.43C229.819 84.43 229.532 84.5333 229.265 84.74C229.005 84.94 228.779 85.2133 228.585 85.56H228.555L228.475 84.57ZM233.212 90.13C233.379 90.13 233.549 90.11 233.722 90.07C233.896 90.03 234.059 89.9833 234.212 89.93L234.032 89.25C233.939 89.2833 233.836 89.3167 233.722 89.35C233.609 89.3767 233.506 89.39 233.412 89.39C233.092 89.39 232.872 89.3 232.752 89.12C232.632 88.94 232.572 88.68 232.572 88.34V85.31H234.042V84.57H232.572V83.05H231.812L231.702 84.57L230.852 84.62V85.31H231.662V88.32C231.662 88.5933 231.689 88.8433 231.742 89.07C231.796 89.29 231.882 89.48 232.002 89.64C232.122 89.7933 232.282 89.9133 232.482 90C232.682 90.0867 232.926 90.13 233.212 90.13ZM238.058 84.57H237.308V92.29H238.218V90.45L238.198 89.5C238.445 89.7 238.695 89.8567 238.948 89.97C239.202 90.0767 239.452 90.13 239.698 90.13C240.012 90.13 240.308 90.0667 240.588 89.94C240.875 89.8067 241.125 89.6167 241.338 89.37C241.558 89.1167 241.732 88.81 241.858 88.45C241.992 88.0833 242.058 87.6667 242.058 87.2C242.058 86.78 242.012 86.4 241.918 86.06C241.825 85.72 241.685 85.43 241.498 85.19C241.318 84.95 241.095 84.7633 240.828 84.63C240.562 84.4967 240.252 84.43 239.898 84.43C239.578 84.43 239.272 84.5067 238.978 84.66C238.685 84.8133 238.415 84.99 238.168 85.19H238.138L238.058 84.57ZM239.548 89.37C239.368 89.37 239.162 89.33 238.928 89.25C238.702 89.1633 238.465 89.0133 238.218 88.8V85.95C238.485 85.7033 238.735 85.5167 238.968 85.39C239.208 85.2633 239.445 85.2 239.678 85.2C239.938 85.2 240.158 85.25 240.338 85.35C240.518 85.4433 240.665 85.58 240.778 85.76C240.892 85.9333 240.975 86.1433 241.028 86.39C241.082 86.6367 241.108 86.91 241.108 87.21C241.108 87.55 241.068 87.8533 240.988 88.12C240.915 88.3867 240.808 88.6133 240.668 88.8C240.528 88.98 240.362 89.12 240.168 89.22C239.982 89.32 239.775 89.37 239.548 89.37ZM244.159 84.57H243.409V90H244.319V86.51C244.406 86.2767 244.506 86.08 244.619 85.92C244.733 85.76 244.849 85.6333 244.969 85.54C245.089 85.44 245.213 85.37 245.339 85.33C245.466 85.2833 245.583 85.26 245.689 85.26C245.803 85.26 245.896 85.2667 245.969 85.28C246.043 85.2933 246.126 85.3167 246.219 85.35L246.389 84.55C246.303 84.5033 246.213 84.4733 246.119 84.46C246.033 84.44 245.929 84.43 245.809 84.43C245.503 84.43 245.216 84.5333 244.949 84.74C244.689 84.94 244.463 85.2133 244.269 85.56H244.239L244.159 84.57ZM249.376 90.13C249.756 90.13 250.09 90.0767 250.376 89.97C250.67 89.8567 250.936 89.7233 251.176 89.57L250.846 88.97C250.646 89.1033 250.436 89.21 250.216 89.29C249.996 89.3633 249.753 89.4 249.486 89.4C248.966 89.4 248.543 89.23 248.216 88.89C247.896 88.55 247.72 88.0867 247.686 87.5H251.346C251.36 87.4333 251.37 87.3567 251.376 87.27C251.383 87.1767 251.386 87.08 251.386 86.98C251.386 86.5933 251.336 86.2433 251.236 85.93C251.143 85.6167 251.003 85.35 250.816 85.13C250.636 84.9033 250.413 84.73 250.146 84.61C249.88 84.49 249.573 84.43 249.226 84.43C248.913 84.43 248.606 84.4967 248.306 84.63C248.013 84.7633 247.753 84.9533 247.526 85.2C247.3 85.4467 247.116 85.7467 246.976 86.1C246.843 86.4533 246.776 86.85 246.776 87.29C246.776 87.7367 246.843 88.1367 246.976 88.49C247.116 88.8433 247.303 89.1433 247.536 89.39C247.77 89.63 248.043 89.8133 248.356 89.94C248.676 90.0667 249.016 90.13 249.376 90.13ZM250.586 86.85H247.676C247.703 86.5833 247.763 86.3467 247.856 86.14C247.95 85.9267 248.066 85.75 248.206 85.61C248.346 85.4633 248.503 85.3533 248.676 85.28C248.856 85.2 249.043 85.16 249.236 85.16C249.663 85.16 249.993 85.3 250.226 85.58C250.466 85.86 250.586 86.2833 250.586 86.85ZM254.044 90.13C254.364 90.13 254.647 90.0867 254.894 90C255.14 89.9133 255.347 89.8 255.514 89.66C255.68 89.5133 255.807 89.3433 255.894 89.15C255.98 88.95 256.024 88.74 256.024 88.52C256.024 88.2667 255.974 88.0533 255.874 87.88C255.774 87.7 255.644 87.5467 255.484 87.42C255.33 87.2933 255.154 87.19 254.954 87.11C254.76 87.0233 254.564 86.9433 254.364 86.87C254.21 86.81 254.06 86.7533 253.914 86.7C253.774 86.64 253.647 86.5767 253.534 86.51C253.42 86.4367 253.33 86.3533 253.264 86.26C253.197 86.1667 253.164 86.0567 253.164 85.93C253.164 85.7167 253.244 85.5333 253.404 85.38C253.564 85.2267 253.814 85.15 254.154 85.15C254.4 85.15 254.62 85.1967 254.814 85.29C255.014 85.3767 255.21 85.49 255.404 85.63L255.844 85.04C255.63 84.8733 255.38 84.73 255.094 84.61C254.807 84.49 254.494 84.43 254.154 84.43C253.86 84.43 253.597 84.47 253.364 84.55C253.13 84.63 252.934 84.74 252.774 84.88C252.614 85.02 252.49 85.1833 252.404 85.37C252.324 85.5567 252.284 85.7567 252.284 85.97C252.284 86.1967 252.33 86.3933 252.424 86.56C252.524 86.7267 252.65 86.8733 252.804 87C252.964 87.12 253.14 87.2233 253.334 87.31C253.527 87.3967 253.717 87.4733 253.904 87.54C254.057 87.6 254.207 87.6633 254.354 87.73C254.5 87.79 254.63 87.86 254.744 87.94C254.864 88.02 254.96 88.11 255.034 88.21C255.107 88.31 255.144 88.43 255.144 88.57C255.144 88.8033 255.054 89.0033 254.874 89.17C254.7 89.3367 254.434 89.42 254.074 89.42C253.747 89.42 253.454 89.3633 253.194 89.25C252.94 89.13 252.697 88.9733 252.464 88.78L252.014 89.38C252.274 89.5933 252.58 89.7733 252.934 89.92C253.287 90.06 253.657 90.13 254.044 90.13ZM258.621 90.13C258.941 90.13 259.225 90.0867 259.471 90C259.718 89.9133 259.925 89.8 260.091 89.66C260.258 89.5133 260.385 89.3433 260.471 89.15C260.558 88.95 260.601 88.74 260.601 88.52C260.601 88.2667 260.551 88.0533 260.451 87.88C260.351 87.7 260.221 87.5467 260.061 87.42C259.908 87.2933 259.731 87.19 259.531 87.11C259.338 87.0233 259.141 86.9433 258.941 86.87C258.788 86.81 258.638 86.7533 258.491 86.7C258.351 86.64 258.225 86.5767 258.111 86.51C257.998 86.4367 257.908 86.3533 257.841 86.26C257.775 86.1667 257.741 86.0567 257.741 85.93C257.741 85.7167 257.821 85.5333 257.981 85.38C258.141 85.2267 258.391 85.15 258.731 85.15C258.978 85.15 259.198 85.1967 259.391 85.29C259.591 85.3767 259.788 85.49 259.981 85.63L260.421 85.04C260.208 84.8733 259.958 84.73 259.671 84.61C259.385 84.49 259.071 84.43 258.731 84.43C258.438 84.43 258.175 84.47 257.941 84.55C257.708 84.63 257.511 84.74 257.351 84.88C257.191 85.02 257.068 85.1833 256.981 85.37C256.901 85.5567 256.861 85.7567 256.861 85.97C256.861 86.1967 256.908 86.3933 257.001 86.56C257.101 86.7267 257.228 86.8733 257.381 87C257.541 87.12 257.718 87.2233 257.911 87.31C258.105 87.3967 258.295 87.4733 258.481 87.54C258.635 87.6 258.785 87.6633 258.931 87.73C259.078 87.79 259.208 87.86 259.321 87.94C259.441 88.02 259.538 88.11 259.611 88.21C259.685 88.31 259.721 88.43 259.721 88.57C259.721 88.8033 259.631 89.0033 259.451 89.17C259.278 89.3367 259.011 89.42 258.651 89.42C258.325 89.42 258.031 89.3633 257.771 89.25C257.518 89.13 257.275 88.9733 257.041 88.78L256.591 89.38C256.851 89.5933 257.158 89.7733 257.511 89.92C257.865 90.06 258.235 90.13 258.621 90.13ZM266.305 90.13C266.619 90.13 266.915 90.0667 267.195 89.94C267.482 89.8067 267.732 89.6167 267.945 89.37C268.165 89.1167 268.339 88.8067 268.465 88.44C268.599 88.0733 268.665 87.6567 268.665 87.19C268.665 86.7767 268.619 86.4 268.525 86.06C268.432 85.72 268.292 85.43 268.105 85.19C267.925 84.95 267.699 84.7633 267.425 84.63C267.159 84.4967 266.849 84.43 266.495 84.43C266.195 84.43 265.899 84.5067 265.605 84.66C265.312 84.8067 265.042 84.9867 264.795 85.2L264.825 84.22V82.04H263.915V90H264.645L264.725 89.44H264.755C264.995 89.66 265.249 89.83 265.515 89.95C265.789 90.07 266.052 90.13 266.305 90.13ZM266.155 89.37C265.975 89.37 265.769 89.33 265.535 89.25C265.302 89.1633 265.065 89.0133 264.825 88.8V85.95C265.085 85.7033 265.335 85.5167 265.575 85.39C265.815 85.2633 266.052 85.2 266.285 85.2C266.545 85.2 266.765 85.25 266.945 85.35C267.125 85.4433 267.272 85.58 267.385 85.76C267.499 85.9333 267.582 86.1433 267.635 86.39C267.689 86.6367 267.715 86.91 267.715 87.21C267.715 87.55 267.675 87.8533 267.595 88.12C267.522 88.3867 267.415 88.6133 267.275 88.8C267.135 88.98 266.969 89.12 266.775 89.22C266.589 89.32 266.382 89.37 266.155 89.37ZM272.107 90.13C272.44 90.13 272.757 90.0667 273.057 89.94C273.364 89.8133 273.634 89.63 273.867 89.39C274.1 89.1433 274.284 88.8433 274.417 88.49C274.557 88.1367 274.627 87.7367 274.627 87.29C274.627 86.8367 274.557 86.4333 274.417 86.08C274.284 85.7267 274.1 85.4267 273.867 85.18C273.634 84.9333 273.364 84.7467 273.057 84.62C272.757 84.4933 272.44 84.43 272.107 84.43C271.774 84.43 271.454 84.4933 271.147 84.62C270.847 84.7467 270.58 84.9333 270.347 85.18C270.114 85.4267 269.927 85.7267 269.787 86.08C269.654 86.4333 269.587 86.8367 269.587 87.29C269.587 87.7367 269.654 88.1367 269.787 88.49C269.927 88.8433 270.114 89.1433 270.347 89.39C270.58 89.63 270.847 89.8133 271.147 89.94C271.454 90.0667 271.774 90.13 272.107 90.13ZM272.107 89.37C271.874 89.37 271.66 89.32 271.467 89.22C271.274 89.12 271.107 88.98 270.967 88.8C270.834 88.62 270.727 88.4033 270.647 88.15C270.574 87.89 270.537 87.6033 270.537 87.29C270.537 86.9767 270.574 86.6933 270.647 86.44C270.727 86.18 270.834 85.9567 270.967 85.77C271.107 85.5833 271.274 85.44 271.467 85.34C271.66 85.24 271.874 85.19 272.107 85.19C272.34 85.19 272.554 85.24 272.747 85.34C272.94 85.44 273.107 85.5833 273.247 85.77C273.387 85.9567 273.494 86.18 273.567 86.44C273.647 86.6933 273.687 86.9767 273.687 87.29C273.687 87.6033 273.647 87.89 273.567 88.15C273.494 88.4033 273.387 88.62 273.247 88.8C273.107 88.98 272.94 89.12 272.747 89.22C272.554 89.32 272.34 89.37 272.107 89.37ZM277.486 90.13C277.653 90.13 277.823 90.11 277.996 90.07C278.169 90.03 278.333 89.9833 278.486 89.93L278.306 89.25C278.213 89.2833 278.109 89.3167 277.996 89.35C277.883 89.3767 277.779 89.39 277.686 89.39C277.366 89.39 277.146 89.3 277.026 89.12C276.906 88.94 276.846 88.68 276.846 88.34V85.31H278.316V84.57H276.846V83.05H276.086L275.976 84.57L275.126 84.62V85.31H275.936V88.32C275.936 88.5933 275.963 88.8433 276.016 89.07C276.069 89.29 276.156 89.48 276.276 89.64C276.396 89.7933 276.556 89.9133 276.756 90C276.956 90.0867 277.199 90.13 277.486 90.13ZM280.355 82.04H279.445V90H280.355V86.06C280.629 85.7867 280.875 85.58 281.095 85.44C281.315 85.3 281.565 85.23 281.845 85.23C282.205 85.23 282.465 85.3433 282.625 85.57C282.792 85.79 282.875 86.16 282.875 86.68V90H283.785V86.56C283.785 85.8533 283.655 85.3233 283.395 84.97C283.135 84.61 282.712 84.43 282.125 84.43C281.752 84.43 281.422 84.52 281.135 84.7C280.849 84.8733 280.579 85.0867 280.325 85.34L280.355 84.22V82.04Z" fill="black"/>
<path d="M293.509 80.471H292.3V90H297.669V88.973H293.509V80.471ZM301.855 90.169C302.288 90.169 302.7 90.0867 303.09 89.922C303.489 89.7573 303.84 89.519 304.143 89.207C304.446 88.8863 304.685 88.4963 304.858 88.037C305.04 87.5777 305.131 87.0577 305.131 86.477C305.131 85.8877 305.04 85.3633 304.858 84.904C304.685 84.4447 304.446 84.0547 304.143 83.734C303.84 83.4133 303.489 83.1707 303.09 83.006C302.7 82.8413 302.288 82.759 301.855 82.759C301.422 82.759 301.006 82.8413 300.607 83.006C300.217 83.1707 299.87 83.4133 299.567 83.734C299.264 84.0547 299.021 84.4447 298.839 84.904C298.666 85.3633 298.579 85.8877 298.579 86.477C298.579 87.0577 298.666 87.5777 298.839 88.037C299.021 88.4963 299.264 88.8863 299.567 89.207C299.87 89.519 300.217 89.7573 300.607 89.922C301.006 90.0867 301.422 90.169 301.855 90.169ZM301.855 89.181C301.552 89.181 301.274 89.116 301.023 88.986C300.772 88.856 300.555 88.674 300.373 88.44C300.2 88.206 300.061 87.9243 299.957 87.595C299.862 87.257 299.814 86.8843 299.814 86.477C299.814 86.0697 299.862 85.7013 299.957 85.372C300.061 85.034 300.2 84.7437 300.373 84.501C300.555 84.2583 300.772 84.072 301.023 83.942C301.274 83.812 301.552 83.747 301.855 83.747C302.158 83.747 302.436 83.812 302.687 83.942C302.938 84.072 303.155 84.2583 303.337 84.501C303.519 84.7437 303.658 85.034 303.753 85.372C303.857 85.7013 303.909 86.0697 303.909 86.477C303.909 86.8843 303.857 87.257 303.753 87.595C303.658 87.9243 303.519 88.206 303.337 88.44C303.155 88.674 302.938 88.856 302.687 88.986C302.436 89.116 302.158 89.181 301.855 89.181ZM307.23 82.941H306.021L307.984 90H309.375L310.363 86.217C310.458 85.879 310.54 85.5453 310.61 85.216C310.688 84.878 310.766 84.527 310.844 84.163H310.909C310.995 84.527 311.073 84.8737 311.143 85.203C311.212 85.5323 311.294 85.8617 311.39 86.191L312.417 90H313.847L315.745 82.941H314.627L313.587 87.023C313.509 87.361 313.435 87.6947 313.366 88.024C313.296 88.3447 313.223 88.6697 313.145 88.999H313.093C313.006 88.6697 312.924 88.3447 312.846 88.024C312.768 87.6947 312.685 87.361 312.599 87.023L311.494 82.941H310.337L309.245 87.023C309.149 87.3523 309.063 87.6817 308.985 88.011C308.915 88.3403 308.842 88.6697 308.764 88.999H308.699C308.629 88.6697 308.56 88.3447 308.491 88.024C308.421 87.6947 308.352 87.361 308.283 87.023L307.23 82.941ZM320.911 82.941H319.936V92.977H321.119V90.585L321.093 89.35C321.413 89.61 321.738 89.8137 322.068 89.961C322.397 90.0997 322.722 90.169 323.043 90.169C323.45 90.169 323.836 90.0867 324.2 89.922C324.572 89.7487 324.897 89.5017 325.175 89.181C325.461 88.8517 325.686 88.453 325.851 87.985C326.024 87.5083 326.111 86.9667 326.111 86.36C326.111 85.814 326.05 85.32 325.929 84.878C325.807 84.436 325.625 84.059 325.383 83.747C325.149 83.435 324.858 83.1923 324.512 83.019C324.165 82.8457 323.762 82.759 323.303 82.759C322.887 82.759 322.488 82.8587 322.107 83.058C321.725 83.2573 321.374 83.487 321.054 83.747H321.015L320.911 82.941ZM322.848 89.181C322.614 89.181 322.345 89.129 322.042 89.025C321.747 88.9123 321.439 88.7173 321.119 88.44V84.735C321.465 84.4143 321.79 84.1717 322.094 84.007C322.406 83.8423 322.713 83.76 323.017 83.76C323.355 83.76 323.641 83.825 323.875 83.955C324.109 84.0763 324.299 84.254 324.447 84.488C324.594 84.7133 324.702 84.9863 324.772 85.307C324.841 85.6277 324.876 85.983 324.876 86.373C324.876 86.815 324.824 87.2093 324.72 87.556C324.624 87.9027 324.486 88.1973 324.304 88.44C324.122 88.674 323.905 88.856 323.654 88.986C323.411 89.116 323.142 89.181 322.848 89.181ZM330.61 90.169C331.044 90.169 331.455 90.0867 331.845 89.922C332.244 89.7573 332.595 89.519 332.898 89.207C333.202 88.8863 333.44 88.4963 333.613 88.037C333.795 87.5777 333.886 87.0577 333.886 86.477C333.886 85.8877 333.795 85.3633 333.613 84.904C333.44 84.4447 333.202 84.0547 332.898 83.734C332.595 83.4133 332.244 83.1707 331.845 83.006C331.455 82.8413 331.044 82.759 330.61 82.759C330.177 82.759 329.761 82.8413 329.362 83.006C328.972 83.1707 328.626 83.4133 328.322 83.734C328.019 84.0547 327.776 84.4447 327.594 84.904C327.421 85.3633 327.334 85.8877 327.334 86.477C327.334 87.0577 327.421 87.5777 327.594 88.037C327.776 88.4963 328.019 88.8863 328.322 89.207C328.626 89.519 328.972 89.7573 329.362 89.922C329.761 90.0867 330.177 90.169 330.61 90.169ZM330.61 89.181C330.307 89.181 330.03 89.116 329.778 88.986C329.527 88.856 329.31 88.674 329.128 88.44C328.955 88.206 328.816 87.9243 328.712 87.595C328.617 87.257 328.569 86.8843 328.569 86.477C328.569 86.0697 328.617 85.7013 328.712 85.372C328.816 85.034 328.955 84.7437 329.128 84.501C329.31 84.2583 329.527 84.072 329.778 83.942C330.03 83.812 330.307 83.747 330.61 83.747C330.914 83.747 331.191 83.812 331.442 83.942C331.694 84.072 331.91 84.2583 332.092 84.501C332.274 84.7437 332.413 85.034 332.508 85.372C332.612 85.7013 332.664 86.0697 332.664 86.477C332.664 86.8843 332.612 87.257 332.508 87.595C332.413 87.9243 332.274 88.206 332.092 88.44C331.91 88.674 331.694 88.856 331.442 88.986C331.191 89.116 330.914 89.181 330.61 89.181ZM335.985 82.941H334.776L336.739 90H338.13L339.118 86.217C339.213 85.879 339.296 85.5453 339.365 85.216C339.443 84.878 339.521 84.527 339.599 84.163H339.664C339.751 84.527 339.829 84.8737 339.898 85.203C339.967 85.5323 340.05 85.8617 340.145 86.191L341.172 90H342.602L344.5 82.941H343.382L342.342 87.023C342.264 87.361 342.19 87.6947 342.121 88.024C342.052 88.3447 341.978 88.6697 341.9 88.999H341.848C341.761 88.6697 341.679 88.3447 341.601 88.024C341.523 87.6947 341.441 87.361 341.354 87.023L340.249 82.941H339.092L338 87.023C337.905 87.3523 337.818 87.6817 337.74 88.011C337.671 88.3403 337.597 88.6697 337.519 88.999H337.454C337.385 88.6697 337.315 88.3447 337.246 88.024C337.177 87.6947 337.107 87.361 337.038 87.023L335.985 82.941ZM348.761 90.169C349.255 90.169 349.688 90.0997 350.061 89.961C350.442 89.8137 350.789 89.6403 351.101 89.441L350.672 88.661C350.412 88.8343 350.139 88.973 349.853 89.077C349.567 89.1723 349.251 89.22 348.904 89.22C348.228 89.22 347.678 88.999 347.253 88.557C346.837 88.115 346.607 87.5127 346.564 86.75H351.322C351.339 86.6633 351.352 86.5637 351.361 86.451C351.37 86.3297 351.374 86.204 351.374 86.074C351.374 85.5713 351.309 85.1163 351.179 84.709C351.058 84.3017 350.876 83.955 350.633 83.669C350.399 83.3743 350.109 83.149 349.762 82.993C349.415 82.837 349.017 82.759 348.566 82.759C348.159 82.759 347.76 82.8457 347.37 83.019C346.989 83.1923 346.651 83.4393 346.356 83.76C346.061 84.0807 345.823 84.4707 345.641 84.93C345.468 85.3893 345.381 85.905 345.381 86.477C345.381 87.0577 345.468 87.5777 345.641 88.037C345.823 88.4963 346.066 88.8863 346.369 89.207C346.672 89.519 347.028 89.7573 347.435 89.922C347.851 90.0867 348.293 90.169 348.761 90.169ZM350.334 85.905H346.551C346.586 85.5583 346.664 85.2507 346.785 84.982C346.906 84.7047 347.058 84.475 347.24 84.293C347.422 84.1023 347.626 83.9593 347.851 83.864C348.085 83.76 348.328 83.708 348.579 83.708C349.134 83.708 349.563 83.89 349.866 84.254C350.178 84.618 350.334 85.1683 350.334 85.905ZM353.957 82.941H352.982V90H354.165V85.463C354.278 85.1597 354.408 84.904 354.555 84.696C354.703 84.488 354.854 84.3233 355.01 84.202C355.166 84.072 355.327 83.981 355.491 83.929C355.656 83.8683 355.808 83.838 355.946 83.838C356.094 83.838 356.215 83.8467 356.31 83.864C356.406 83.8813 356.514 83.9117 356.635 83.955L356.856 82.915C356.744 82.8543 356.627 82.8153 356.505 82.798C356.393 82.772 356.258 82.759 356.102 82.759C355.704 82.759 355.331 82.8933 354.984 83.162C354.646 83.422 354.352 83.7773 354.1 84.228H354.061L353.957 82.941ZM293.171 102.941H292.196V110H293.379V104.878C294.02 104.159 294.614 103.799 295.16 103.799C295.611 103.799 295.94 103.946 296.148 104.241C296.365 104.527 296.473 105.008 296.473 105.684V110H297.656V104.878C298.323 104.159 298.917 103.799 299.437 103.799C299.888 103.799 300.217 103.946 300.425 104.241C300.642 104.527 300.75 105.008 300.75 105.684V110H301.933V105.528C301.933 104.609 301.76 103.92 301.413 103.461C301.066 102.993 300.525 102.759 299.788 102.759C299.346 102.759 298.939 102.885 298.566 103.136C298.193 103.387 297.825 103.712 297.461 104.111C297.314 103.695 297.088 103.366 296.785 103.123C296.482 102.88 296.057 102.759 295.511 102.759C295.086 102.759 294.688 102.876 294.315 103.11C293.951 103.344 293.617 103.63 293.314 103.968H293.275L293.171 102.941ZM306.844 110.169C307.277 110.169 307.689 110.087 308.079 109.922C308.478 109.757 308.829 109.519 309.132 109.207C309.435 108.886 309.674 108.496 309.847 108.037C310.029 107.578 310.12 107.058 310.12 106.477C310.12 105.888 310.029 105.363 309.847 104.904C309.674 104.445 309.435 104.055 309.132 103.734C308.829 103.413 308.478 103.171 308.079 103.006C307.689 102.841 307.277 102.759 306.844 102.759C306.411 102.759 305.995 102.841 305.596 103.006C305.206 103.171 304.859 103.413 304.556 103.734C304.253 104.055 304.01 104.445 303.828 104.904C303.655 105.363 303.568 105.888 303.568 106.477C303.568 107.058 303.655 107.578 303.828 108.037C304.01 108.496 304.253 108.886 304.556 109.207C304.859 109.519 305.206 109.757 305.596 109.922C305.995 110.087 306.411 110.169 306.844 110.169ZM306.844 109.181C306.541 109.181 306.263 109.116 306.012 108.986C305.761 108.856 305.544 108.674 305.362 108.44C305.189 108.206 305.05 107.924 304.946 107.595C304.851 107.257 304.803 106.884 304.803 106.477C304.803 106.07 304.851 105.701 304.946 105.372C305.05 105.034 305.189 104.744 305.362 104.501C305.544 104.258 305.761 104.072 306.012 103.942C306.263 103.812 306.541 103.747 306.844 103.747C307.147 103.747 307.425 103.812 307.676 103.942C307.927 104.072 308.144 104.258 308.326 104.501C308.508 104.744 308.647 105.034 308.742 105.372C308.846 105.701 308.898 106.07 308.898 106.477C308.898 106.884 308.846 107.257 308.742 107.595C308.647 107.924 308.508 108.206 308.326 108.44C308.144 108.674 307.927 108.856 307.676 108.986C307.425 109.116 307.147 109.181 306.844 109.181ZM314.26 110.169C314.685 110.169 315.079 110.074 315.443 109.883C315.807 109.684 316.128 109.445 316.405 109.168H316.431L316.548 110H317.51V99.652H316.327V102.369L316.392 103.591C316.08 103.331 315.772 103.127 315.469 102.98C315.174 102.833 314.819 102.759 314.403 102.759C314.004 102.759 313.619 102.846 313.246 103.019C312.873 103.192 312.548 103.439 312.271 103.76C311.994 104.081 311.768 104.471 311.595 104.93C311.43 105.389 311.348 105.905 311.348 106.477C311.348 107.066 311.417 107.591 311.556 108.05C311.695 108.509 311.89 108.895 312.141 109.207C312.392 109.519 312.696 109.757 313.051 109.922C313.415 110.087 313.818 110.169 314.26 110.169ZM314.52 109.181C313.896 109.181 313.415 108.947 313.077 108.479C312.739 108.002 312.57 107.331 312.57 106.464C312.57 106.057 312.622 105.688 312.726 105.359C312.83 105.03 312.973 104.748 313.155 104.514C313.346 104.271 313.562 104.085 313.805 103.955C314.056 103.825 314.325 103.76 314.611 103.76C314.906 103.76 315.187 103.816 315.456 103.929C315.733 104.042 316.024 104.232 316.327 104.501V108.206C316.032 108.535 315.738 108.782 315.443 108.947C315.157 109.103 314.849 109.181 314.52 109.181ZM322.633 110.169C323.127 110.169 323.561 110.1 323.933 109.961C324.315 109.814 324.661 109.64 324.973 109.441L324.544 108.661C324.284 108.834 324.011 108.973 323.725 109.077C323.439 109.172 323.123 109.22 322.776 109.22C322.1 109.22 321.55 108.999 321.125 108.557C320.709 108.115 320.48 107.513 320.436 106.75H325.194C325.212 106.663 325.225 106.564 325.233 106.451C325.242 106.33 325.246 106.204 325.246 106.074C325.246 105.571 325.181 105.116 325.051 104.709C324.93 104.302 324.748 103.955 324.505 103.669C324.271 103.374 323.981 103.149 323.634 102.993C323.288 102.837 322.889 102.759 322.438 102.759C322.031 102.759 321.632 102.846 321.242 103.019C320.861 103.192 320.523 103.439 320.228 103.76C319.934 104.081 319.695 104.471 319.513 104.93C319.34 105.389 319.253 105.905 319.253 106.477C319.253 107.058 319.34 107.578 319.513 108.037C319.695 108.496 319.938 108.886 320.241 109.207C320.545 109.519 320.9 109.757 321.307 109.922C321.723 110.087 322.165 110.169 322.633 110.169ZM324.206 105.905H320.423C320.458 105.558 320.536 105.251 320.657 104.982C320.779 104.705 320.93 104.475 321.112 104.293C321.294 104.102 321.498 103.959 321.723 103.864C321.957 103.76 322.2 103.708 322.451 103.708C323.006 103.708 323.435 103.89 323.738 104.254C324.05 104.618 324.206 105.168 324.206 105.905Z" fill="black"/>
<circle cx="198" cy="87" r="4.5" stroke="black"/>
<path d="M58.3333 77C58.3333 78.4728 59.5272 79.6667 61 79.6667C62.4728 79.6667 63.6667 78.4728 63.6667 77C63.6667 75.5272 62.4728 74.3333 61 74.3333C59.5272 74.3333 58.3333 75.5272 58.3333 77ZM184 77H184.5V76.5H184V77ZM184 147V147.5H184.5V147H184ZM58.3333 147C58.3333 148.473 59.5272 149.667 61 149.667C62.4728 149.667 63.6667 148.473 63.6667 147C63.6667 145.527 62.4728 144.333 61 144.333C59.5272 144.333 58.3333 145.527 58.3333 147ZM61 77.5H184V76.5H61V77.5ZM183.5 77V147H184.5V77H183.5ZM184 146.5H61V147.5H184V146.5Z" fill="black"/>
</svg>
