<svg width="345" height="231" viewBox="0 0 345 231" fill="none" xmlns="http://www.w3.org/2000/svg">
<mask id="mask0_884_11100" style="mask-type:alpha" maskUnits="userSpaceOnUse" x="0" y="0" width="169" height="231">
<rect width="169" height="230.005" fill="#D9D9D9"/>
</mask>
<g mask="url(#mask0_884_11100)">
<path d="M23.8791 218.253L23.4736 217.681C23.4736 217.681 17.4866 221.878 13.0977 227.674C7.63551 227.769 -100.297 226.648 -105.402 226.601L-112.438 216.727L-113.011 217.132L-105.783 227.292H-105.616C-100.87 227.34 10.4024 228.509 13.2647 228.366H13.4317L13.5271 228.223C17.8683 222.451 23.7837 218.301 23.8314 218.253" fill="#231815" fill-opacity="0.3"/>
<path d="M129.284 196.334C129.284 196.048 129.284 195.761 129.236 195.499C128.377 187.843 125.348 183.836 125.229 183.669L124.68 184.098C124.68 184.098 127.733 188.129 128.544 195.571C129.379 203.012 117.644 212.815 114.376 213.268C109.892 214.174 107.268 213.578 105.861 212.91C104.358 212.195 103.881 211.264 103.881 211.24L103.261 211.551C103.356 211.717 105.407 215.796 114.495 213.959C117.859 213.506 129.308 204.157 129.308 196.358" fill="#231815" fill-opacity="0.3"/>
<path d="M123.536 198.6C123.536 198.6 123.273 198.481 123.178 198.505C122.916 198.505 122.605 198.695 122.391 198.958L115.474 207.21C115.068 207.687 115.068 208.26 115.307 208.45L116.356 209.381C116.356 209.381 116.571 209.5 116.714 209.476C116.976 209.476 117.286 209.285 117.501 209.023L124.418 200.77C124.824 200.293 124.824 199.721 124.585 199.506L123.536 198.6ZM125.229 201.438L118.312 209.691C117.907 210.168 117.358 210.478 116.809 210.525C116.38 210.549 115.974 210.43 115.664 210.168L114.615 209.261C113.899 208.641 113.923 207.449 114.663 206.542L121.58 198.29C121.985 197.813 122.534 197.503 123.083 197.455C123.512 197.431 123.917 197.551 124.227 197.813L125.277 198.743C125.635 199.053 125.802 199.482 125.802 199.959C125.802 200.46 125.611 200.985 125.229 201.438" fill="#231815" fill-opacity="0.3"/>
<path d="M152.397 148.061H128.091V149.301H152.397V148.061Z" fill="#231815" fill-opacity="0.3"/>
<path d="M152.492 74.1943H128.854V75.4346H152.492V74.1943Z" fill="#231815" fill-opacity="0.3"/>
<path d="M-219.417 172.913V172.961C-215.386 193.806 -204.318 203.728 -195.755 208.379C-186.453 213.436 -177.985 213.555 -177.866 213.555C-175.719 213.65 36.712 222.284 84.2025 214.008C84.7988 213.913 85.4428 213.841 86.1107 213.746C97.4883 212.291 118.693 209.548 124.275 180.378C128.306 156.241 128.497 118.509 128.497 118.128V103.722C128.497 103.34 128.306 65.6084 124.299 41.4952C118.741 12.3018 97.5361 9.58285 86.1345 8.12795C85.4667 8.03255 84.8226 7.961 84.1786 7.86559C36.7359 -0.410634 -175.719 8.22336 -177.889 8.31876C-177.985 8.31876 -186.453 8.43801 -195.755 13.4944C-204.318 18.1453 -215.362 28.0672 -219.393 48.9128V48.9605C-221.993 59.1687 -222.088 110.567 -222.088 111.068C-222.088 111.569 -221.993 162.681 -219.393 172.889L-219.417 172.913ZM126.016 180.689C123.512 193.806 117.548 203.323 108.27 208.952C100.518 213.65 92.0023 214.747 86.373 215.487C85.7052 215.582 85.0612 215.654 84.5126 215.725C36.879 224.049 -175.743 215.391 -177.866 215.296C-178.223 215.296 -186.786 215.177 -196.471 209.953C-205.391 205.136 -216.888 194.856 -221.063 173.319C-223.71 162.848 -223.806 113.191 -223.806 111.092C-223.806 108.969 -223.71 59.0494 -221.063 48.5789C-216.888 27.0416 -205.391 16.7619 -196.471 11.9441C-186.786 6.69691 -178.223 6.6015 -177.889 6.6015C-175.743 6.5061 36.879 -2.15174 84.4887 6.17219C85.085 6.24374 85.7052 6.33914 86.373 6.4107C92.0023 7.12622 100.518 8.22336 108.27 12.9458C117.548 18.5746 123.512 28.0911 126.016 41.2329C130.071 65.513 130.262 103.388 130.262 103.77V118.199C130.262 118.581 130.071 156.456 126.016 180.76" fill="#231815" fill-opacity="0.3"/>
<path d="M152.612 97.9253C152.612 91.1517 152.564 75.8633 152.564 73.7168V54.3738C152.564 49.8183 149.893 49.5798 147.746 49.3651C147.364 49.3412 147.03 49.2935 146.697 49.2458H146.649C127.71 49.1981 125.515 41.7805 125.492 41.709L124.824 41.8759C124.919 42.2099 127.114 49.866 146.625 49.9375C146.983 49.9852 147.341 50.0329 147.698 50.0568C149.845 50.2476 151.873 50.4384 151.873 54.3499V73.6929C151.896 82.947 151.944 100.573 151.92 101.05C151.92 101.05 151.825 102.195 151.014 102.195C150.823 102.195 150.37 102.195 149.773 102.195C147.531 102.195 143.333 102.195 141.258 102.147C138.014 102.075 137.275 106.321 137.012 107.704L136.965 107.943C136.869 109.278 136.869 111.926 136.869 112.021H137.561C137.561 112.021 137.561 109.207 137.656 107.919V107.823C137.895 106.583 138.563 102.791 141.21 102.839C143.286 102.886 147.484 102.886 149.726 102.862C150.322 102.862 150.751 102.862 150.966 102.862C152.111 102.862 152.517 101.694 152.564 101.074C152.564 100.978 152.564 99.7618 152.564 97.8776" fill="#231815" fill-opacity="0.3"/>
<path d="M152.612 126.166C152.612 124.281 152.612 123.065 152.612 122.97C152.564 122.349 152.158 121.181 151.014 121.181C150.799 121.181 150.346 121.181 149.749 121.181C147.507 121.181 143.309 121.181 141.258 121.228C138.61 121.276 137.942 117.484 137.728 116.244V116.148C137.608 114.86 137.608 112.07 137.608 112.046H136.917C136.917 112.046 136.917 114.789 137.012 116.124V116.244L137.06 116.339C137.298 117.722 138.062 121.968 141.306 121.896C143.357 121.849 147.531 121.849 149.773 121.849C150.393 121.849 150.847 121.849 151.037 121.849C151.824 121.849 151.944 122.993 151.944 122.993C151.968 123.47 151.944 141.096 151.92 150.35V169.693C151.92 173.605 149.892 173.796 147.746 174.01C147.388 174.034 147.03 174.082 146.672 174.13C127.137 174.201 124.943 181.857 124.871 182.191L125.539 182.358C125.539 182.358 127.757 174.869 146.696 174.821H146.744C147.078 174.774 147.436 174.726 147.793 174.702C149.94 174.511 152.588 174.249 152.588 169.693V150.35C152.588 148.204 152.635 132.892 152.635 126.142" fill="#231815" fill-opacity="0.3"/>
<path d="M143.643 121.156H146.052V102.91H143.643V121.156ZM142.951 102.194H146.744V121.847H142.951V102.194Z" fill="#231815" fill-opacity="0.3"/>
<path d="M-208.54 168.715V168.763C-204.747 188.297 -194.395 197.598 -186.357 201.963C-177.627 206.709 -169.684 206.829 -169.589 206.829C-167.585 206.924 31.56 215.01 76.0689 207.258C76.6414 207.186 77.2377 207.091 77.8579 207.019C88.5438 205.636 108.413 203.084 113.613 175.751C117.382 153.141 117.549 117.746 117.572 117.412V103.912C117.572 103.555 117.405 68.1839 113.637 45.5734C108.413 18.2165 88.5438 15.6645 77.8817 14.2811C77.2377 14.2096 76.6414 14.1142 76.0689 14.0426C31.5839 6.26723 -167.561 14.3765 -169.589 14.4719C-169.66 14.4719 -177.603 14.5912 -186.333 19.3375C-194.348 23.7022 -204.723 33.004 -208.492 52.5378V52.5855C-210.949 62.1497 -211.021 110.328 -211.021 110.805C-211.021 111.282 -210.949 159.175 -208.492 168.763L-208.54 168.715ZM115.283 176.061C112.945 188.368 107.34 197.265 98.6573 202.559C91.3823 206.972 83.3917 207.997 78.1202 208.689C77.5001 208.761 76.9038 208.856 76.379 208.928C31.727 216.727 -167.585 208.617 -169.565 208.522C-169.899 208.522 -177.937 208.403 -187.001 203.513C-195.349 198.982 -206.155 189.37 -210.066 169.168C-212.547 159.342 -212.619 112.809 -212.619 110.829C-212.619 108.85 -212.547 62.0304 -210.066 52.2277C-206.155 32.05 -195.373 22.4142 -187.001 17.8826C-177.937 12.9693 -169.899 12.8739 -169.589 12.8739C-167.585 12.7785 31.727 4.66923 76.3551 12.4684C76.9037 12.54 77.5001 12.6354 78.1441 12.707C83.4155 13.3986 91.4061 14.4242 98.6811 18.8366C107.363 24.1076 112.969 33.0278 115.306 45.3349C119.099 68.0885 119.29 103.602 119.29 103.96V117.484C119.29 117.841 119.123 153.331 115.306 176.109" fill="#231815" fill-opacity="0.3"/>
<path d="M45.4182 146.151C45.4182 151.065 49.4016 155.048 54.3152 155.048C59.2288 155.048 63.2122 151.065 63.2122 146.151C63.2122 141.238 59.2288 137.255 54.3152 137.255C49.4016 137.255 45.4182 141.238 45.4182 146.151ZM64.7388 146.151C64.7388 151.899 60.0637 156.574 54.3152 156.574C48.5667 156.574 43.8916 151.899 43.8916 146.151C43.8916 140.403 48.5667 135.729 54.3152 135.729C60.0637 135.729 64.7388 140.403 64.7388 146.151Z" fill="#231815"/>
<path d="M45.4182 76.6513C45.4182 81.5407 49.4016 85.5477 54.3152 85.5477C59.2288 85.5477 63.2122 81.5646 63.2122 76.6513C63.2122 71.738 59.2288 67.755 54.3152 67.755C49.4016 67.755 45.4182 71.738 45.4182 76.6513ZM64.7388 76.6513C64.7388 82.3994 60.0637 87.0741 54.3152 87.0741C48.5667 87.0741 43.8916 82.3994 43.8916 76.6513C43.8916 70.9033 48.5667 66.2285 54.3152 66.2285C60.0637 66.2285 64.7388 70.9033 64.7388 76.6513Z" fill="#231815"/>
<path d="M65.1682 111.664C65.1682 116.553 69.1516 120.56 74.0652 120.56C78.9788 120.56 82.9622 116.577 82.9622 111.664C82.9622 106.751 78.9788 102.768 74.0652 102.768C69.1516 102.768 65.1682 106.751 65.1682 111.664ZM84.4888 111.664C84.4888 117.412 79.8137 122.087 74.0652 122.087C68.3167 122.087 63.6416 117.412 63.6416 111.664C63.6416 105.916 68.3167 101.241 74.0652 101.241C79.8137 101.241 84.4888 105.916 84.4888 111.664Z" fill="#231815"/>
<path d="M70.1774 143.338L70.3921 143.075C74.3993 138.281 77.4286 132.843 79.3845 126.952L79.5038 126.618L79.8377 126.499C86.0155 124.114 90.1659 118.08 90.1659 111.473C90.1659 104.866 86.0155 98.832 79.8377 96.4469L79.5038 96.3276L79.3845 95.9937C77.4286 90.0787 74.3993 84.6646 70.3921 79.8706L70.1774 79.6082L70.2251 79.2743C70.3682 78.4395 70.4159 77.6048 70.4159 76.77C70.4159 67.8975 63.1886 60.6707 54.3155 60.6707C45.4423 60.6707 38.215 67.8975 38.215 76.77C38.215 85.6425 45.4423 92.8693 54.3155 92.8693C56.1044 92.8693 57.8933 92.5592 59.5869 91.9868L60.1355 91.796L60.4694 92.273C61.8051 94.2049 62.9262 96.2561 63.8088 98.3788L64.0234 98.9035L63.5941 99.2613C59.9924 102.338 57.9172 106.798 57.9172 111.521C57.9172 116.243 59.9924 120.703 63.5702 123.78L63.9996 124.138L63.7849 124.662C62.8785 126.809 61.7574 128.884 60.4456 130.768L60.1116 131.245L59.563 131.054C57.8695 130.458 56.0805 130.172 54.2916 130.172C45.4184 130.172 38.1911 137.399 38.1911 146.271C38.1911 155.144 45.4184 162.371 54.2916 162.371C63.1647 162.371 70.3921 155.144 70.3921 146.271C70.3921 145.436 70.3205 144.602 70.2012 143.767L70.1536 143.433L70.1774 143.338ZM91.6924 111.425C91.6924 118.557 87.3035 125.068 80.7202 127.739C78.7405 133.583 75.735 138.973 71.7755 143.767C71.8948 144.554 71.9425 145.365 71.9425 146.176C71.9425 155.907 64.0235 163.802 54.3155 163.802C44.6075 163.802 36.6884 155.883 36.6884 146.176C36.6884 136.469 44.6075 128.55 54.3155 128.55C56.0806 128.55 57.8456 128.812 59.5153 129.337C60.541 127.811 61.4235 126.165 62.1868 124.472C58.5135 121.132 56.4145 116.41 56.4145 111.425C56.4145 106.44 58.5135 101.718 62.1868 98.3788C61.4474 96.7092 60.541 95.0635 59.5153 93.5132C57.8218 94.038 56.0805 94.3003 54.2916 94.3003C44.5597 94.3003 36.6646 86.3819 36.6646 76.6746C36.6646 66.9673 44.5836 59.0488 54.2916 59.0488C63.9996 59.0488 71.9186 66.9673 71.9186 76.6746C71.9186 77.4617 71.8709 78.2726 71.7517 79.0835C75.7112 83.8775 78.7166 89.2678 80.6964 95.1112C87.2797 97.8064 91.6685 104.318 91.6685 111.425" fill="#231815"/>
<g opacity="0.1">
<path d="M40.433 15.6169C40.433 15.6169 81.0062 11.8962 97.2021 24.7995C113.374 37.6789 115.736 70.2591 114.4 82.9716C113.04 95.6841 109.725 55.1377 98.8956 40.8988C74.6376 9.0341 35.7102 21.5558 40.4569 15.6169" fill="#231815" fill-opacity="0.3"/>
</g>
<g opacity="0.1">
<path d="M18.7272 205.421C18.7272 205.421 78.4301 209.833 95.3893 197.097C112.348 184.384 114.829 152.257 113.398 139.688C111.991 127.143 108.508 167.164 97.1544 181.188C71.7276 212.624 2.17353 197.979 18.7272 205.397" fill="#231815" fill-opacity="0.3"/>
</g>
<g opacity="0.1">
<path d="M-36.6822 40.4693C-40.4032 40.8271 -78.9489 52.4663 -85.0313 81.1827C-91.6623 112.451 -86.2717 148.013 -82.6699 156.981C-79.0682 165.948 -64.2558 118.39 -59.6761 101.456C-47.5113 56.4017 0.336971 36.8679 -36.6822 40.4455" fill="#231815"/>
</g>
<ellipse cx="54.2661" cy="146.187" rx="8.91693" ry="9.1717" fill="#64DEE4"/>
<ellipse cx="74.1381" cy="111.539" rx="8.91693" ry="9.1717" fill="#64DEE4"/>
<circle cx="54.5208" cy="76.8895" r="9.1717" fill="#64DEE4"/>
</g>
<path d="M63.6667 147C63.6667 145.527 62.4728 144.333 61 144.333C59.5273 144.333 58.3333 145.527 58.3333 147C58.3333 148.473 59.5273 149.667 61 149.667C62.4728 149.667 63.6667 148.473 63.6667 147ZM192 146.5L61 146.5L61 147.5L192 147.5L192 146.5Z" fill="black"/>
<path d="M80.6667 111C80.6667 109.527 79.4728 108.333 78 108.333C76.5272 108.333 75.3333 109.527 75.3333 111C75.3333 112.473 76.5272 113.667 78 113.667C79.4728 113.667 80.6667 112.473 80.6667 111ZM192 110.5L78 110.5V111.5L192 111.5V110.5Z" fill="black"/>
<path d="M63.6667 76C63.6667 74.5272 62.4728 73.3333 61 73.3333C59.5273 73.3333 58.3333 74.5272 58.3333 76C58.3333 77.4728 59.5273 78.6667 61 78.6667C62.4728 78.6667 63.6667 77.4728 63.6667 76ZM192 75.5L61 75.5L61 76.5L192 76.5L192 75.5Z" fill="black"/>
<path opacity="0.7" d="M228.07 73.35H228.89V68.77H228.07V73.35ZM226.21 69.21H222.13V69.88H225.32C225.253 70.6067 224.917 71.2267 224.31 71.74C223.703 72.2467 222.827 72.6233 221.68 72.87L221.98 73.53C222.64 73.3833 223.23 73.1833 223.75 72.93C224.277 72.67 224.72 72.36 225.08 72C225.447 71.64 225.727 71.2267 225.92 70.76C226.113 70.2933 226.21 69.7767 226.21 69.21ZM229.19 77.65V77H223.92V75.96H228.89V73.78H223.08V74.43H228.07V75.35H223.1V77.65H229.19ZM238.249 77.74V68.77H237.469V77.74H238.249ZM236.379 69.01H235.599V72.44H234.049C234.203 72.04 234.313 71.63 234.379 71.21C234.446 70.7833 234.479 70.35 234.479 69.91H231.019V70.58H233.669C233.596 71.5267 233.313 72.3933 232.819 73.18C232.333 73.96 231.606 74.64 230.639 75.22L231.119 75.81C231.746 75.43 232.273 75.0133 232.699 74.56C233.126 74.1067 233.479 73.62 233.759 73.1H235.599V77.29H236.379V69.01ZM242.955 71.57H249.045V70.91H243.765V68.9H242.955V71.57ZM246.325 73.96V73.02H249.995V72.35H241.865V73.02H245.505V73.96H242.865V74.59H248.145V75.43H242.885V77.64H249.265V77H243.705V76.03H248.965V73.96H246.325ZM258.344 77.75V68.76H257.524V72.22H255.814V72.89H257.524V77.75H258.344ZM252.104 74.91V72.74H255.284V69.6H251.274V70.27H254.484V72.08H251.294V75.59H251.984C252.391 75.59 252.767 75.5867 253.114 75.58C253.467 75.5733 253.807 75.56 254.134 75.54C254.467 75.5133 254.791 75.4833 255.104 75.45C255.424 75.41 255.754 75.36 256.094 75.3L256.014 74.62C255.694 74.68 255.381 74.73 255.074 74.77C254.767 74.8033 254.457 74.8333 254.144 74.86C253.837 74.88 253.514 74.8933 253.174 74.9C252.841 74.9067 252.484 74.91 252.104 74.91Z" fill="black"/>
<path d="M277.217 66.314V68.914H274.916V69.772H277.217V72.333H278.283V66.314H277.217ZM275.02 72.19L275.527 71.358C275.111 71.228 274.73 71.0503 274.383 70.825C274.036 70.5997 273.737 70.344 273.486 70.058C273.243 69.7633 273.053 69.447 272.914 69.109C272.784 68.771 272.719 68.4287 272.719 68.082V67.77H275.293V66.912H269.053V67.77H271.64V68.082C271.64 68.4547 271.566 68.823 271.419 69.187C271.28 69.551 271.081 69.889 270.821 70.201C270.561 70.513 270.253 70.7947 269.898 71.046C269.543 71.2887 269.153 71.4837 268.728 71.631L269.261 72.463C269.946 72.229 270.539 71.8693 271.042 71.384C271.553 70.8987 271.935 70.344 272.186 69.72C272.437 70.292 272.806 70.7947 273.291 71.228C273.785 71.6613 274.361 71.982 275.02 72.19ZM278.725 77.832V76.987H271.848V75.713H278.283V72.918H270.769V73.75H277.23V74.907H270.795V77.832H278.725ZM289.046 66.314V69.525H286.706V70.396H289.046V74.855H290.125V66.314H289.046ZM286.862 73.1L287.395 72.268C286.97 72.1207 286.585 71.9257 286.238 71.683C285.891 71.4317 285.592 71.15 285.341 70.838C285.098 70.5173 284.908 70.175 284.769 69.811C284.63 69.4383 284.561 69.0657 284.561 68.693V68.121H287.122V67.25H280.895V68.121H283.495V68.706C283.495 69.122 283.421 69.525 283.274 69.915C283.135 70.305 282.936 70.669 282.676 71.007C282.416 71.3363 282.104 71.6353 281.74 71.904C281.385 72.164 280.99 72.372 280.557 72.528L281.116 73.36C281.801 73.1087 282.399 72.7317 282.91 72.229C283.421 71.7263 283.803 71.137 284.054 70.461C284.305 71.059 284.674 71.592 285.159 72.06C285.644 72.5193 286.212 72.866 286.862 73.1ZM290.45 77.702V76.831H283.742V74.101H282.663V77.702H290.45ZM302.916 76.467V75.583H298.158V72.749H301.629V67.276H293.595V72.749H297.079V75.583H292.347V76.467H302.916ZM300.589 71.904H294.622V68.121H300.589V71.904ZM305.515 72.762H313.523V71.891H306.568V68.251H313.406V67.367H305.515V72.762ZM314.745 76.389V75.505H304.163V76.389H314.745Z" fill="black"/>
<circle cx="210" cy="73" r="5" fill="black"/>
<path opacity="0.7" d="M228.68 53.35H229.82V52.67H228.68V50.78H227.86V55.44H228.68V53.35ZM227.09 55.3L227.48 54.7C227.233 54.58 227.02 54.4333 226.84 54.26C226.667 54.08 226.52 53.89 226.4 53.69C226.287 53.4833 226.2 53.2733 226.14 53.06C226.087 52.8467 226.06 52.6467 226.06 52.46V51.94H227.15V51.28H224.66V51.94H225.29V52.46C225.29 52.6067 225.277 52.77 225.25 52.95C225.223 53.1233 225.177 53.3033 225.11 53.49C225.05 53.6767 224.967 53.86 224.86 54.04C224.753 54.2133 224.623 54.37 224.47 54.51C224.31 54.3633 224.177 54.2 224.07 54.02C223.963 53.84 223.877 53.6567 223.81 53.47C223.75 53.2833 223.707 53.1033 223.68 52.93C223.653 52.7567 223.64 52.6 223.64 52.46V51.94H224.27V51.28H221.76V51.94H222.87V52.46C222.87 52.64 222.84 52.8367 222.78 53.05C222.727 53.2567 222.64 53.4633 222.52 53.67C222.407 53.8767 222.26 54.07 222.08 54.25C221.907 54.43 221.697 54.58 221.45 54.7L221.84 55.3C222.2 55.1267 222.493 54.9 222.72 54.62C222.947 54.3333 223.12 54.03 223.24 53.71C223.333 54.0367 223.477 54.35 223.67 54.65C223.863 54.95 224.13 55.1967 224.47 55.39C224.81 55.2033 225.073 54.9633 225.26 54.67C225.453 54.3767 225.597 54.06 225.69 53.72C225.817 54.0467 225.99 54.35 226.21 54.63C226.437 54.9033 226.73 55.1267 227.09 55.3ZM228.68 55.92H227.94V57.08H226.58V55.92H225.83V59.64H228.68V55.92ZM223.3 59.02V58.06H225.29V56.01H222.48V56.63H224.49V57.46H222.51V59.64H223.74C223.967 59.64 224.18 59.6333 224.38 59.62C224.58 59.6133 224.773 59.5967 224.96 59.57C225.153 59.55 225.353 59.52 225.56 59.48L225.48 58.86C225.3 58.8933 225.127 58.92 224.96 58.94C224.8 58.96 224.633 58.9767 224.46 58.99C224.287 59.0033 224.107 59.01 223.92 59.01C223.733 59.0167 223.527 59.02 223.3 59.02ZM226.58 57.7H227.94V59H226.58V57.7ZM238.249 59.74V50.77H237.469V59.74H238.249ZM236.379 51.01H235.599V54.44H234.049C234.203 54.04 234.313 53.63 234.379 53.21C234.446 52.7833 234.479 52.35 234.479 51.91H231.019V52.58H233.669C233.596 53.5267 233.313 54.3933 232.819 55.18C232.333 55.96 231.606 56.64 230.639 57.22L231.119 57.81C231.746 57.43 232.273 57.0133 232.699 56.56C233.126 56.1067 233.479 55.62 233.759 55.1H235.599V59.29H236.379V51.01ZM242.955 53.57H249.045V52.91H243.765V50.9H242.955V53.57ZM246.325 55.96V55.02H249.995V54.35H241.865V55.02H245.505V55.96H242.865V56.59H248.145V57.43H242.885V59.64H249.265V59H243.705V58.03H248.965V55.96H246.325ZM258.344 59.75V50.76H257.524V54.22H255.814V54.89H257.524V59.75H258.344ZM252.104 56.91V54.74H255.284V51.6H251.274V52.27H254.484V54.08H251.294V57.59H251.984C252.391 57.59 252.767 57.5867 253.114 57.58C253.467 57.5733 253.807 57.56 254.134 57.54C254.467 57.5133 254.791 57.4833 255.104 57.45C255.424 57.41 255.754 57.36 256.094 57.3L256.014 56.62C255.694 56.68 255.381 56.73 255.074 56.77C254.767 56.8033 254.457 56.8333 254.144 56.86C253.837 56.88 253.514 56.8933 253.174 56.9C252.841 56.9067 252.484 56.91 252.104 56.91Z" fill="black"/>
<path d="M269.001 52.149L269.365 52.929C270.067 52.8077 270.678 52.591 271.198 52.279C271.718 51.9583 272.099 51.577 272.342 51.135C272.593 51.551 272.97 51.9063 273.473 52.201C273.984 52.4957 274.591 52.7037 275.293 52.825L275.644 52.032C275.263 51.9713 274.903 51.8803 274.565 51.759C274.227 51.6377 273.932 51.4947 273.681 51.33C273.43 51.1567 273.23 50.966 273.083 50.758C272.936 50.5413 272.862 50.316 272.862 50.082H275.397V49.289H272.862V48.275H271.796V49.289H269.261V50.082H271.809C271.809 50.3333 271.735 50.5717 271.588 50.797C271.449 51.0137 271.25 51.213 270.99 51.395C270.739 51.5683 270.44 51.72 270.093 51.85C269.755 51.98 269.391 52.0797 269.001 52.149ZM279.44 51.98V51.096H277.724V48.314H276.658V54.918H277.724V51.98H279.44ZM276.021 54.125L275.93 53.371C275.436 53.4403 274.929 53.4967 274.409 53.54C273.898 53.5833 273.382 53.618 272.862 53.644V52.409H271.796V53.683C271.241 53.7003 270.7 53.7133 270.171 53.722C269.642 53.722 269.144 53.722 268.676 53.722L268.806 54.554C269.317 54.554 269.863 54.554 270.444 54.554C271.033 54.5453 271.64 54.528 272.264 54.502C272.888 54.4673 273.516 54.424 274.149 54.372C274.79 54.3113 275.414 54.229 276.021 54.125ZM278.166 59.026H271.25V57.947H277.724V55.425H270.171V56.218H276.671V57.18H270.21V59.832H278.166V59.026ZM286.056 53.54H289.046V55.204H290.125V48.301H289.046V49.978H286.056C285.787 49.6747 285.449 49.4363 285.042 49.263C284.643 49.0897 284.197 49.003 283.703 49.003C283.27 49.003 282.867 49.0723 282.494 49.211C282.13 49.341 281.814 49.5273 281.545 49.77C281.285 50.0127 281.077 50.303 280.921 50.641C280.774 50.979 280.7 51.3517 280.7 51.759C280.7 52.1663 280.774 52.5433 280.921 52.89C281.077 53.228 281.285 53.5227 281.545 53.774C281.814 54.0167 282.13 54.2073 282.494 54.346C282.867 54.476 283.27 54.541 283.703 54.541C284.197 54.541 284.643 54.4543 285.042 54.281C285.449 54.099 285.787 53.852 286.056 53.54ZM281.714 51.759C281.714 51.4817 281.762 51.2303 281.857 51.005C281.961 50.7797 282.1 50.5847 282.273 50.42C282.455 50.2553 282.667 50.1297 282.91 50.043C283.153 49.9477 283.417 49.9 283.703 49.9C283.989 49.9 284.253 49.9477 284.496 50.043C284.739 50.1297 284.947 50.2553 285.12 50.42C285.293 50.5847 285.428 50.7797 285.523 51.005C285.627 51.2303 285.679 51.4817 285.679 51.759C285.679 52.0277 285.627 52.279 285.523 52.513C285.428 52.7383 285.293 52.9377 285.12 53.111C284.947 53.2757 284.739 53.4057 284.496 53.501C284.253 53.5877 283.989 53.631 283.703 53.631C283.417 53.631 283.153 53.5877 282.91 53.501C282.667 53.4057 282.455 53.2757 282.273 53.111C282.1 52.9377 281.961 52.7383 281.857 52.513C281.762 52.279 281.714 52.0277 281.714 51.759ZM286.55 50.849H289.046V52.669H286.537C286.641 52.383 286.693 52.0797 286.693 51.759C286.693 51.4817 286.645 51.1783 286.55 50.849ZM286.264 55.477C285.666 55.477 285.129 55.529 284.652 55.633C284.175 55.7283 283.768 55.8713 283.43 56.062C283.092 56.2527 282.832 56.4867 282.65 56.764C282.477 57.0413 282.39 57.3577 282.39 57.713C282.39 58.0683 282.477 58.3847 282.65 58.662C282.832 58.9393 283.092 59.1733 283.43 59.364C283.768 59.5547 284.175 59.6977 284.652 59.793C285.129 59.897 285.666 59.949 286.264 59.949C286.862 59.949 287.399 59.897 287.876 59.793C288.361 59.6977 288.773 59.5547 289.111 59.364C289.449 59.1733 289.709 58.9393 289.891 58.662C290.073 58.3847 290.164 58.0683 290.164 57.713C290.164 57.3577 290.073 57.0413 289.891 56.764C289.709 56.4867 289.449 56.2527 289.111 56.062C288.773 55.8713 288.361 55.7283 287.876 55.633C287.399 55.529 286.862 55.477 286.264 55.477ZM286.264 59.104C285.371 59.104 284.678 58.9827 284.184 58.74C283.69 58.4973 283.443 58.155 283.443 57.713C283.443 57.271 283.69 56.9287 284.184 56.686C284.678 56.4347 285.371 56.309 286.264 56.309C287.157 56.309 287.854 56.4347 288.357 56.686C288.86 56.9287 289.111 57.271 289.111 57.713C289.111 58.155 288.86 58.4973 288.357 58.74C287.854 58.9827 287.157 59.104 286.264 59.104ZM305.693 58.467V57.583H300.935V54.749H304.406V49.276H296.372V54.749H299.856V57.583H295.124V58.467H305.693ZM303.366 53.904H297.399V50.121H303.366V53.904ZM308.292 54.762H316.3V53.891H309.345V50.251H316.183V49.367H308.292V54.762ZM317.522 58.389V57.505H306.94V58.389H317.522ZM327.539 51.928H330.087V57.024H331.166V48.314H330.087V51.044H327.539V51.928ZM327.812 55.087L328.371 54.268C327.955 54.112 327.574 53.904 327.227 53.644C326.881 53.384 326.582 53.0893 326.33 52.76C326.088 52.422 325.897 52.0623 325.758 51.681C325.62 51.291 325.55 50.8923 325.55 50.485V49.003H324.484V50.446C324.484 50.888 324.415 51.3213 324.276 51.746C324.138 52.162 323.938 52.552 323.678 52.916C323.427 53.2713 323.119 53.5877 322.755 53.865C322.4 54.1423 322.006 54.359 321.572 54.515L322.131 55.36C322.816 55.0827 323.405 54.684 323.899 54.164C324.402 53.6353 324.779 53.02 325.03 52.318C325.282 52.9507 325.646 53.5097 326.122 53.995C326.599 54.4717 327.162 54.8357 327.812 55.087ZM331.439 59.702V58.831H324.731V56.062H323.665V59.702H331.439ZM343.229 55.373V48.314H342.202V51.343H340.642V48.522H339.628V55.295H340.642V52.214H342.202V55.373H343.229ZM338.952 54.437L338.848 53.579C338.545 53.6397 338.246 53.6917 337.951 53.735C337.665 53.7697 337.366 53.8 337.054 53.826C336.742 53.852 336.413 53.8693 336.066 53.878C335.72 53.8867 335.338 53.891 334.922 53.891V52.305H338.263V51.486H334.922V50.017H338.393V49.159H333.895V54.762H334.636C335.104 54.762 335.529 54.7577 335.91 54.749C336.292 54.7403 336.651 54.7273 336.989 54.71C337.327 54.684 337.652 54.6493 337.964 54.606C338.285 54.5627 338.614 54.5063 338.952 54.437ZM343.229 55.984H335.39V56.842H342.163V59.962H343.229V55.984Z" fill="black"/>
<circle cx="210" cy="56" r="4.5" stroke="black"/>
<path opacity="0.7" d="M228.07 120.35H228.89V115.77H228.07V120.35ZM226.21 116.21H222.13V116.88H225.32C225.253 117.607 224.917 118.227 224.31 118.74C223.703 119.247 222.827 119.623 221.68 119.87L221.98 120.53C222.64 120.383 223.23 120.183 223.75 119.93C224.277 119.67 224.72 119.36 225.08 119C225.447 118.64 225.727 118.227 225.92 117.76C226.113 117.293 226.21 116.777 226.21 116.21ZM229.19 124.65V124H223.92V122.96H228.89V120.78H223.08V121.43H228.07V122.35H223.1V124.65H229.19ZM238.249 124.74V115.77H237.469V124.74H238.249ZM236.379 116.01H235.599V119.44H234.049C234.203 119.04 234.313 118.63 234.379 118.21C234.446 117.783 234.479 117.35 234.479 116.91H231.019V117.58H233.669C233.596 118.527 233.313 119.393 232.819 120.18C232.333 120.96 231.606 121.64 230.639 122.22L231.119 122.81C231.746 122.43 232.273 122.013 232.699 121.56C233.126 121.107 233.479 120.62 233.759 120.1H235.599V124.29H236.379V116.01ZM242.955 118.57H249.045V117.91H243.765V115.9H242.955V118.57ZM246.325 120.96V120.02H249.995V119.35H241.865V120.02H245.505V120.96H242.865V121.59H248.145V122.43H242.885V124.64H249.265V124H243.705V123.03H248.965V120.96H246.325ZM258.344 124.75V115.76H257.524V119.22H255.814V119.89H257.524V124.75H258.344ZM252.104 121.91V119.74H255.284V116.6H251.274V117.27H254.484V119.08H251.294V122.59H251.984C252.391 122.59 252.767 122.587 253.114 122.58C253.467 122.573 253.807 122.56 254.134 122.54C254.467 122.513 254.791 122.483 255.104 122.45C255.424 122.41 255.754 122.36 256.094 122.3L256.014 121.62C255.694 121.68 255.381 121.73 255.074 121.77C254.767 121.803 254.457 121.833 254.144 121.86C253.837 121.88 253.514 121.893 253.174 121.9C252.841 121.907 252.484 121.91 252.104 121.91Z" fill="black"/>
<path d="M279.245 119.918V119.06H274.5V117.708H278.01V116.85H271.081V114.692H277.932V113.834H270.015V117.708H273.434V119.06H268.689V119.918H279.245ZM273.967 120.75C272.719 120.75 271.74 120.932 271.029 121.296C270.318 121.66 269.963 122.18 269.963 122.856C269.963 123.532 270.318 124.052 271.029 124.416C271.74 124.78 272.719 124.962 273.967 124.962C274.582 124.962 275.137 124.914 275.631 124.819C276.125 124.732 276.541 124.598 276.879 124.416C277.226 124.234 277.49 124.013 277.672 123.753C277.854 123.493 277.945 123.194 277.945 122.856C277.945 122.518 277.854 122.219 277.672 121.959C277.49 121.699 277.226 121.478 276.879 121.296C276.541 121.114 276.125 120.98 275.631 120.893C275.137 120.798 274.582 120.75 273.967 120.75ZM273.967 124.13C273.022 124.13 272.299 124.022 271.796 123.805C271.293 123.588 271.042 123.272 271.042 122.856C271.042 122.44 271.293 122.124 271.796 121.907C272.299 121.69 273.022 121.582 273.967 121.582C274.886 121.582 275.596 121.69 276.099 121.907C276.61 122.124 276.866 122.44 276.866 122.856C276.866 123.272 276.61 123.588 276.099 123.805C275.596 124.022 274.886 124.13 273.967 124.13ZM286.056 118.54H289.046V120.204H290.125V113.301H289.046V114.978H286.056C285.787 114.675 285.449 114.436 285.042 114.263C284.643 114.09 284.197 114.003 283.703 114.003C283.27 114.003 282.867 114.072 282.494 114.211C282.13 114.341 281.814 114.527 281.545 114.77C281.285 115.013 281.077 115.303 280.921 115.641C280.774 115.979 280.7 116.352 280.7 116.759C280.7 117.166 280.774 117.543 280.921 117.89C281.077 118.228 281.285 118.523 281.545 118.774C281.814 119.017 282.13 119.207 282.494 119.346C282.867 119.476 283.27 119.541 283.703 119.541C284.197 119.541 284.643 119.454 285.042 119.281C285.449 119.099 285.787 118.852 286.056 118.54ZM281.714 116.759C281.714 116.482 281.762 116.23 281.857 116.005C281.961 115.78 282.1 115.585 282.273 115.42C282.455 115.255 282.667 115.13 282.91 115.043C283.153 114.948 283.417 114.9 283.703 114.9C283.989 114.9 284.253 114.948 284.496 115.043C284.739 115.13 284.947 115.255 285.12 115.42C285.293 115.585 285.428 115.78 285.523 116.005C285.627 116.23 285.679 116.482 285.679 116.759C285.679 117.028 285.627 117.279 285.523 117.513C285.428 117.738 285.293 117.938 285.12 118.111C284.947 118.276 284.739 118.406 284.496 118.501C284.253 118.588 283.989 118.631 283.703 118.631C283.417 118.631 283.153 118.588 282.91 118.501C282.667 118.406 282.455 118.276 282.273 118.111C282.1 117.938 281.961 117.738 281.857 117.513C281.762 117.279 281.714 117.028 281.714 116.759ZM286.55 115.849H289.046V117.669H286.537C286.641 117.383 286.693 117.08 286.693 116.759C286.693 116.482 286.645 116.178 286.55 115.849ZM286.264 120.477C285.666 120.477 285.129 120.529 284.652 120.633C284.175 120.728 283.768 120.871 283.43 121.062C283.092 121.253 282.832 121.487 282.65 121.764C282.477 122.041 282.39 122.358 282.39 122.713C282.39 123.068 282.477 123.385 282.65 123.662C282.832 123.939 283.092 124.173 283.43 124.364C283.768 124.555 284.175 124.698 284.652 124.793C285.129 124.897 285.666 124.949 286.264 124.949C286.862 124.949 287.399 124.897 287.876 124.793C288.361 124.698 288.773 124.555 289.111 124.364C289.449 124.173 289.709 123.939 289.891 123.662C290.073 123.385 290.164 123.068 290.164 122.713C290.164 122.358 290.073 122.041 289.891 121.764C289.709 121.487 289.449 121.253 289.111 121.062C288.773 120.871 288.361 120.728 287.876 120.633C287.399 120.529 286.862 120.477 286.264 120.477ZM286.264 124.104C285.371 124.104 284.678 123.983 284.184 123.74C283.69 123.497 283.443 123.155 283.443 122.713C283.443 122.271 283.69 121.929 284.184 121.686C284.678 121.435 285.371 121.309 286.264 121.309C287.157 121.309 287.854 121.435 288.357 121.686C288.86 121.929 289.111 122.271 289.111 122.713C289.111 123.155 288.86 123.497 288.357 123.74C287.854 123.983 287.157 124.104 286.264 124.104ZM303.124 117.201V116.317H301.395V113.314H300.329V120.373H301.395V117.201H303.124ZM298.522 119.619L299.081 118.787C298.665 118.648 298.284 118.458 297.937 118.215C297.59 117.964 297.291 117.682 297.04 117.37C296.797 117.049 296.607 116.703 296.468 116.33C296.329 115.957 296.26 115.576 296.26 115.186V113.899H295.194V115.095C295.194 115.537 295.125 115.966 294.986 116.382C294.856 116.789 294.661 117.171 294.401 117.526C294.15 117.873 293.846 118.185 293.491 118.462C293.136 118.731 292.737 118.943 292.295 119.099L292.854 119.944C293.539 119.684 294.128 119.298 294.622 118.787C295.125 118.276 295.497 117.678 295.74 116.993C296 117.591 296.368 118.12 296.845 118.579C297.33 119.038 297.889 119.385 298.522 119.619ZM297.69 120.698C297.092 120.698 296.555 120.746 296.078 120.841C295.61 120.936 295.207 121.075 294.869 121.257C294.54 121.439 294.284 121.664 294.102 121.933C293.929 122.193 293.842 122.492 293.842 122.83C293.842 123.168 293.929 123.471 294.102 123.74C294.284 124 294.54 124.217 294.869 124.39C295.207 124.572 295.61 124.711 296.078 124.806C296.555 124.901 297.092 124.949 297.69 124.949C298.279 124.949 298.808 124.901 299.276 124.806C299.753 124.711 300.156 124.572 300.485 124.39C300.823 124.217 301.079 124 301.252 123.74C301.434 123.471 301.525 123.168 301.525 122.83C301.525 122.492 301.434 122.193 301.252 121.933C301.079 121.664 300.823 121.439 300.485 121.257C300.156 121.075 299.753 120.936 299.276 120.841C298.808 120.746 298.279 120.698 297.69 120.698ZM297.69 124.117C296.823 124.117 296.143 124.009 295.649 123.792C295.155 123.567 294.908 123.246 294.908 122.83C294.908 122.414 295.155 122.093 295.649 121.868C296.143 121.643 296.823 121.53 297.69 121.53C298.557 121.53 299.233 121.643 299.718 121.868C300.212 122.093 300.459 122.414 300.459 122.83C300.459 123.246 300.212 123.567 299.718 123.792C299.233 124.009 298.557 124.117 297.69 124.117ZM307.265 117.149L307.629 117.929C308.331 117.808 308.942 117.591 309.462 117.279C309.982 116.958 310.364 116.577 310.606 116.135C310.858 116.551 311.235 116.906 311.737 117.201C312.249 117.496 312.855 117.704 313.557 117.825L313.908 117.032C313.527 116.971 313.167 116.88 312.829 116.759C312.491 116.638 312.197 116.495 311.945 116.33C311.694 116.157 311.495 115.966 311.347 115.758C311.2 115.541 311.126 115.316 311.126 115.082H313.661V114.289H311.126V113.275H310.06V114.289H307.525V115.082H310.073C310.073 115.333 310 115.572 309.852 115.797C309.714 116.014 309.514 116.213 309.254 116.395C309.003 116.568 308.704 116.72 308.357 116.85C308.019 116.98 307.655 117.08 307.265 117.149ZM317.704 116.98V116.096H315.988V113.314H314.922V119.918H315.988V116.98H317.704ZM314.285 119.125L314.194 118.371C313.7 118.44 313.193 118.497 312.673 118.54C312.162 118.583 311.646 118.618 311.126 118.644V117.409H310.06V118.683C309.506 118.7 308.964 118.713 308.435 118.722C307.907 118.722 307.408 118.722 306.94 118.722L307.07 119.554C307.582 119.554 308.128 119.554 308.708 119.554C309.298 119.545 309.904 119.528 310.528 119.502C311.152 119.467 311.781 119.424 312.413 119.372C313.055 119.311 313.679 119.229 314.285 119.125ZM316.43 124.026H309.514V122.947H315.988V120.425H308.435V121.218H314.935V122.18H308.474V124.832H316.43V124.026ZM324.32 118.54H327.31V120.204H328.389V113.301H327.31V114.978H324.32C324.051 114.675 323.713 114.436 323.306 114.263C322.907 114.09 322.461 114.003 321.967 114.003C321.534 114.003 321.131 114.072 320.758 114.211C320.394 114.341 320.078 114.527 319.809 114.77C319.549 115.013 319.341 115.303 319.185 115.641C319.038 115.979 318.964 116.352 318.964 116.759C318.964 117.166 319.038 117.543 319.185 117.89C319.341 118.228 319.549 118.523 319.809 118.774C320.078 119.017 320.394 119.207 320.758 119.346C321.131 119.476 321.534 119.541 321.967 119.541C322.461 119.541 322.907 119.454 323.306 119.281C323.713 119.099 324.051 118.852 324.32 118.54ZM319.978 116.759C319.978 116.482 320.026 116.23 320.121 116.005C320.225 115.78 320.364 115.585 320.537 115.42C320.719 115.255 320.931 115.13 321.174 115.043C321.417 114.948 321.681 114.9 321.967 114.9C322.253 114.9 322.517 114.948 322.76 115.043C323.003 115.13 323.211 115.255 323.384 115.42C323.557 115.585 323.692 115.78 323.787 116.005C323.891 116.23 323.943 116.482 323.943 116.759C323.943 117.028 323.891 117.279 323.787 117.513C323.692 117.738 323.557 117.938 323.384 118.111C323.211 118.276 323.003 118.406 322.76 118.501C322.517 118.588 322.253 118.631 321.967 118.631C321.681 118.631 321.417 118.588 321.174 118.501C320.931 118.406 320.719 118.276 320.537 118.111C320.364 117.938 320.225 117.738 320.121 117.513C320.026 117.279 319.978 117.028 319.978 116.759ZM324.814 115.849H327.31V117.669H324.801C324.905 117.383 324.957 117.08 324.957 116.759C324.957 116.482 324.909 116.178 324.814 115.849ZM324.528 120.477C323.93 120.477 323.393 120.529 322.916 120.633C322.439 120.728 322.032 120.871 321.694 121.062C321.356 121.253 321.096 121.487 320.914 121.764C320.741 122.041 320.654 122.358 320.654 122.713C320.654 123.068 320.741 123.385 320.914 123.662C321.096 123.939 321.356 124.173 321.694 124.364C322.032 124.555 322.439 124.698 322.916 124.793C323.393 124.897 323.93 124.949 324.528 124.949C325.126 124.949 325.663 124.897 326.14 124.793C326.625 124.698 327.037 124.555 327.375 124.364C327.713 124.173 327.973 123.939 328.155 123.662C328.337 123.385 328.428 123.068 328.428 122.713C328.428 122.358 328.337 122.041 328.155 121.764C327.973 121.487 327.713 121.253 327.375 121.062C327.037 120.871 326.625 120.728 326.14 120.633C325.663 120.529 325.126 120.477 324.528 120.477ZM324.528 124.104C323.635 124.104 322.942 123.983 322.448 123.74C321.954 123.497 321.707 123.155 321.707 122.713C321.707 122.271 321.954 121.929 322.448 121.686C322.942 121.435 323.635 121.309 324.528 121.309C325.421 121.309 326.118 121.435 326.621 121.686C327.124 121.929 327.375 122.271 327.375 122.713C327.375 123.155 327.124 123.497 326.621 123.74C326.118 123.983 325.421 124.104 324.528 124.104Z" fill="black"/>
<circle cx="210" cy="120" r="5" fill="black"/>
<path opacity="0.7" d="M228.68 100.35H229.82V99.67H228.68V97.78H227.86V102.44H228.68V100.35ZM227.09 102.3L227.48 101.7C227.233 101.58 227.02 101.433 226.84 101.26C226.667 101.08 226.52 100.89 226.4 100.69C226.287 100.483 226.2 100.273 226.14 100.06C226.087 99.8467 226.06 99.6467 226.06 99.46V98.94H227.15V98.28H224.66V98.94H225.29V99.46C225.29 99.6067 225.277 99.77 225.25 99.95C225.223 100.123 225.177 100.303 225.11 100.49C225.05 100.677 224.967 100.86 224.86 101.04C224.753 101.213 224.623 101.37 224.47 101.51C224.31 101.363 224.177 101.2 224.07 101.02C223.963 100.84 223.877 100.657 223.81 100.47C223.75 100.283 223.707 100.103 223.68 99.93C223.653 99.7567 223.64 99.6 223.64 99.46V98.94H224.27V98.28H221.76V98.94H222.87V99.46C222.87 99.64 222.84 99.8367 222.78 100.05C222.727 100.257 222.64 100.463 222.52 100.67C222.407 100.877 222.26 101.07 222.08 101.25C221.907 101.43 221.697 101.58 221.45 101.7L221.84 102.3C222.2 102.127 222.493 101.9 222.72 101.62C222.947 101.333 223.12 101.03 223.24 100.71C223.333 101.037 223.477 101.35 223.67 101.65C223.863 101.95 224.13 102.197 224.47 102.39C224.81 102.203 225.073 101.963 225.26 101.67C225.453 101.377 225.597 101.06 225.69 100.72C225.817 101.047 225.99 101.35 226.21 101.63C226.437 101.903 226.73 102.127 227.09 102.3ZM228.68 102.92H227.94V104.08H226.58V102.92H225.83V106.64H228.68V102.92ZM223.3 106.02V105.06H225.29V103.01H222.48V103.63H224.49V104.46H222.51V106.64H223.74C223.967 106.64 224.18 106.633 224.38 106.62C224.58 106.613 224.773 106.597 224.96 106.57C225.153 106.55 225.353 106.52 225.56 106.48L225.48 105.86C225.3 105.893 225.127 105.92 224.96 105.94C224.8 105.96 224.633 105.977 224.46 105.99C224.287 106.003 224.107 106.01 223.92 106.01C223.733 106.017 223.527 106.02 223.3 106.02ZM226.58 104.7H227.94V106H226.58V104.7ZM238.249 106.74V97.77H237.469V106.74H238.249ZM236.379 98.01H235.599V101.44H234.049C234.203 101.04 234.313 100.63 234.379 100.21C234.446 99.7833 234.479 99.35 234.479 98.91H231.019V99.58H233.669C233.596 100.527 233.313 101.393 232.819 102.18C232.333 102.96 231.606 103.64 230.639 104.22L231.119 104.81C231.746 104.43 232.273 104.013 232.699 103.56C233.126 103.107 233.479 102.62 233.759 102.1H235.599V106.29H236.379V98.01ZM242.955 100.57H249.045V99.91H243.765V97.9H242.955V100.57ZM246.325 102.96V102.02H249.995V101.35H241.865V102.02H245.505V102.96H242.865V103.59H248.145V104.43H242.885V106.64H249.265V106H243.705V105.03H248.965V102.96H246.325ZM258.344 106.75V97.76H257.524V101.22H255.814V101.89H257.524V106.75H258.344ZM252.104 103.91V101.74H255.284V98.6H251.274V99.27H254.484V101.08H251.294V104.59H251.984C252.391 104.59 252.767 104.587 253.114 104.58C253.467 104.573 253.807 104.56 254.134 104.54C254.467 104.513 254.791 104.483 255.104 104.45C255.424 104.41 255.754 104.36 256.094 104.3L256.014 103.62C255.694 103.68 255.381 103.73 255.074 103.77C254.767 103.803 254.457 103.833 254.144 103.86C253.837 103.88 253.514 103.893 253.174 103.9C252.841 103.907 252.484 103.91 252.104 103.91Z" fill="black"/>
<path d="M277.659 100.917H279.583V100.033H277.659V95.314H276.593V106.962H277.659V100.917ZM272.602 98.408V96.315H271.549V98.408C271.549 98.9367 271.471 99.4653 271.315 99.994C271.159 100.523 270.947 101.021 270.678 101.489C270.409 101.948 270.089 102.364 269.716 102.737C269.352 103.11 268.962 103.404 268.546 103.621L269.183 104.479C269.842 104.115 270.427 103.599 270.938 102.932C271.449 102.256 271.831 101.485 272.082 100.618C272.212 101.017 272.372 101.402 272.563 101.775C272.762 102.139 272.979 102.477 273.213 102.789C273.456 103.101 273.72 103.383 274.006 103.634C274.292 103.877 274.591 104.08 274.903 104.245L275.566 103.4C275.159 103.192 274.773 102.91 274.409 102.555C274.054 102.2 273.742 101.801 273.473 101.359C273.204 100.917 272.992 100.445 272.836 99.942C272.68 99.4307 272.602 98.9193 272.602 98.408ZM289.02 103.842H290.086V95.314H289.02V103.842ZM287.122 102.178L287.642 101.333C287.217 101.194 286.823 101.004 286.459 100.761C286.104 100.518 285.796 100.241 285.536 99.929C285.276 99.617 285.072 99.279 284.925 98.915C284.786 98.5423 284.717 98.161 284.717 97.771V97.134H287.356V96.276H280.96V97.134H283.625V97.771C283.625 98.187 283.551 98.59 283.404 98.98C283.265 99.37 283.066 99.734 282.806 100.072C282.555 100.401 282.247 100.696 281.883 100.956C281.519 101.207 281.116 101.411 280.674 101.567L281.233 102.399C281.935 102.148 282.537 101.775 283.04 101.281C283.551 100.787 283.933 100.202 284.184 99.526C284.453 100.15 284.838 100.692 285.341 101.151C285.852 101.602 286.446 101.944 287.122 102.178ZM290.437 106.702V105.831H283.651V103.036H282.585V106.702H290.437ZM295.436 99.149L295.8 99.929C296.502 99.8077 297.113 99.591 297.633 99.279C298.153 98.9583 298.535 98.577 298.777 98.135C299.029 98.551 299.406 98.9063 299.908 99.201C300.42 99.4957 301.026 99.7037 301.728 99.825L302.079 99.032C301.698 98.9713 301.338 98.8803 301 98.759C300.662 98.6377 300.368 98.4947 300.116 98.33C299.865 98.1567 299.666 97.966 299.518 97.758C299.371 97.5413 299.297 97.316 299.297 97.082H301.832V96.289H299.297V95.275H298.231V96.289H295.696V97.082H298.244C298.244 97.3333 298.171 97.5717 298.023 97.797C297.885 98.0137 297.685 98.213 297.425 98.395C297.174 98.5683 296.875 98.72 296.528 98.85C296.19 98.98 295.826 99.0797 295.436 99.149ZM305.875 98.98V98.096H304.159V95.314H303.093V101.918H304.159V98.98H305.875ZM302.456 101.125L302.365 100.371C301.871 100.44 301.364 100.497 300.844 100.54C300.333 100.583 299.817 100.618 299.297 100.644V99.409H298.231V100.683C297.677 100.7 297.135 100.713 296.606 100.722C296.078 100.722 295.579 100.722 295.111 100.722L295.241 101.554C295.753 101.554 296.299 101.554 296.879 101.554C297.469 101.545 298.075 101.528 298.699 101.502C299.323 101.467 299.952 101.424 300.584 101.372C301.226 101.311 301.85 101.229 302.456 101.125ZM304.601 106.026H297.685V104.947H304.159V102.425H296.606V103.218H303.106V104.18H296.645V106.832H304.601V106.026ZM312.491 100.54H315.481V102.204H316.56V95.301H315.481V96.978H312.491C312.223 96.6747 311.885 96.4363 311.477 96.263C311.079 96.0897 310.632 96.003 310.138 96.003C309.705 96.003 309.302 96.0723 308.929 96.211C308.565 96.341 308.249 96.5273 307.98 96.77C307.72 97.0127 307.512 97.303 307.356 97.641C307.209 97.979 307.135 98.3517 307.135 98.759C307.135 99.1663 307.209 99.5433 307.356 99.89C307.512 100.228 307.72 100.523 307.98 100.774C308.249 101.017 308.565 101.207 308.929 101.346C309.302 101.476 309.705 101.541 310.138 101.541C310.632 101.541 311.079 101.454 311.477 101.281C311.885 101.099 312.223 100.852 312.491 100.54ZM308.149 98.759C308.149 98.4817 308.197 98.2303 308.292 98.005C308.396 97.7797 308.535 97.5847 308.708 97.42C308.89 97.2553 309.103 97.1297 309.345 97.043C309.588 96.9477 309.852 96.9 310.138 96.9C310.424 96.9 310.689 96.9477 310.931 97.043C311.174 97.1297 311.382 97.2553 311.555 97.42C311.729 97.5847 311.863 97.7797 311.958 98.005C312.062 98.2303 312.114 98.4817 312.114 98.759C312.114 99.0277 312.062 99.279 311.958 99.513C311.863 99.7383 311.729 99.9377 311.555 100.111C311.382 100.276 311.174 100.406 310.931 100.501C310.689 100.588 310.424 100.631 310.138 100.631C309.852 100.631 309.588 100.588 309.345 100.501C309.103 100.406 308.89 100.276 308.708 100.111C308.535 99.9377 308.396 99.7383 308.292 99.513C308.197 99.279 308.149 99.0277 308.149 98.759ZM312.985 97.849H315.481V99.669H312.972C313.076 99.383 313.128 99.0797 313.128 98.759C313.128 98.4817 313.081 98.1783 312.985 97.849ZM312.699 102.477C312.101 102.477 311.564 102.529 311.087 102.633C310.611 102.728 310.203 102.871 309.865 103.062C309.527 103.253 309.267 103.487 309.085 103.764C308.912 104.041 308.825 104.358 308.825 104.713C308.825 105.068 308.912 105.385 309.085 105.662C309.267 105.939 309.527 106.173 309.865 106.364C310.203 106.555 310.611 106.698 311.087 106.793C311.564 106.897 312.101 106.949 312.699 106.949C313.297 106.949 313.835 106.897 314.311 106.793C314.797 106.698 315.208 106.555 315.546 106.364C315.884 106.173 316.144 105.939 316.326 105.662C316.508 105.385 316.599 105.068 316.599 104.713C316.599 104.358 316.508 104.041 316.326 103.764C316.144 103.487 315.884 103.253 315.546 103.062C315.208 102.871 314.797 102.728 314.311 102.633C313.835 102.529 313.297 102.477 312.699 102.477ZM312.699 106.104C311.807 106.104 311.113 105.983 310.619 105.74C310.125 105.497 309.878 105.155 309.878 104.713C309.878 104.271 310.125 103.929 310.619 103.686C311.113 103.435 311.807 103.309 312.699 103.309C313.592 103.309 314.29 103.435 314.792 103.686C315.295 103.929 315.546 104.271 315.546 104.713C315.546 105.155 315.295 105.497 314.792 105.74C314.29 105.983 313.592 106.104 312.699 106.104Z" fill="black"/>
<circle cx="210" cy="103" r="4.5" stroke="black"/>
<path opacity="0.7" d="M228.07 167.35H228.89V162.77H228.07V167.35ZM226.21 163.21H222.13V163.88H225.32C225.253 164.607 224.917 165.227 224.31 165.74C223.703 166.247 222.827 166.623 221.68 166.87L221.98 167.53C222.64 167.383 223.23 167.183 223.75 166.93C224.277 166.67 224.72 166.36 225.08 166C225.447 165.64 225.727 165.227 225.92 164.76C226.113 164.293 226.21 163.777 226.21 163.21ZM229.19 171.65V171H223.92V169.96H228.89V167.78H223.08V168.43H228.07V169.35H223.1V171.65H229.19ZM238.249 171.74V162.77H237.469V171.74H238.249ZM236.379 163.01H235.599V166.44H234.049C234.203 166.04 234.313 165.63 234.379 165.21C234.446 164.783 234.479 164.35 234.479 163.91H231.019V164.58H233.669C233.596 165.527 233.313 166.393 232.819 167.18C232.333 167.96 231.606 168.64 230.639 169.22L231.119 169.81C231.746 169.43 232.273 169.013 232.699 168.56C233.126 168.107 233.479 167.62 233.759 167.1H235.599V171.29H236.379V163.01ZM242.955 165.57H249.045V164.91H243.765V162.9H242.955V165.57ZM246.325 167.96V167.02H249.995V166.35H241.865V167.02H245.505V167.96H242.865V168.59H248.145V169.43H242.885V171.64H249.265V171H243.705V170.03H248.965V167.96H246.325ZM258.344 171.75V162.76H257.524V166.22H255.814V166.89H257.524V171.75H258.344ZM252.104 168.91V166.74H255.284V163.6H251.274V164.27H254.484V166.08H251.294V169.59H251.984C252.391 169.59 252.767 169.587 253.114 169.58C253.467 169.573 253.807 169.56 254.134 169.54C254.467 169.513 254.791 169.483 255.104 169.45C255.424 169.41 255.754 169.36 256.094 169.3L256.014 168.62C255.694 168.68 255.381 168.73 255.074 168.77C254.767 168.803 254.457 168.833 254.144 168.86C253.837 168.88 253.514 168.893 253.174 168.9C252.841 168.907 252.484 168.91 252.104 168.91Z" fill="black"/>
<path d="M277.178 166.346H278.244V160.314H277.178V166.346ZM275.215 166.008L275.748 165.176C275.323 165.037 274.929 164.847 274.565 164.604C274.201 164.353 273.889 164.067 273.629 163.746C273.369 163.425 273.165 163.079 273.018 162.706C272.871 162.325 272.797 161.935 272.797 161.536V160.652H271.731V161.536C271.731 161.961 271.657 162.372 271.51 162.771C271.371 163.17 271.172 163.538 270.912 163.876C270.652 164.214 270.34 164.513 269.976 164.773C269.612 165.033 269.209 165.241 268.767 165.397L269.313 166.229C270.015 165.978 270.622 165.601 271.133 165.098C271.644 164.595 272.026 164.006 272.277 163.33C272.546 163.954 272.931 164.5 273.434 164.968C273.945 165.427 274.539 165.774 275.215 166.008ZM278.647 171.832V170.987H271.783V169.739H278.257V166.931H270.704V167.776H277.204V168.933H270.73V171.832H278.647ZM290.06 171.988V160.301H288.994V171.988H290.06ZM284.652 163.408V161.315H283.599V163.408C283.599 163.963 283.517 164.513 283.352 165.059C283.187 165.596 282.962 166.099 282.676 166.567C282.39 167.035 282.056 167.451 281.675 167.815C281.294 168.179 280.891 168.465 280.466 168.673L281.116 169.544C281.801 169.18 282.407 168.66 282.936 167.984C283.465 167.308 283.863 166.524 284.132 165.631C284.409 166.472 284.808 167.217 285.328 167.867C285.857 168.508 286.459 168.994 287.135 169.323L287.772 168.465C287.347 168.274 286.944 168.006 286.563 167.659C286.182 167.304 285.848 166.901 285.562 166.45C285.285 165.999 285.064 165.514 284.899 164.994C284.734 164.465 284.652 163.937 284.652 163.408ZM303.124 164.734V163.85H301.395V160.314H300.329V168.829H301.395V164.734H303.124ZM298.275 161.211H292.841V162.082H297.131C297.079 162.593 296.927 163.079 296.676 163.538C296.433 163.997 296.104 164.422 295.688 164.812C295.281 165.202 294.795 165.553 294.232 165.865C293.677 166.168 293.058 166.428 292.373 166.645L292.802 167.49C293.643 167.23 294.401 166.901 295.077 166.502C295.753 166.095 296.325 165.627 296.793 165.098C297.27 164.561 297.634 163.967 297.885 163.317C298.145 162.667 298.275 161.965 298.275 161.211ZM301.902 170.831H295.194V167.958H294.128V171.702H301.902V170.831ZM317.522 170.467V169.596H312.764V167.087H316.248V161.133H315.208V163.213H309.254V161.133H308.201V167.087H311.685V169.596H306.953V170.467H317.522ZM315.208 166.229H309.254V164.084H315.208V166.229ZM327.31 160.314V163.33H325.009V164.201H327.31V167.256H328.389V160.314H327.31ZM325.126 166.814L325.659 165.982C325.234 165.835 324.849 165.64 324.502 165.397C324.155 165.146 323.856 164.864 323.605 164.552C323.362 164.231 323.172 163.889 323.033 163.525C322.894 163.161 322.825 162.793 322.825 162.42V162.017H325.386V161.159H319.159V162.017H321.759V162.42C321.759 162.836 321.685 163.243 321.538 163.642C321.399 164.041 321.2 164.413 320.94 164.76C320.68 165.098 320.368 165.401 320.004 165.67C319.649 165.939 319.254 166.151 318.821 166.307L319.38 167.152C320.065 166.892 320.663 166.502 321.174 165.982C321.685 165.462 322.067 164.864 322.318 164.188C322.569 164.786 322.938 165.315 323.423 165.774C323.908 166.233 324.476 166.58 325.126 166.814ZM324.541 167.62C323.943 167.62 323.401 167.668 322.916 167.763C322.439 167.858 322.032 168.001 321.694 168.192C321.365 168.374 321.109 168.599 320.927 168.868C320.745 169.137 320.654 169.444 320.654 169.791C320.654 170.138 320.745 170.445 320.927 170.714C321.109 170.983 321.365 171.208 321.694 171.39C322.032 171.581 322.439 171.724 322.916 171.819C323.401 171.914 323.943 171.962 324.541 171.962C325.139 171.962 325.676 171.914 326.153 171.819C326.63 171.724 327.037 171.581 327.375 171.39C327.713 171.208 327.969 170.983 328.142 170.714C328.324 170.445 328.415 170.138 328.415 169.791C328.415 169.444 328.324 169.137 328.142 168.868C327.969 168.599 327.713 168.374 327.375 168.192C327.037 168.001 326.63 167.858 326.153 167.763C325.676 167.668 325.139 167.62 324.541 167.62ZM324.541 171.13C323.648 171.13 322.955 171.013 322.461 170.779C321.967 170.545 321.72 170.216 321.72 169.791C321.72 169.366 321.967 169.037 322.461 168.803C322.955 168.56 323.648 168.439 324.541 168.439C325.434 168.439 326.127 168.56 326.621 168.803C327.115 169.037 327.362 169.366 327.362 169.791C327.362 170.216 327.115 170.545 326.621 170.779C326.127 171.013 325.434 171.13 324.541 171.13ZM277.204 186.359H278.27V180.301H277.204V186.359ZM276.086 185.514L276.034 184.734C275.757 184.769 275.475 184.803 275.189 184.838C274.903 184.864 274.613 184.886 274.318 184.903V181.926H275.462V181.081H269.209V181.926H270.353V185.059C270.232 185.068 270.11 185.072 269.989 185.072H268.897L269.001 185.956C269.512 185.956 270.058 185.952 270.639 185.943C271.228 185.926 271.826 185.9 272.433 185.865C273.048 185.83 273.664 185.787 274.279 185.735C274.903 185.674 275.505 185.601 276.086 185.514ZM271.393 185.033V181.926H273.291V184.955C272.65 184.998 272.017 185.024 271.393 185.033ZM278.712 191.832V190.987H271.744V189.713H278.27V186.918H270.652V187.75H277.217V188.92H270.691V191.832H278.712ZM290.125 191.975V180.288H289.059V184.695H286.654V185.579H289.059V191.975H290.125ZM282.117 188.296V185.501H285.939V184.643H282.117V182.238H286.446V181.354H281.051V189.167H281.948C282.503 189.167 283.014 189.163 283.482 189.154C283.95 189.145 284.392 189.128 284.808 189.102C285.233 189.076 285.644 189.041 286.043 188.998C286.442 188.946 286.853 188.881 287.278 188.803L287.161 187.932C286.762 188.001 286.372 188.062 285.991 188.114C285.618 188.157 285.233 188.192 284.834 188.218C284.435 188.244 284.015 188.266 283.573 188.283C283.131 188.292 282.646 188.296 282.117 188.296ZM299.258 191.169C299.856 191.169 300.402 191.056 300.896 190.831C301.399 190.597 301.828 190.268 302.183 189.843C302.547 189.41 302.829 188.885 303.028 188.27C303.228 187.655 303.327 186.966 303.327 186.203C303.327 185.44 303.228 184.756 303.028 184.149C302.829 183.542 302.547 183.027 302.183 182.602C301.828 182.177 301.399 181.852 300.896 181.627C300.402 181.402 299.856 181.289 299.258 181.289C298.66 181.289 298.11 181.402 297.607 181.627C297.113 181.852 296.684 182.177 296.32 182.602C295.965 183.027 295.688 183.542 295.488 184.149C295.289 184.756 295.189 185.44 295.189 186.203C295.189 186.966 295.289 187.655 295.488 188.27C295.688 188.885 295.965 189.41 296.32 189.843C296.684 190.268 297.113 190.597 297.607 190.831C298.11 191.056 298.66 191.169 299.258 191.169ZM299.258 190.116C298.834 190.116 298.444 190.025 298.088 189.843C297.742 189.652 297.443 189.388 297.191 189.05C296.949 188.712 296.758 188.305 296.619 187.828C296.489 187.343 296.424 186.801 296.424 186.203C296.424 185.605 296.489 185.068 296.619 184.591C296.758 184.114 296.949 183.711 297.191 183.382C297.443 183.044 297.742 182.788 298.088 182.615C298.444 182.433 298.834 182.342 299.258 182.342C299.692 182.342 300.082 182.433 300.428 182.615C300.775 182.788 301.07 183.044 301.312 183.382C301.564 183.711 301.754 184.114 301.884 184.591C302.023 185.068 302.092 185.605 302.092 186.203C302.092 186.801 302.023 187.343 301.884 187.828C301.754 188.305 301.564 188.712 301.312 189.05C301.07 189.388 300.775 189.652 300.428 189.843C300.082 190.025 299.692 190.116 299.258 190.116ZM306.502 181.471H305.254V191H306.398V185.995C306.398 185.492 306.38 184.994 306.346 184.5C306.311 184.006 306.281 183.512 306.255 183.018H306.307L307.334 184.981L310.805 191H312.04V181.471H310.896V186.424C310.896 186.918 310.913 187.421 310.948 187.932C310.982 188.443 311.017 188.946 311.052 189.44H310.987L309.973 187.477L306.502 181.471ZM318.106 180.041H317.248L313.348 192.677H314.219L318.106 180.041ZM322.989 191.169C323.587 191.169 324.133 191.056 324.627 190.831C325.13 190.597 325.559 190.268 325.914 189.843C326.278 189.41 326.56 188.885 326.759 188.27C326.959 187.655 327.058 186.966 327.058 186.203C327.058 185.44 326.959 184.756 326.759 184.149C326.56 183.542 326.278 183.027 325.914 182.602C325.559 182.177 325.13 181.852 324.627 181.627C324.133 181.402 323.587 181.289 322.989 181.289C322.391 181.289 321.841 181.402 321.338 181.627C320.844 181.852 320.415 182.177 320.051 182.602C319.696 183.027 319.419 183.542 319.219 184.149C319.02 184.756 318.92 185.44 318.92 186.203C318.92 186.966 319.02 187.655 319.219 188.27C319.419 188.885 319.696 189.41 320.051 189.843C320.415 190.268 320.844 190.597 321.338 190.831C321.841 191.056 322.391 191.169 322.989 191.169ZM322.989 190.116C322.565 190.116 322.175 190.025 321.819 189.843C321.473 189.652 321.174 189.388 320.922 189.05C320.68 188.712 320.489 188.305 320.35 187.828C320.22 187.343 320.155 186.801 320.155 186.203C320.155 185.605 320.22 185.068 320.35 184.591C320.489 184.114 320.68 183.711 320.922 183.382C321.174 183.044 321.473 182.788 321.819 182.615C322.175 182.433 322.565 182.342 322.989 182.342C323.423 182.342 323.813 182.433 324.159 182.615C324.506 182.788 324.801 183.044 325.043 183.382C325.295 183.711 325.485 184.114 325.615 184.591C325.754 185.068 325.823 185.605 325.823 186.203C325.823 186.801 325.754 187.343 325.615 187.828C325.485 188.305 325.295 188.712 325.043 189.05C324.801 189.388 324.506 189.652 324.159 189.843C323.813 190.025 323.423 190.116 322.989 190.116ZM334.484 181.471H328.985V191H330.194V186.723H333.834V185.709H330.194V182.485H334.484V181.471ZM341.527 181.471H336.028V191H337.237V186.723H340.877V185.709H337.237V182.485H341.527V181.471Z" fill="black"/>
<circle cx="210" cy="167" r="5" fill="black"/>
<path opacity="0.7" d="M228.68 147.35H229.82V146.67H228.68V144.78H227.86V149.44H228.68V147.35ZM227.09 149.3L227.48 148.7C227.233 148.58 227.02 148.433 226.84 148.26C226.667 148.08 226.52 147.89 226.4 147.69C226.287 147.483 226.2 147.273 226.14 147.06C226.087 146.847 226.06 146.647 226.06 146.46V145.94H227.15V145.28H224.66V145.94H225.29V146.46C225.29 146.607 225.277 146.77 225.25 146.95C225.223 147.123 225.177 147.303 225.11 147.49C225.05 147.677 224.967 147.86 224.86 148.04C224.753 148.213 224.623 148.37 224.47 148.51C224.31 148.363 224.177 148.2 224.07 148.02C223.963 147.84 223.877 147.657 223.81 147.47C223.75 147.283 223.707 147.103 223.68 146.93C223.653 146.757 223.64 146.6 223.64 146.46V145.94H224.27V145.28H221.76V145.94H222.87V146.46C222.87 146.64 222.84 146.837 222.78 147.05C222.727 147.257 222.64 147.463 222.52 147.67C222.407 147.877 222.26 148.07 222.08 148.25C221.907 148.43 221.697 148.58 221.45 148.7L221.84 149.3C222.2 149.127 222.493 148.9 222.72 148.62C222.947 148.333 223.12 148.03 223.24 147.71C223.333 148.037 223.477 148.35 223.67 148.65C223.863 148.95 224.13 149.197 224.47 149.39C224.81 149.203 225.073 148.963 225.26 148.67C225.453 148.377 225.597 148.06 225.69 147.72C225.817 148.047 225.99 148.35 226.21 148.63C226.437 148.903 226.73 149.127 227.09 149.3ZM228.68 149.92H227.94V151.08H226.58V149.92H225.83V153.64H228.68V149.92ZM223.3 153.02V152.06H225.29V150.01H222.48V150.63H224.49V151.46H222.51V153.64H223.74C223.967 153.64 224.18 153.633 224.38 153.62C224.58 153.613 224.773 153.597 224.96 153.57C225.153 153.55 225.353 153.52 225.56 153.48L225.48 152.86C225.3 152.893 225.127 152.92 224.96 152.94C224.8 152.96 224.633 152.977 224.46 152.99C224.287 153.003 224.107 153.01 223.92 153.01C223.733 153.017 223.527 153.02 223.3 153.02ZM226.58 151.7H227.94V153H226.58V151.7ZM238.249 153.74V144.77H237.469V153.74H238.249ZM236.379 145.01H235.599V148.44H234.049C234.203 148.04 234.313 147.63 234.379 147.21C234.446 146.783 234.479 146.35 234.479 145.91H231.019V146.58H233.669C233.596 147.527 233.313 148.393 232.819 149.18C232.333 149.96 231.606 150.64 230.639 151.22L231.119 151.81C231.746 151.43 232.273 151.013 232.699 150.56C233.126 150.107 233.479 149.62 233.759 149.1H235.599V153.29H236.379V145.01ZM242.955 147.57H249.045V146.91H243.765V144.9H242.955V147.57ZM246.325 149.96V149.02H249.995V148.35H241.865V149.02H245.505V149.96H242.865V150.59H248.145V151.43H242.885V153.64H249.265V153H243.705V152.03H248.965V149.96H246.325ZM258.344 153.75V144.76H257.524V148.22H255.814V148.89H257.524V153.75H258.344ZM252.104 150.91V148.74H255.284V145.6H251.274V146.27H254.484V148.08H251.294V151.59H251.984C252.391 151.59 252.767 151.587 253.114 151.58C253.467 151.573 253.807 151.56 254.134 151.54C254.467 151.513 254.791 151.483 255.104 151.45C255.424 151.41 255.754 151.36 256.094 151.3L256.014 150.62C255.694 150.68 255.381 150.73 255.074 150.77C254.767 150.803 254.457 150.833 254.144 150.86C253.837 150.88 253.514 150.893 253.174 150.9C252.841 150.907 252.484 150.91 252.104 150.91Z" fill="black"/>
<path d="M277.659 147.904H279.583V147.007H277.659V142.314H276.593V153.962H277.659V147.904ZM272.615 145.863V144.381H275.202V143.497H268.897V144.381H271.562V145.863C271.562 146.357 271.48 146.86 271.315 147.371C271.15 147.874 270.929 148.35 270.652 148.801C270.375 149.252 270.05 149.659 269.677 150.023C269.304 150.387 268.91 150.673 268.494 150.881L269.118 151.726C269.447 151.561 269.759 151.349 270.054 151.089C270.357 150.82 270.639 150.521 270.899 150.192C271.159 149.854 271.389 149.49 271.588 149.1C271.796 148.701 271.965 148.29 272.095 147.865C272.225 148.255 272.39 148.632 272.589 148.996C272.788 149.351 273.014 149.685 273.265 149.997C273.516 150.3 273.789 150.578 274.084 150.829C274.387 151.072 274.699 151.275 275.02 151.44L275.631 150.582C275.206 150.383 274.812 150.114 274.448 149.776C274.084 149.429 273.763 149.044 273.486 148.619C273.217 148.194 273.005 147.748 272.849 147.28C272.693 146.803 272.615 146.331 272.615 145.863ZM291.074 148.918V148.06H286.329V146.708H289.839V145.85H282.91V143.692H289.761V142.834H281.844V146.708H285.263V148.06H280.518V148.918H291.074ZM285.796 149.75C284.548 149.75 283.569 149.932 282.858 150.296C282.147 150.66 281.792 151.18 281.792 151.856C281.792 152.532 282.147 153.052 282.858 153.416C283.569 153.78 284.548 153.962 285.796 153.962C286.411 153.962 286.966 153.914 287.46 153.819C287.954 153.732 288.37 153.598 288.708 153.416C289.055 153.234 289.319 153.013 289.501 152.753C289.683 152.493 289.774 152.194 289.774 151.856C289.774 151.518 289.683 151.219 289.501 150.959C289.319 150.699 289.055 150.478 288.708 150.296C288.37 150.114 287.954 149.98 287.46 149.893C286.966 149.798 286.411 149.75 285.796 149.75ZM285.796 153.13C284.851 153.13 284.128 153.022 283.625 152.805C283.122 152.588 282.871 152.272 282.871 151.856C282.871 151.44 283.122 151.124 283.625 150.907C284.128 150.69 284.851 150.582 285.796 150.582C286.715 150.582 287.425 150.69 287.928 150.907C288.439 151.124 288.695 151.44 288.695 151.856C288.695 152.272 288.439 152.588 287.928 152.805C287.425 153.022 286.715 153.13 285.796 153.13ZM295.709 148.528L296.125 149.373C296.593 149.286 297.044 149.165 297.477 149.009C297.919 148.844 298.327 148.649 298.699 148.424C299.072 148.199 299.406 147.939 299.7 147.644C299.995 147.349 300.233 147.024 300.415 146.669C300.597 147.024 300.836 147.349 301.13 147.644C301.425 147.939 301.754 148.199 302.118 148.424C302.491 148.649 302.894 148.844 303.327 149.009C303.769 149.165 304.224 149.286 304.692 149.373L305.108 148.528C304.545 148.441 304.008 148.294 303.496 148.086C302.994 147.869 302.552 147.609 302.17 147.306C301.798 147.003 301.499 146.656 301.273 146.266C301.057 145.876 300.948 145.456 300.948 145.005H304.692V144.147H300.948V142.561H299.869V144.147H296.112V145.005H299.869C299.869 145.456 299.757 145.876 299.531 146.266C299.315 146.656 299.016 147.003 298.634 147.306C298.262 147.609 297.82 147.869 297.308 148.086C296.806 148.294 296.273 148.441 295.709 148.528ZM305.706 152.493V151.609H300.948V148.957H299.869V151.609H295.124V152.493H305.706ZM316.56 149.126V142.301H315.481V145.226H313.18V146.11H315.481V149.126H316.56ZM313.297 148.749L313.83 147.917C313.406 147.77 313.02 147.575 312.673 147.332C312.327 147.081 312.028 146.799 311.776 146.487C311.534 146.166 311.343 145.824 311.204 145.46C311.066 145.087 310.996 144.715 310.996 144.342V143.913H313.557V143.042H307.33V143.913H309.93V144.355C309.93 144.771 309.857 145.174 309.709 145.564C309.571 145.954 309.371 146.318 309.111 146.656C308.851 146.985 308.539 147.284 308.175 147.553C307.82 147.813 307.426 148.021 306.992 148.177L307.551 149.009C308.236 148.758 308.834 148.381 309.345 147.878C309.857 147.375 310.238 146.786 310.489 146.11C310.741 146.708 311.109 147.241 311.594 147.709C312.08 148.168 312.647 148.515 313.297 148.749ZM316.56 149.698H308.981V153.806H316.56V149.698ZM315.52 152.948H310.021V150.543H315.52V152.948Z" fill="black"/>
<circle cx="210" cy="150" r="4.5" stroke="black"/>
</svg>
