<svg width="132" height="105" viewBox="0 0 132 105" fill="none" xmlns="http://www.w3.org/2000/svg">
<path opacity="0.3" d="M96.5406 23.2762H30.335V95.6322H96.5406V23.2762Z" fill="url(#paint0_linear_952_12386)"/>
<path d="M67.6413 1.44811C65.2748 11.1052 67.536 13.9467 68.5094 14.821C67.8226 15.9853 67.5105 17.3252 61.5657 23.4475L66.822 23.4374C69.1386 18.5866 68.404 20.8324 70.0009 15.9853C76.154 15.5977 79.1565 11.8774 79.1565 11.8774C69.8447 13.1398 70.9061 8.35749 67.6413 1.44811Z" fill="#00509F"/>
<mask id="mask0_952_12386" style="mask-type:alpha" maskUnits="userSpaceOnUse" x="37" y="33" width="61" height="61">
<rect x="37.3584" y="33.1534" width="59.8122" height="60.76" fill="#D9D9D9"/>
</mask>
<g mask="url(#mask0_952_12386)">
<path d="M39.9164 75.0016L45.9176 77.675L60.7303 86.2634L55.1096 87.2112L47.5702 83.0171C46.5945 82.4722 45.3621 82.8261 44.8159 83.7996C44.2697 84.773 44.6245 86.0026 45.6002 86.5475L53.7511 91.0886C54.1339 91.3028 54.5821 91.3843 55.0022 91.3401C55.0372 91.3191 55.0559 91.3191 55.0746 91.3168L68.5078 89.0416C75.3679 91.014 82.6202 93.0377 87.6713 94.4443L97.3185 93.8295C99.4963 89.8077 102.038 85.7045 104.249 82.2323L114.216 81.706L114.363 81.6967C114.619 81.6618 114.871 81.5733 115.103 81.4289L119.178 79.1071C120.158 78.5669 120.485 77.3303 119.925 76.3546C119.365 75.3788 118.125 75.0528 117.166 75.6094L113.518 77.6819L107.01 78.0429C108.894 75.1995 110.196 73.3482 110.229 73.2899C110.299 73.2131 110.348 73.1176 110.397 73.0221C110.852 72.072 111.464 71.2616 112.117 70.5187L120.742 74.6988C121.122 74.8781 121.512 74.9247 121.897 74.8828C122.539 74.8059 123.139 74.3984 123.447 73.7534C123.935 72.7473 123.527 71.5387 122.518 71.052L115.588 67.7033C117.313 66.6902 118.863 66.1314 119.589 65.9194L124.248 66.9464C124.491 67.0046 124.712 67.0093 124.95 66.9744C125.774 66.8672 126.475 66.2688 126.659 65.4118C126.904 64.3289 126.225 63.2484 125.121 63.0062L123.734 62.6895L128.018 58.7166C128.837 57.9458 128.884 56.6743 128.13 55.8569C127.357 55.0418 126.08 54.9743 125.263 55.7451L118.506 62.0118C117.367 62.3611 114.645 63.3625 111.944 65.3023L111.046 63.076C110.628 62.0351 109.454 61.5391 108.408 61.9373C107.383 62.3518 106.87 63.5441 107.285 64.5664L108.758 68.2459C108.056 69.1005 107.379 70.0274 106.837 71.0916C106.447 71.6319 104.909 73.8279 102.892 76.9018L102.696 75.5698L104.104 69.6268C104.365 68.5416 103.688 67.4448 102.601 67.2002C101.513 66.9394 100.414 67.6171 100.169 68.7L99.2068 72.7008L96.4455 72.214C95.3274 72.0277 94.2864 72.7753 94.0973 73.8558C93.9106 74.955 94.6412 76.0122 95.7429 76.1985L98.7657 76.7225L99.5196 82.1415C98.0607 84.4423 96.5622 86.9317 95.1337 89.4351C91.2496 77.498 93.6538 69.8154 94.6972 67.3563C94.8256 67.3307 94.9726 67.3214 95.0987 67.2934C102.052 66.3899 106.672 63.3345 109.802 59.7832L114.535 61.6718C114.876 61.8162 115.212 61.8488 115.56 61.8092C116.256 61.7091 116.891 61.2643 117.175 60.547C117.588 59.5084 117.089 58.344 116.048 57.9318L112.26 56.4065C112.81 55.5053 113.305 54.5901 113.711 53.7191L121.115 53.8169L121.391 53.7983C122.378 53.6609 123.155 52.8202 123.162 51.8072C123.165 50.7034 122.275 49.7835 121.15 49.7626L115.187 49.702C115.866 47.3407 116.036 45.671 116.032 45.6174C116.127 44.5066 115.289 43.5308 114.178 43.454C113.065 43.3422 112.084 44.1759 111.989 45.2867C111.968 45.5452 111.762 47.7855 110.705 50.5963C110.572 50.8245 110.476 51.0713 110.42 51.3322C110.357 51.5022 110.275 51.6722 110.194 51.8445L106.94 45.4078C106.914 45.2797 106.833 45.1749 106.772 45.0678L104.935 41.4489C104.428 40.4499 103.222 40.0494 102.22 40.5547C101.219 41.06 100.817 42.2826 101.324 43.263L101.494 43.603L98.7096 43.3213C97.5962 43.2095 96.6159 44.0245 96.5015 45.1377C96.3871 46.2485 97.1901 47.2475 98.3035 47.343L103.651 47.8856L107.771 56.0153C105.203 59.4176 101.046 62.4822 94.3984 63.274L92.426 60.1418L96.6322 55.5472L102.666 54.979C103.754 54.965 104.589 53.8984 104.482 52.783C104.391 51.6652 103.399 50.8641 102.297 50.9526L97.1807 51.4253L95.9203 46.7375C95.6285 45.6523 94.5175 44.9863 93.4297 45.296C92.3607 45.5848 91.7118 46.6933 92.0012 47.7808L93.4087 53.0461L90.2039 56.5812L87.4309 52.1752L88.8968 45.1051L94.186 40.9948C95.0637 40.3125 95.2224 39.0503 94.5408 38.1747C93.8569 37.2805 92.5731 37.1221 91.6954 37.8231L87.6877 40.932L85.4982 37.0034C84.9567 36.0253 83.7336 35.662 82.7532 36.2023C81.7729 36.7425 81.4274 37.9791 81.9713 38.9572L84.9333 44.29L83.3158 52.1426C83.2014 52.6642 83.2901 53.1928 83.5772 53.6353L91.0582 65.5631C90.4443 66.9278 89.5364 69.4521 89.1255 73.1036C87.613 72.242 86.5323 70.9123 85.797 69.5243L88.7451 66.3177C89.5037 65.4956 89.4406 64.2125 88.6353 63.4719C87.7927 62.6964 86.5229 62.7593 85.7643 63.5814L84.2798 65.1859C84.2308 65.0042 84.2004 64.804 84.1934 64.6945L84.4011 57.8713C84.4221 56.7651 83.5492 55.8266 82.4218 55.7894C81.313 55.7684 80.3724 56.637 80.3537 57.7618L80.2487 60.7496L78.9859 59.7436C78.0919 59.045 76.8291 59.201 76.1288 60.0906C75.4473 60.9615 75.6013 62.2237 76.4766 62.9223L80.2837 65.9008C80.4541 66.8463 80.8345 68.4438 81.5931 70.1973C80.4984 70.1205 79.518 70.9379 79.4434 72.0464C79.3477 73.1572 80.1669 74.1353 81.2803 74.2307L84.3218 74.4776C85.5099 75.7444 87.0014 76.8273 88.9224 77.4607C88.9481 79.0233 89.0578 80.7093 89.3193 82.5164C78.3977 78.2059 74.4412 62.8315 73.79 59.874C74.1424 58.7469 74.4295 57.4964 74.684 56.2458L81.3854 49.1361C82.1627 48.3141 82.1183 47.0473 81.313 46.2695C80.4891 45.5126 79.2006 45.5569 78.4397 46.3603L75.571 49.397C75.725 47.492 75.7694 45.8875 75.7881 45.0212L78.519 41.57C79.2006 40.6991 79.0466 39.4206 78.1712 38.7383C77.2959 38.0396 76.0145 38.1957 75.3329 39.0666L73.916 40.8691L72.3638 38.538C71.7523 37.6205 70.4988 37.3503 69.5605 37.9814C68.6221 38.5939 68.37 39.8607 68.9839 40.7783L71.7406 44.9095C71.7336 45.3892 71.7079 46.1274 71.6565 47.0496L69.0586 43.3678C68.4284 42.4503 67.1586 42.2198 66.2413 42.8672C65.3239 43.5145 65.1092 44.7628 65.7394 45.678L71.08 53.2883C70.9143 54.441 70.7136 55.6124 70.4521 56.7162L58.9633 50.1794C57.9876 49.6345 56.7552 49.9698 56.1903 50.9456C55.6441 51.9004 55.9802 53.1486 56.9559 53.6935L69.8989 61.0407C70.3377 63.0015 71.5819 67.7242 74.1518 72.7147L68.321 73.8418L68.132 70.9076L70.4148 69.4009C71.3344 68.7908 71.6052 67.5402 70.9727 66.6041C70.3611 65.6866 69.1076 65.4164 68.1693 66.0475L67.8495 66.2524L67.6278 62.7873C67.6091 62.2167 67.336 61.7021 66.9088 61.3434L63.8511 58.8331C62.9734 58.1158 61.7083 58.2346 60.9894 59.0892C60.2891 59.9625 60.4058 61.2247 61.2648 61.9419L63.641 63.9074L64.1592 72.2862L58.1394 68.1783L60.7139 65.7308C61.5332 64.9786 61.5613 63.6885 60.7887 62.8734C60.037 62.0747 58.7439 62.0467 57.9246 62.7989L55.0372 65.5422L51.2209 61.2573C50.4856 60.4213 49.2065 60.3374 48.3498 61.0896C47.5282 61.8232 47.4465 63.0993 48.1818 63.9353L53.3916 69.7875C53.45 69.8387 53.5247 69.8527 53.583 69.9039C53.6437 69.9738 53.6858 70.0623 53.7628 70.1135L65.2959 77.9358C65.373 77.987 65.4663 78.0173 65.562 78.0662C65.6554 78.0965 65.7534 78.164 65.8655 78.1943C66.0172 78.2409 66.1642 78.2478 66.33 78.2571C66.4047 78.2525 66.4794 78.2851 66.554 78.2804L66.8108 78.2641L76.3413 76.4221C79.4667 81.1564 83.9483 85.4343 90.2296 87.0202C90.5587 88.3988 90.9625 89.8077 91.4644 91.3028C89.492 90.7649 86.8987 90.029 83.9693 89.2232L84.7816 87.791C85.3488 86.8339 85.0104 85.6043 84.0323 85.0408C83.0567 84.4772 81.8219 84.8149 81.2757 85.7883L80.9256 86.3822L77.2236 81.2985C77.1022 81.1215 76.9248 80.9678 76.7497 80.8327L73.6033 78.6786C72.6953 78.0382 71.4185 78.2665 70.7929 79.17C70.151 80.0945 70.3798 81.3497 71.3064 81.9901L74.1635 83.9603L76.451 87.1087C74.7984 86.643 73.1247 86.1609 71.4511 85.6789L68.8509 80.5253C68.3443 79.5263 67.1376 79.1258 66.1176 79.6148C65.1349 80.1201 64.7334 81.3404 65.2212 82.3418L66.1502 84.1605C65.4733 83.9649 64.7964 83.7693 64.1382 83.5714L48.8844 74.7151L48.987 69.4265C49.008 68.3204 48.1187 67.3842 47.01 67.3633C45.8826 67.3423 44.9629 68.2296 44.9419 69.3543L44.8672 72.7823L41.5434 71.3012C40.5163 70.8331 39.3306 71.3128 38.8778 72.3188C38.4436 73.3481 38.8917 74.5521 39.9164 75.0016Z" fill="url(#paint1_linear_952_12386)"/>
</g>
<mask id="mask1_952_12386" style="mask-type:alpha" maskUnits="userSpaceOnUse" x="97" y="34" width="35" height="62">
<rect x="97.6553" y="34.0589" width="34.3446" height="61.6609" fill="#D9D9D9"/>
</mask>
<g mask="url(#mask1_952_12386)">
<path d="M39.9165 75.016L45.9176 77.6894L60.7303 86.2778L55.1096 87.2256L47.5702 83.0315C46.5945 82.4866 45.3621 82.8405 44.8159 83.814C44.2697 84.7874 44.6245 86.017 45.6002 86.5619L53.7511 91.103C54.1339 91.3172 54.5821 91.3987 55.0022 91.3545C55.0372 91.3335 55.0559 91.3335 55.0746 91.3312L68.5078 89.056C75.3679 91.0284 82.6202 93.0521 87.6713 94.4587L97.3185 93.8439C99.4963 89.8221 102.038 85.7189 104.249 82.2467L114.216 81.7204L114.363 81.7111C114.619 81.6762 114.871 81.5877 115.103 81.4433L119.178 79.1215C120.158 78.5813 120.485 77.3447 119.925 76.369C119.365 75.3932 118.125 75.0672 117.166 75.6238L113.518 77.6964L107.01 78.0573C108.894 75.2139 110.196 73.3626 110.229 73.3043C110.299 73.2275 110.348 73.132 110.397 73.0365C110.852 72.0864 111.464 71.276 112.117 70.5331L120.742 74.7132C121.122 74.8925 121.512 74.9391 121.897 74.8972C122.539 74.8203 123.139 74.4128 123.447 73.7678C123.935 72.7617 123.527 71.5531 122.518 71.0664L115.588 67.7177C117.313 66.7046 118.863 66.1458 119.589 65.9338L124.248 66.9608C124.491 67.019 124.712 67.0237 124.95 66.9888C125.774 66.8816 126.475 66.2832 126.659 65.4262C126.904 64.3433 126.225 63.2628 125.121 63.0206L123.734 62.7039L128.018 58.731C128.837 57.9602 128.884 56.6887 128.13 55.8713C127.357 55.0562 126.08 54.9887 125.263 55.7595L118.506 62.0262C117.367 62.3755 114.645 63.3769 111.944 65.3167L111.046 63.0904C110.628 62.0495 109.454 61.5535 108.408 61.9517C107.383 62.3662 106.87 63.5585 107.285 64.5808L108.758 68.2603C108.056 69.1149 107.379 70.0418 106.837 71.106C106.447 71.6463 104.909 73.8423 102.892 76.9162L102.696 75.5842L104.104 69.6412C104.365 68.556 103.688 67.4592 102.601 67.2147C101.513 66.9538 100.414 67.6315 100.169 68.7144L99.2068 72.7152L96.4455 72.2284C95.3274 72.0421 94.2864 72.7897 94.0973 73.8702C93.9106 74.9694 94.6412 76.0266 95.7429 76.2129L98.7657 76.7369L99.5196 82.1559C98.0607 84.4567 96.5622 86.9461 95.1337 89.4495C91.2496 77.5124 93.6538 69.8298 94.6972 67.3707C94.8256 67.3451 94.9726 67.3358 95.0987 67.3078C102.052 66.4043 106.672 63.3489 109.802 59.7976L114.535 61.6862C114.876 61.8306 115.212 61.8632 115.56 61.8236C116.256 61.7235 116.891 61.2787 117.175 60.5614C117.588 59.5228 117.089 58.3584 116.048 57.9462L112.26 56.4209C112.81 55.5197 113.305 54.6045 113.711 53.7335L121.115 53.8313L121.391 53.8127C122.378 53.6753 123.155 52.8346 123.162 51.8216C123.165 50.7178 122.275 49.7979 121.15 49.777L115.187 49.7164C115.866 47.3551 116.036 45.6854 116.032 45.6318C116.127 44.521 115.289 43.5452 114.178 43.4684C113.065 43.3566 112.084 44.1903 111.989 45.3011C111.968 45.5596 111.762 47.7999 110.705 50.6107C110.572 50.8389 110.476 51.0857 110.42 51.3466C110.357 51.5166 110.275 51.6866 110.194 51.8589L106.94 45.4222C106.914 45.2941 106.833 45.1894 106.772 45.0822L104.935 41.4633C104.428 40.4643 103.222 40.0638 102.22 40.5691C101.219 41.0745 100.817 42.297 101.324 43.2774L101.494 43.6174L98.7096 43.3357C97.5962 43.2239 96.6159 44.0389 96.5015 45.1521C96.3871 46.2629 97.1901 47.2619 98.3035 47.3574L103.651 47.9L107.771 56.0297C105.203 59.432 101.046 62.4966 94.3984 63.2884L92.426 60.1562L96.6322 55.5616L102.666 54.9934C103.754 54.9794 104.589 53.9128 104.482 52.7974C104.391 51.6796 103.399 50.8785 102.297 50.967L97.1807 51.4397L95.9203 46.7519C95.6285 45.6667 94.5175 45.0007 93.4297 45.3104C92.3607 45.5992 91.7118 46.7077 92.0012 47.7952L93.4087 53.0605L90.2039 56.5956L87.4309 52.1896L88.8968 45.1195L94.186 41.0092C95.0637 40.3269 95.2224 39.0647 94.5408 38.1891C93.8569 37.2949 92.5731 37.1365 91.6954 37.8375L87.6877 40.9464L85.4982 37.0178C84.9567 36.0397 83.7336 35.6764 82.7532 36.2167C81.7729 36.7569 81.4274 37.9935 81.9713 38.9716L84.9333 44.3044L83.3158 52.157C83.2014 52.6786 83.2901 53.2072 83.5772 53.6497L91.0582 65.5775C90.4443 66.9422 89.5364 69.4665 89.1255 73.118C87.613 72.2564 86.5323 70.9267 85.797 69.5387L88.7451 66.3321C89.5037 65.51 89.4406 64.2269 88.6353 63.4863C87.7927 62.7108 86.5229 62.7737 85.7643 63.5958L84.2798 65.2003C84.2308 65.0186 84.2004 64.8184 84.1934 64.7089L84.4011 57.8857C84.4221 56.7795 83.5492 55.841 82.4218 55.8038C81.313 55.7828 80.3724 56.6514 80.3537 57.7762L80.2487 60.764L78.9859 59.758C78.0919 59.0594 76.8291 59.2154 76.1288 60.105C75.4473 60.9759 75.6013 62.2381 76.4766 62.9367L80.2837 65.9152C80.4541 66.8607 80.8345 68.4582 81.5932 70.2118C80.4984 70.1349 79.5181 70.9523 79.4434 72.0608C79.3477 73.1716 80.1669 74.1497 81.2803 74.2451L84.3218 74.492C85.5099 75.7588 87.0014 76.8417 88.9224 77.4751C88.9481 79.0377 89.0578 80.7237 89.3193 82.5308C78.3977 78.2203 74.4412 62.8459 73.79 59.8884C74.1425 58.7613 74.4295 57.5108 74.684 56.2602L81.3854 49.1505C82.1627 48.3285 82.1183 47.0617 81.313 46.2839C80.4891 45.527 79.2006 45.5713 78.4397 46.3747L75.571 49.4114C75.725 47.5064 75.7694 45.9019 75.7881 45.0357L78.519 41.5844C79.2006 40.7135 79.0466 39.435 78.1712 38.7527C77.2959 38.0541 76.0145 38.2101 75.3329 39.081L73.916 40.8835L72.3638 38.5524C71.7523 37.6349 70.4988 37.3647 69.5605 37.9958C68.6221 38.6083 68.37 39.8751 68.9839 40.7927L71.7406 44.9239C71.7336 45.4036 71.7079 46.1418 71.6566 47.064L69.0586 43.3822C68.4284 42.4647 67.1586 42.2342 66.2413 42.8816C65.3239 43.5289 65.1092 44.7772 65.7394 45.6924L71.08 53.3027C70.9143 54.4554 70.7136 55.6268 70.4521 56.7306L58.9633 50.1938C57.9876 49.6489 56.7552 49.9842 56.1903 50.96C55.6441 51.9148 55.9802 53.163 56.9559 53.7079L69.8989 61.0551C70.3377 63.0159 71.5819 67.7386 74.1518 72.7291L68.321 73.8562L68.132 70.922L70.4148 69.4153C71.3344 68.8052 71.6052 67.5546 70.9727 66.6185C70.3611 65.701 69.1076 65.4308 68.1693 66.0619L67.8495 66.2668L67.6278 62.8017C67.6091 62.2311 67.336 61.7165 66.9088 61.3578L63.8511 58.8475C62.9734 58.1302 61.7083 58.249 60.9894 59.1036C60.2891 59.9769 60.4058 61.2391 61.2648 61.9563L63.641 63.9218L64.1592 72.3006L58.1394 68.1927L60.7139 65.7452C61.5332 64.993 61.5613 63.7029 60.7887 62.8878C60.037 62.0891 58.7439 62.0611 57.9246 62.8133L55.0372 65.5566L51.2209 61.2717C50.4856 60.4357 49.2065 60.3518 48.3498 61.104C47.5282 61.8376 47.4465 63.1137 48.1818 63.9497L53.3916 69.8019C53.45 69.8531 53.5247 69.8671 53.5831 69.9183C53.6437 69.9882 53.6858 70.0767 53.7628 70.1279L65.2959 77.9502C65.373 78.0014 65.4663 78.0317 65.562 78.0806C65.6554 78.1109 65.7534 78.1784 65.8655 78.2087C66.0172 78.2553 66.1642 78.2622 66.33 78.2715C66.4047 78.2669 66.4794 78.2995 66.5541 78.2948L66.8108 78.2785L76.3413 76.4365C79.4667 81.1708 83.9483 85.4487 90.2296 87.0346C90.5587 88.4132 90.9625 89.8221 91.4644 91.3172C89.492 90.7793 86.8987 90.0434 83.9693 89.2376L84.7816 87.8054C85.3488 86.8483 85.0104 85.6187 84.0324 85.0552C83.0567 84.4916 81.8219 84.8293 81.2757 85.8027L80.9256 86.3966L77.2236 81.3129C77.1022 81.1359 76.9248 80.9822 76.7497 80.8471L73.6033 78.693C72.6953 78.0526 71.4185 78.2809 70.7929 79.1844C70.151 80.1089 70.3798 81.3641 71.3064 82.0045L74.1635 83.9746L76.451 87.1231C74.7984 86.6574 73.1247 86.1753 71.4511 85.6933L68.8509 80.5397C68.3443 79.5407 67.1376 79.1402 66.1176 79.6292C65.1349 80.1345 64.7334 81.3548 65.2212 82.3562L66.1502 84.1749C65.4733 83.9793 64.7964 83.7837 64.1382 83.5858L48.8844 74.7295L48.987 69.4409C49.008 68.3348 48.1187 67.3986 47.01 67.3777C45.8826 67.3567 44.9629 68.244 44.9419 69.3687L44.8672 72.7967L41.5434 71.3156C40.5163 70.8475 39.3306 71.3272 38.8778 72.3332C38.4436 73.3625 38.8917 74.5665 39.9165 75.016Z" fill="#0663C0"/>
</g>
<path d="M27.8721 18.5929V105H99.1294V18.5929H27.8721ZM94.209 89.0045H32.7925V23.9067H94.209V89.0045Z" fill="url(#paint2_linear_952_12386)"/>
<mask id="mask2_952_12386" style="mask-type:alpha" maskUnits="userSpaceOnUse" x="27" y="40" width="6" height="12">
<rect x="27.8564" y="40.8646" width="4.99436" height="11.0184" fill="#D9D9D9"/>
</mask>
<g mask="url(#mask2_952_12386)">
<path d="M34.0478 41.3655L27.0557 39.863V45.2263C30.0062 50.3751 32.6135 50.2321 34.0478 49.517V41.3655Z" fill="url(#paint3_linear_952_12386)"/>
</g>
<path d="M66.4639 23.8612C61.0739 35.5723 47.6562 41.4258 42.2465 42.4983C44.3965 46.2758 43.6649 47.5107 43.6649 47.5107C40.8916 46.708 38.4687 44.5627 36.9721 42.9831C24.878 42.7816 16.7993 33.7446 16.7993 33.7446C16.7993 33.7446 19.6939 33.7361 24.3137 33.3639C29.265 32.965 36.2088 32.1471 43.7001 30.4613C43.3192 28.2264 43.4035 23.9505 48.097 20.041C48.097 20.041 47.207 25.2581 51.1666 28.5154C53.9224 27.6942 58.8281 26.1133 61.5231 23.8612L63.3197 23.8612L66.4639 23.8612Z" fill="url(#paint4_linear_952_12386)"/>
<path d="M30.1683 37.1427C30.7483 37.1427 31.2185 36.6712 31.2185 36.0896C31.2185 35.508 30.7483 35.0366 30.1683 35.0366C29.5884 35.0366 29.1182 35.508 29.1182 36.0896C29.1182 36.6712 29.5884 37.1427 30.1683 37.1427Z" fill="#E6F4FF"/>
<mask id="mask3_952_12386" style="mask-type:alpha" maskUnits="userSpaceOnUse" x="94" y="53" width="6" height="6">
<rect x="94.2256" y="53.9198" width="4.89015" height="4.84188" fill="#D9D9D9"/>
</mask>
<g mask="url(#mask3_952_12386)">
<path d="M100.433 53.9613L96.3526 54.2143L94.1754 55.4559L93.3955 59.4789L100.204 56.4674L100.433 53.9613Z" fill="url(#paint5_linear_952_12386)"/>
</g>
<mask id="mask4_952_12386" style="mask-type:alpha" maskUnits="userSpaceOnUse" x="89" y="44" width="17" height="18">
<path d="M95.1509 44.3067L98.1697 50.5209L104.049 49.7244L105.876 54.0266L92.2112 61.2766L89.4307 58.0898L90.6223 45.4222L95.1509 44.3067Z" fill="#D9D9D9"/>
</mask>
<g mask="url(#mask4_952_12386)">
<path d="M39.9106 75.0055L45.9117 77.6789L60.7244 86.2673L55.1037 87.2151L47.5644 83.021C46.5887 82.4761 45.3562 82.83 44.81 83.8035C44.2638 84.7769 44.6186 86.0065 45.5943 86.5514L53.7452 91.0925C54.1281 91.3067 54.5762 91.3882 54.9964 91.344C55.0314 91.323 55.0501 91.323 55.0687 91.3207L68.5019 89.0455C75.362 91.0179 82.6143 93.0416 87.6655 94.4482L97.3126 93.8334C99.4904 89.8116 102.032 85.7084 104.243 82.2362L114.21 81.7099L114.357 81.7006C114.614 81.6657 114.866 81.5772 115.097 81.4328L119.172 79.111C120.153 78.5708 120.479 77.3342 119.919 76.3585C119.359 75.3827 118.119 75.0567 117.16 75.6133L113.512 77.6859L107.004 78.0468C108.888 75.2034 110.19 73.3521 110.223 73.2938C110.293 73.217 110.342 73.1215 110.391 73.026C110.846 72.0759 111.458 71.2655 112.111 70.5226L120.736 74.7027C121.117 74.882 121.506 74.9286 121.891 74.8867C122.533 74.8098 123.133 74.4023 123.441 73.7573C123.929 72.7512 123.521 71.5426 122.512 71.0559L115.582 67.7072C117.307 66.6941 118.857 66.1353 119.583 65.9233L124.242 66.9503C124.485 67.0085 124.707 67.0132 124.945 66.9783C125.769 66.8711 126.469 66.2727 126.653 65.4157C126.898 64.3328 126.219 63.2523 125.115 63.0101L123.728 62.6934L128.012 58.7205C128.831 57.9497 128.878 56.6782 128.124 55.8608C127.351 55.0458 126.074 54.9782 125.257 55.749L118.5 62.0157C117.361 62.365 114.639 63.3664 111.939 65.3062L111.04 63.0799C110.622 62.039 109.448 61.543 108.402 61.9412C107.378 62.3557 106.864 63.548 107.28 64.5703L108.752 68.2498C108.05 69.1044 107.373 70.0313 106.831 71.0955C106.442 71.6358 104.903 73.8318 102.887 76.9057L102.691 75.5737L104.098 69.6307C104.359 68.5455 103.683 67.4487 102.595 67.2042C101.507 66.9433 100.408 67.621 100.163 68.7039L99.201 72.7047L96.4396 72.2179C95.3216 72.0316 94.2805 72.7792 94.0915 73.8597C93.9047 74.9589 94.6353 76.0161 95.7371 76.2024L98.7598 76.7264L99.5137 82.1454C98.0549 84.4462 96.5564 86.9356 95.1278 89.439C91.2438 77.5019 93.648 69.8193 94.6914 67.3602C94.8197 67.3346 94.9668 67.3253 95.0928 67.2973C102.046 66.3938 106.666 63.3384 109.796 59.7871L114.53 61.6757C114.87 61.8201 115.206 61.8527 115.554 61.8131C116.25 61.713 116.885 61.2682 117.169 60.5509C117.583 59.5123 117.083 58.3479 116.042 57.9357L112.254 56.4104C112.805 55.5092 113.299 54.594 113.706 53.723L121.11 53.8208L121.385 53.8022C122.372 53.6648 123.15 52.8241 123.157 51.8111C123.159 50.7073 122.27 49.7874 121.145 49.7665L115.181 49.7059C115.86 47.3446 116.03 45.6749 116.026 45.6213C116.121 44.5105 115.283 43.5347 114.172 43.4579C113.059 43.3461 112.079 44.1798 111.983 45.2906C111.962 45.5491 111.756 47.7894 110.699 50.6002C110.566 50.8284 110.47 51.0752 110.414 51.3361C110.351 51.5061 110.27 51.6761 110.188 51.8484L106.934 45.4117C106.908 45.2836 106.827 45.1789 106.766 45.0717L104.929 41.4528C104.423 40.4538 103.216 40.0533 102.214 40.5586C101.213 41.064 100.812 42.2865 101.318 43.2669L101.488 43.6069L98.7038 43.3252C97.5904 43.2134 96.61 44.0284 96.4957 45.1416C96.3813 46.2524 97.1842 47.2514 98.2976 47.3469L103.645 47.8895L107.765 56.0192C105.197 59.4215 101.04 62.4861 94.3926 63.2779L92.4202 60.1457L96.6264 55.5511L102.66 54.9829C103.748 54.9689 104.584 53.9023 104.476 52.7869C104.385 51.6691 103.393 50.868 102.291 50.9565L97.1749 51.4292L95.9145 46.7414C95.6227 45.6562 94.5116 44.9902 93.4239 45.2999C92.3548 45.5887 91.7059 46.6972 91.9954 47.7847L93.4029 53.05L90.1981 56.5851L87.4251 52.1791L88.8909 45.109L94.1802 40.9987C95.0578 40.3164 95.2165 39.0542 94.535 38.1786C93.851 37.2844 92.5672 37.126 91.6896 37.827L87.6818 40.9359L85.4924 37.0073C84.9508 36.0292 83.7277 35.6659 82.7474 36.2062C81.767 36.7465 81.4216 37.983 81.9654 38.9611L84.9275 44.2939L83.3099 52.1465C83.1955 52.6681 83.2842 53.1967 83.5713 53.6392L91.0524 65.567C90.4385 66.9317 89.5305 69.456 89.1197 73.1075C87.6071 72.2459 86.5264 70.9162 85.7911 69.5282L88.7392 66.3216C89.4978 65.4995 89.4348 64.2164 88.6295 63.4758C87.7868 62.7004 86.5171 62.7632 85.7585 63.5853L84.2739 65.1898C84.2249 65.0081 84.1946 64.8079 84.1876 64.6984L84.3953 57.8752C84.4163 56.769 83.5433 55.8305 82.4159 55.7933C81.3072 55.7723 80.3665 56.6409 80.3478 57.7657L80.2428 60.7535L78.98 59.7475C78.086 59.0489 76.8232 59.2049 76.123 60.0945C75.4414 60.9654 75.5955 62.2276 76.4708 62.9262L80.2778 65.9047C80.4482 66.8502 80.8287 68.4477 81.5873 70.2013C80.4926 70.1244 79.5122 70.9418 79.4375 72.0503C79.3418 73.1611 80.1611 74.1392 81.2745 74.2346L84.3159 74.4815C85.504 75.7483 86.9956 76.8312 88.9166 77.4646C88.9423 79.0272 89.052 80.7132 89.3134 82.5203C78.3918 78.2098 74.4354 62.8354 73.7841 59.8779C74.1366 58.7508 74.4237 57.5003 74.6781 56.2497L81.3795 49.14C82.1568 48.318 82.1125 47.0512 81.3072 46.2734C80.4832 45.5165 79.1948 45.5608 78.4338 46.3642L75.5651 49.4009C75.7192 47.4959 75.7635 45.8914 75.7822 45.0252L78.5132 41.5739C79.1947 40.703 79.0407 39.4245 78.1654 38.7422C77.2901 38.0436 76.0086 38.1996 75.327 39.0705L73.9102 40.873L72.358 38.5419C71.7464 37.6244 70.4929 37.3542 69.5546 37.9853C68.6163 38.5978 68.3642 39.8646 68.9781 40.7822L71.7347 44.9134C71.7277 45.3931 71.702 46.1313 71.6507 47.0535L69.0528 43.3717C68.4225 42.4542 67.1527 42.2237 66.2354 42.8711C65.3181 43.5185 65.1033 44.7667 65.7336 45.6819L71.0742 53.2922C70.9084 54.4449 70.7077 55.6163 70.4463 56.7201L58.9575 50.1833C57.9818 49.6384 56.7493 49.9737 56.1844 50.9495C55.6382 51.9043 55.9744 53.1525 56.9501 53.6974L69.8931 61.0446C70.3319 63.0054 71.576 67.7281 74.1459 72.7186L68.3152 73.8457L68.1261 70.9115L70.4089 69.4048C71.3286 68.7947 71.5994 67.5441 70.9668 66.608C70.3552 65.6905 69.1018 65.4203 68.1634 66.0514L67.8437 66.2563L67.6219 62.7912C67.6032 62.2206 67.3301 61.706 66.903 61.3473L63.8452 58.837C62.9676 58.1197 61.7025 58.2385 60.9835 59.0931C60.2833 59.9664 60.4 61.2286 61.2589 61.9458L63.6351 63.9113L64.1533 72.2901L58.1335 68.1822L60.7081 65.7347C61.5274 64.9825 61.5554 63.6924 60.7828 62.8773C60.0312 62.0786 58.738 62.0506 57.9187 62.8028L55.0314 65.5461L51.215 61.2612C50.4797 60.4252 49.2006 60.3413 48.344 61.0935C47.5223 61.8271 47.4406 63.1032 48.1759 63.9392L53.3858 69.7914C53.4441 69.8426 53.5188 69.8566 53.5772 69.9078C53.6379 69.9777 53.6799 70.0662 53.7569 70.1174L65.2901 77.9397C65.3671 77.9909 65.4605 78.0212 65.5562 78.0701C65.6495 78.1004 65.7476 78.1679 65.8596 78.1982C66.0113 78.2448 66.1584 78.2517 66.3241 78.261C66.3988 78.2564 66.4735 78.289 66.5482 78.2843L66.8049 78.268L76.3354 76.426C79.4609 81.1603 83.9425 85.4383 90.2237 87.0241C90.5529 88.4028 90.9566 89.8116 91.4585 91.3067C89.4861 90.7688 86.8929 90.0329 83.9635 89.2271L84.7758 87.7949C85.343 86.8378 85.0045 85.6082 84.0265 85.0447C83.0508 84.4811 81.816 84.8188 81.2698 85.7922L80.9197 86.3861L77.2177 81.3024C77.0963 81.1254 76.9189 80.9717 76.7439 80.8366L73.5974 78.6825C72.6894 78.0421 71.4126 78.2704 70.7871 79.1739C70.1452 80.0984 70.3739 81.3536 71.3006 81.994L74.1576 83.9641L76.4451 87.1126C74.7925 86.6469 73.1189 86.1648 71.4453 85.6828L68.845 80.5292C68.3385 79.5302 67.1317 79.1297 66.1117 79.6187C65.129 80.1241 64.7275 81.3443 65.2154 82.3457L66.1444 84.1644C65.4675 83.9688 64.7906 83.7732 64.1323 83.5753L48.8785 74.719L48.9812 69.4304C49.0022 68.3243 48.1129 67.3881 47.0041 67.3672C45.8767 67.3462 44.9571 68.2335 44.9361 69.3582L44.8614 72.7862L41.5375 71.3051C40.5105 70.837 39.3247 71.3167 38.8719 72.3227C38.4377 73.352 38.8859 74.556 39.9106 75.0055Z" fill="url(#paint6_linear_952_12386)"/>
</g>
<mask id="mask5_952_12386" style="mask-type:alpha" maskUnits="userSpaceOnUse" x="47" y="88" width="27" height="12">
<rect x="47.0342" y="88.9452" width="25.9707" height="11.0184" fill="#D9D9D9"/>
</mask>
<g mask="url(#mask5_952_12386)">
<g filter="url(#filter0_f_952_12386)">
<path d="M52.3859 93.5272L51.5291 89.446L50.5303 86.441L62.5167 87.9435L72.5055 85.9402L67.2783 91.6052L59.5202 95.4561L58.3203 96.158C55.9628 97.5371 52.9471 96.2001 52.3859 93.5272Z" fill="url(#paint7_linear_952_12386)"/>
</g>
</g>
<mask id="mask6_952_12386" style="mask-type:alpha" maskUnits="userSpaceOnUse" x="47" y="88" width="22" height="5">
<rect x="47.4131" y="88.3304" width="21.1354" height="3.868" fill="#D9D9D9"/>
</mask>
<g mask="url(#mask6_952_12386)">
<path d="M39.9145 75.0023L45.9156 77.6757L60.7283 86.2641L55.1076 87.2119L47.5683 83.0179C46.5926 82.4729 45.3601 82.8269 44.8139 83.8003C44.2677 84.7737 44.6225 86.0033 45.5982 86.5483L53.7492 91.0893C54.132 91.3036 54.5801 91.3851 55.0003 91.3408C55.0353 91.3199 55.054 91.3199 55.0726 91.3175L68.5058 89.0423C75.3659 91.0148 82.6182 93.0385 87.6694 94.445L97.3165 93.8302C99.4943 89.8085 102.036 85.7052 104.247 82.2331L114.214 81.7068L114.361 81.6975C114.617 81.6625 114.87 81.574 115.101 81.4297L119.176 79.1079C120.156 78.5676 120.483 77.3311 119.923 76.3553C119.363 75.3796 118.123 75.0535 117.164 75.6101L113.516 77.6827L107.008 78.0437C108.892 75.2003 110.194 73.3489 110.227 73.2907C110.297 73.2138 110.346 73.1184 110.395 73.0229C110.85 72.0728 111.462 71.2623 112.115 70.5195L120.74 74.6996C121.12 74.8789 121.51 74.9255 121.895 74.8836C122.537 74.8067 123.137 74.3992 123.445 73.7541C123.933 72.7481 123.525 71.5395 122.516 71.0528L115.586 67.704C117.311 66.691 118.861 66.1321 119.587 65.9202L124.246 66.9472C124.489 67.0054 124.71 67.01 124.948 66.9751C125.772 66.868 126.473 66.2695 126.657 65.4125C126.902 64.3297 126.223 63.2491 125.119 63.0069L123.732 62.6902L128.016 58.7174C128.835 57.9466 128.882 56.6751 128.128 55.8577C127.355 55.0426 126.078 54.9751 125.261 55.7459L118.504 62.0126C117.365 62.3619 114.643 63.3632 111.942 65.3031L111.044 63.0768C110.626 62.0358 109.452 61.5398 108.406 61.938C107.381 62.3526 106.868 63.5449 107.283 64.5672L108.756 68.2466C108.054 69.1013 107.377 70.0281 106.835 71.0924C106.445 71.6326 104.907 73.8286 102.891 76.9026L102.694 75.5705L104.102 69.6276C104.363 68.5424 103.686 67.4455 102.599 67.201C101.511 66.9402 100.412 67.6179 100.167 68.7007L99.2049 72.7015L96.4436 72.2148C95.3255 72.0285 94.2844 72.776 94.0954 73.8566C93.9086 74.9557 94.6392 76.013 95.741 76.1993L98.7637 76.7233L99.5176 82.1423C98.0588 84.4431 96.5603 86.9325 95.1317 89.4359C91.2477 77.4987 93.6519 69.8162 94.6953 67.357C94.8236 67.3314 94.9707 67.3221 95.0967 67.2942C102.05 66.3906 106.67 63.3353 109.8 59.784L114.533 61.6726C114.874 61.8169 115.21 61.8495 115.558 61.81C116.254 61.7098 116.889 61.265 117.173 60.5478C117.586 59.5092 117.087 58.3448 116.046 57.9326L112.258 56.4073C112.808 55.506 113.303 54.5908 113.709 53.7199L121.113 53.8177L121.389 53.7991C122.376 53.6617 123.154 52.821 123.161 51.808C123.163 50.7042 122.274 49.7843 121.148 49.7633L115.185 49.7028C115.864 47.3414 116.034 45.6717 116.03 45.6182C116.125 44.5074 115.287 43.5316 114.176 43.4548C113.063 43.343 112.083 44.1767 111.987 45.2875C111.966 45.546 111.76 47.7862 110.703 50.597C110.57 50.8253 110.474 51.0721 110.418 51.3329C110.355 51.5029 110.274 51.6729 110.192 51.8452L106.938 45.4086C106.912 45.2805 106.831 45.1757 106.77 45.0686L104.933 41.4497C104.426 40.4507 103.22 40.0501 102.218 40.5555C101.217 41.0608 100.815 42.2834 101.322 43.2638L101.492 43.6038L98.7077 43.322C97.5943 43.2102 96.6139 44.0253 96.4996 45.1384C96.3852 46.2493 97.1881 47.2483 98.3015 47.3438L103.649 47.8864L107.769 56.016C105.201 59.4183 101.044 62.483 94.3965 63.2747L92.4241 60.1426L96.6303 55.548L102.664 54.9797C103.752 54.9658 104.587 53.8992 104.48 52.7837C104.389 51.6659 103.397 50.8648 102.295 50.9533L97.1788 51.4261L95.9184 46.7383C95.6266 45.6531 94.5155 44.9871 93.4278 45.2968C92.3587 45.5856 91.7098 46.694 91.9993 47.7816L93.4068 53.0469L90.202 56.5819L87.429 52.1759L88.8948 45.1058L94.1841 40.9956C95.0617 40.3133 95.2204 39.0511 94.5389 38.1755C93.8549 37.2812 92.5711 37.1229 91.6935 37.8238L87.6857 40.9327L85.4963 37.0041C84.9547 36.0261 83.7316 35.6628 82.7513 36.203C81.7709 36.7433 81.4255 37.9799 81.9693 38.9579L84.9314 44.2908L83.3138 52.1433C83.1994 52.665 83.2881 53.1936 83.5752 53.636L91.0563 65.5639C90.4424 66.9285 89.5344 69.4529 89.1236 73.1044C87.611 72.2427 86.5303 70.913 85.795 69.5251L88.7431 66.3184C89.5017 65.4964 89.4387 64.2132 88.6334 63.4727C87.7907 62.6972 86.521 62.7601 85.7624 63.5821L84.2778 65.1866C84.2288 65.005 84.1985 64.8047 84.1915 64.6953L84.3992 57.872C84.4202 56.7659 83.5472 55.8274 82.4198 55.7901C81.3111 55.7692 80.3704 56.6378 80.3517 57.7626L80.2467 60.7504L78.9839 59.7444C78.0899 59.0457 76.8271 59.2018 76.1269 60.0913C75.4453 60.9623 75.5994 62.2245 76.4747 62.9231L80.2817 65.9016C80.4521 66.847 80.8326 68.4446 81.5912 70.1981C80.4965 70.1213 79.5161 70.9387 79.4414 72.0471C79.3457 73.158 80.165 74.136 81.2784 74.2315L84.3198 74.4784C85.5079 75.7452 86.9995 76.8281 88.9205 77.4615C88.9462 79.0241 89.0559 80.7101 89.3173 82.5172C78.3957 78.2067 74.4393 62.8323 73.788 59.8748C74.1405 58.7477 74.4276 57.4971 74.682 56.2466L81.3834 49.1369C82.1607 48.3149 82.1164 47.048 81.3111 46.2702C80.4871 45.5134 79.1987 45.5576 78.4377 46.361L75.569 49.3977C75.7231 47.4928 75.7674 45.8883 75.7861 45.022L78.5171 41.5708C79.1987 40.6998 79.0446 39.4214 78.1693 38.739C77.294 38.0404 76.0125 38.1964 75.3309 39.0674L73.9141 40.8698L72.3619 38.5388C71.7503 37.6212 70.4969 37.3511 69.5585 37.9822C68.6202 38.5947 68.3681 39.8615 68.982 40.779L71.7386 44.9102C71.7316 45.3899 71.7059 46.1282 71.6546 47.0503L69.0567 43.3686C68.4264 42.4511 67.1567 42.2205 66.2393 42.8679C65.322 43.5153 65.1072 44.7635 65.7375 45.6787L71.0781 53.2891C70.9123 54.4418 70.7116 55.6132 70.4502 56.717L58.9613 50.1802C57.9857 49.6353 56.7532 49.9706 56.1883 50.9463C55.6422 51.9011 55.9783 53.1493 56.954 53.6943L69.897 61.0415C70.3358 63.0023 71.5799 67.725 74.1498 72.7155L68.3191 73.8426L68.13 70.9084L70.4128 69.4017C71.3325 68.7915 71.6033 67.541 70.9707 66.6049C70.3591 65.6873 69.1057 65.4172 68.1674 66.0483L67.8476 66.2532L67.6258 62.788C67.6071 62.2175 67.334 61.7028 66.9069 61.3442L63.8491 58.8338C62.9715 58.1166 61.7064 58.2353 60.9874 59.09C60.2872 59.9633 60.4039 61.2254 61.2628 61.9427L63.639 63.9082L64.1572 72.287L58.1374 68.1791L60.712 65.7316C61.5313 64.9794 61.5593 63.6893 60.7867 62.8742C60.0351 62.0754 58.742 62.0475 57.9227 62.7997L55.0353 65.5429L51.2189 61.258C50.4836 60.422 49.2045 60.3382 48.3479 61.0904C47.5262 61.8239 47.4445 63.1001 48.1798 63.9361L53.3897 69.7882C53.448 69.8395 53.5227 69.8535 53.5811 69.9047C53.6418 69.9745 53.6838 70.063 53.7608 70.1143L65.294 77.9365C65.371 77.9878 65.4644 78.018 65.5601 78.067C65.6534 78.0972 65.7515 78.1648 65.8635 78.195C66.0152 78.2416 66.1623 78.2486 66.328 78.2579C66.4027 78.2533 66.4774 78.2859 66.5521 78.2812L66.8088 78.2649L76.3393 76.4229C79.4648 81.1572 83.9464 85.4351 90.2276 87.021C90.5568 88.3996 90.9606 89.8085 91.4624 91.3036C89.49 90.7656 86.8968 90.0297 83.9674 89.224L84.7797 87.7918C85.3469 86.8347 85.0084 85.6051 84.0304 85.0416C83.0547 84.478 81.82 84.8157 81.2738 85.7891L80.9236 86.3829L77.2216 81.2993C77.1002 81.1223 76.9228 80.9686 76.7478 80.8335L73.6013 78.6794C72.6933 78.039 71.4165 78.2672 70.791 79.1708C70.1491 80.0953 70.3778 81.3505 71.3045 81.9909L74.1615 83.961L76.449 87.1095C74.7964 86.6437 73.1228 86.1617 71.4492 85.6796L68.8489 80.5261C68.3424 79.5271 67.1356 79.1265 66.1156 79.6156C65.1329 80.1209 64.7314 81.3412 65.2193 82.3425L66.1483 84.1613C65.4714 83.9657 64.7945 83.7701 64.1362 83.5721L48.8824 74.7159L48.9851 69.4273C49.0061 68.3211 48.1168 67.385 47.008 67.364C45.8806 67.3431 44.961 68.2303 44.94 69.3551L44.8653 72.783L41.5414 71.3019C40.5144 70.8339 39.3286 71.3136 38.8758 72.3196C38.4416 73.3489 38.8898 74.5529 39.9145 75.0023Z" fill="#A736F2"/>
</g>
<path d="M20.6777 57.661L19.2535 52.05C17.9448 52.9637 16.5769 55.2453 16.1332 56.0301C4.03291 53.9357 7.39385e-05 60.5878 7.39385e-05 60.5878C9.08165 61.7295 14.7612 57.7918 16.3275 56.5212C18.3346 57.7365 20.6777 57.661 20.6777 57.661Z" fill="url(#paint8_linear_952_12386)"/>
<path d="M56.5225 26.8413C58.5202 26.04 60.6844 24.5041 61.5168 23.8363H66.5112L66.5112 23.8363C66.1116 24.6376 65.5123 25.8396 64.8131 26.8413H56.5225Z" fill="url(#paint9_linear_952_12386)"/>
<rect x="59.0205" y="22.8346" width="8.98985" height="1.07179" fill="#FEFEFF"/>
<defs>
<filter id="filter0_f_952_12386" x="47.5303" y="82.9402" width="27.9756" height="16.7681" filterUnits="userSpaceOnUse" color-interpolation-filters="sRGB">
<feFlood flood-opacity="0" result="BackgroundImageFix"/>
<feBlend mode="normal" in="SourceGraphic" in2="BackgroundImageFix" result="shape"/>
<feGaussianBlur stdDeviation="1.5" result="effect1_foregroundBlur_952_12386"/>
</filter>
<linearGradient id="paint0_linear_952_12386" x1="30.3336" y1="59.4575" x2="96.5357" y2="59.4575" gradientUnits="userSpaceOnUse">
<stop stop-color="#E4F3FF"/>
<stop offset="0.1027" stop-color="#DEEFFD"/>
<stop offset="0.2358" stop-color="#CEE5F7"/>
<stop offset="0.3858" stop-color="#B3D3ED"/>
<stop offset="0.5482" stop-color="#8EBBE0"/>
<stop offset="0.7205" stop-color="#5E9BCE"/>
<stop offset="0.8984" stop-color="#2476B9"/>
<stop offset="1" stop-color="#005EAC"/>
</linearGradient>
<linearGradient id="paint1_linear_952_12386" x1="83.6888" y1="35.9517" x2="83.6888" y2="94.4443" gradientUnits="userSpaceOnUse">
<stop stop-color="#F83B3B"/>
<stop offset="0.573871" stop-color="#FA45D2"/>
<stop offset="1" stop-color="#8831FF"/>
</linearGradient>
<linearGradient id="paint2_linear_952_12386" x1="63.5007" y1="18.5929" x2="63.5007" y2="105" gradientUnits="userSpaceOnUse">
<stop stop-color="white"/>
<stop offset="1" stop-color="#E4F3FF"/>
</linearGradient>
<linearGradient id="paint3_linear_952_12386" x1="31.9732" y1="40.9356" x2="28.3955" y2="47.4994" gradientUnits="userSpaceOnUse">
<stop stop-color="#6F8BD5"/>
<stop offset="1" stop-color="#D9D9D9" stop-opacity="0"/>
</linearGradient>
<linearGradient id="paint4_linear_952_12386" x1="35.6906" y1="23.7217" x2="45.8026" y2="61.4612" gradientUnits="userSpaceOnUse">
<stop stop-color="#00C5D1"/>
<stop offset="0.322409" stop-color="#00DBCE"/>
<stop offset="0.679873" stop-color="#F4FBA9"/>
</linearGradient>
<linearGradient id="paint5_linear_952_12386" x1="95.9924" y1="55.2956" x2="96.9192" y2="57.7369" gradientUnits="userSpaceOnUse">
<stop stop-color="#7383AC"/>
<stop offset="1" stop-color="#D9D9D9" stop-opacity="0"/>
</linearGradient>
<linearGradient id="paint6_linear_952_12386" x1="97.9762" y1="46.3738" x2="89.4516" y2="59.8749" gradientUnits="userSpaceOnUse">
<stop stop-color="#F83C4D"/>
<stop offset="1" stop-color="#F942B2"/>
</linearGradient>
<linearGradient id="paint7_linear_952_12386" x1="55.5246" y1="87.9435" x2="55.097" y2="97.697" gradientUnits="userSpaceOnUse">
<stop stop-color="#6F8BD5"/>
<stop offset="1" stop-color="#D9D9D9" stop-opacity="0"/>
</linearGradient>
<linearGradient id="paint8_linear_952_12386" x1="10.0741" y1="51.3824" x2="8.91785" y2="63.4928" gradientUnits="userSpaceOnUse">
<stop stop-color="#FFE39A"/>
<stop offset="0.892834" stop-color="#D19700"/>
</linearGradient>
<linearGradient id="paint9_linear_952_12386" x1="62.5157" y1="24.838" x2="62.4915" y2="26.5335" gradientUnits="userSpaceOnUse">
<stop stop-color="#6F8BD5" stop-opacity="0.47"/>
<stop offset="1" stop-color="#D9D9D9" stop-opacity="0"/>
</linearGradient>
</defs>
</svg>
