<svg width="350" height="60" viewBox="0 0 350 60" fill="none" xmlns="http://www.w3.org/2000/svg">
    <path fill="#fff" d="M0 0h350v60H0z"/>
    <path d="M82.528 19.586V15.99H70.189V38h3.814v-9.269h7.316v-3.596h-7.317v-5.549h8.526zM85.411 20.113a1.945 1.945 0 0 0 1.953-1.953 1.945 1.945 0 0 0-1.953-1.953 1.945 1.945 0 0 0-1.953 1.953c0 1.085.868 1.953 1.953 1.953zm1.922 2.201H83.52V38h3.813V22.314zM93.905 14.75h-3.813V38h3.813V14.75zM115.869 22.004c-2.387 0-4.309 1.333-5.766 3.069-.744-1.891-2.294-3.069-4.588-3.069-2.108 0-3.875 1.054-5.239 2.511l-.186-2.201h-3.596V38h3.813v-6.758c.124-3.224 1.488-5.642 3.751-5.642 1.829 0 2.79 1.55 2.79 3.844V38h3.813v-6.758c.093-3.224 1.457-5.642 3.72-5.642 1.829 0 2.79 1.55 2.79 3.844V38h3.813v-9.858c0-3.596-1.767-6.138-5.115-6.138zM140.807 22.314h-3.472v-4.65h-3.813v4.65h-2.449v3.596h2.449V38h3.813V25.91h3.472v-3.596zM152.224 22.004c-2.356 0-4.309 1.116-5.828 2.604V14.75h-3.813V38h3.813v-7.843c.093-2.542 1.674-4.557 4.34-4.557 2.108 0 3.441 1.24 3.441 4.898V38h3.813v-9.269c0-4.278-1.984-6.727-5.766-6.727zM175.327 30.343c0-4.495-3.007-8.339-7.843-8.339-4.743 0-7.843 3.689-7.843 8.06 0 4.588 3.255 8.246 8.091 8.246 4.34 0 6.789-3.007 7.254-5.146l-3.348-.372c-.62 1.085-1.891 2.139-3.875 2.139-2.759 0-4.216-1.674-4.309-3.596h11.873v-.992zm-7.843-4.96c2.387 0 3.906 1.581 4.03 3.317h-8.06c.093-1.798 1.705-3.317 4.03-3.317zM194.772 38.31c4.898 0 8.37-3.658 8.37-8.153 0-4.495-3.472-8.153-8.37-8.153-4.929 0-8.432 3.658-8.432 8.153 0 4.495 3.503 8.153 8.432 8.153zm0-3.596c-2.697 0-4.619-2.077-4.619-4.557 0-2.48 1.922-4.557 4.619-4.557 2.666 0 4.557 2.077 4.557 4.557 0 2.48-1.891 4.557-4.557 4.557zM216.956 27.243v-3.627c-1.054-.93-2.604-1.612-4.619-1.612-4.65 0-8.06 3.751-8.06 8.153 0 4.433 3.41 8.153 8.06 8.153 2.015 0 3.565-.682 4.619-1.612V33.04c-1.24 1.178-2.542 1.674-3.999 1.674-2.325 0-4.65-1.829-4.65-4.557 0-2.728 2.325-4.557 4.65-4.557 1.457 0 2.759.465 3.999 1.643zM234.084 30.343c0-4.495-3.007-8.339-7.843-8.339-4.743 0-7.843 3.689-7.843 8.06 0 4.588 3.255 8.246 8.091 8.246 4.34 0 6.789-3.007 7.254-5.146l-3.348-.372c-.62 1.085-1.891 2.139-3.875 2.139-2.759 0-4.216-1.674-4.309-3.596h11.873v-.992zm-7.843-4.96c2.387 0 3.906 1.581 4.03 3.317h-8.06c.093-1.798 1.705-3.317 4.03-3.317zM235.517 30.157c0 4.495 3.286 8.153 7.781 8.153 2.697 0 4.805-1.426 5.611-3.224l.217 2.914h3.627V22.314h-3.627l-.217 2.914c-.806-1.798-2.914-3.224-5.611-3.224-4.495 0-7.781 3.658-7.781 8.153zm3.813 0c0-2.48 1.922-4.557 4.619-4.557 2.666 0 4.557 2.077 4.557 4.557 0 2.48-1.891 4.557-4.557 4.557-2.697 0-4.619-2.077-4.619-4.557zM264.971 22.004c-2.356 0-4.34 1.116-5.859 2.635l-.186-2.325h-3.596V38h3.813v-7.843c.093-2.542 1.674-4.557 4.34-4.557 2.108 0 3.441 1.24 3.441 4.898V38h3.813v-9.269c0-4.278-1.984-6.727-5.766-6.727zM274.652 31.645h3.41l.217-15.655h-3.844l.217 15.655zm1.705 6.665a1.926 1.926 0 0 0 1.953-1.953 1.926 1.926 0 0 0-1.953-1.953 1.945 1.945 0 0 0-1.953 1.953c0 1.085.868 1.953 1.953 1.953z" fill="#000"/>
</svg>
