<svg width="350" height="60" viewBox="0 0 350 60" fill="none" xmlns="http://www.w3.org/2000/svg">
    <path fill="#fff" d="M0 0h350v60H0z"/>
    <path d="M57.455 31.335c.093 3.627 2.821 6.975 7.44 6.975 3.844 0 6.975-2.108 6.975-5.828 0-3.348-2.449-5.239-6.634-7.502-2.232-1.178-3.503-1.829-3.503-3.503 0-1.333 1.24-2.201 2.697-2.201 1.674 0 2.821 1.178 2.914 3.131h3.813c-.093-3.751-2.728-6.727-6.727-6.727-3.627 0-6.51 2.294-6.51 5.642 0 2.945 1.52 4.526 5.952 7.068 2.511 1.364 4.185 2.201 4.185 3.968 0 1.302-1.116 2.356-3.162 2.356-1.86 0-3.503-1.085-3.627-3.379h-3.813zM82.515 22.004c-2.356 0-4.309 1.116-5.828 2.604V14.75h-3.813V38h3.813v-7.843c.093-2.542 1.674-4.557 4.34-4.557 2.108 0 3.441 1.24 3.441 4.898V38h3.813v-9.269c0-4.278-1.984-6.727-5.766-6.727zM89.932 30.157c0 4.495 3.286 8.153 7.781 8.153 2.697 0 4.805-1.426 5.611-3.224l.217 2.914h3.627V22.314h-3.627l-.217 2.914c-.806-1.798-2.914-3.224-5.61-3.224-4.496 0-7.782 3.658-7.782 8.153zm3.813 0c0-2.48 1.922-4.557 4.62-4.557 2.665 0 4.556 2.077 4.556 4.557 0 2.48-1.891 4.557-4.557 4.557-2.697 0-4.619-2.077-4.619-4.557zM116.938 22.004c-1.302 0-2.449.806-3.441 2.015l-.155-1.705h-3.596V38h3.813v-6.975c0-3.317 1.116-5.425 3.162-5.425.62 0 1.24.217 1.55.403l.558-3.317c-.341-.341-.992-.682-1.891-.682zM134.528 30.343c0-4.495-3.007-8.339-7.843-8.339-4.743 0-7.843 3.689-7.843 8.06 0 4.588 3.255 8.246 8.091 8.246 4.34 0 6.789-3.007 7.254-5.146l-3.348-.372c-.62 1.085-1.891 2.139-3.875 2.139-2.759 0-4.216-1.674-4.309-3.596h11.873v-.992zm-7.843-4.96c2.387 0 3.906 1.581 4.03 3.317h-8.06c.093-1.798 1.705-3.317 4.03-3.317zM154.345 22.314h-3.472v-4.65h-3.813v4.65h-2.449v3.596h2.449V38h3.813V25.91h3.472v-3.596zM165.762 22.004c-2.356 0-4.309 1.116-5.828 2.604V14.75h-3.813V38h3.813v-7.843c.093-2.542 1.674-4.557 4.34-4.557 2.108 0 3.441 1.24 3.441 4.898V38h3.813v-9.269c0-4.278-1.984-6.727-5.766-6.727zM188.865 30.343c0-4.495-3.007-8.339-7.843-8.339-4.743 0-7.843 3.689-7.843 8.06 0 4.588 3.255 8.246 8.091 8.246 4.34 0 6.789-3.007 7.254-5.146l-3.348-.372c-.62 1.085-1.891 2.139-3.875 2.139-2.759 0-4.216-1.674-4.309-3.596h11.873v-.992zm-7.843-4.96c2.387 0 3.906 1.581 4.03 3.317h-8.06c.093-1.798 1.705-3.317 4.03-3.317zM208.311 38.31c4.898 0 8.37-3.658 8.37-8.153 0-4.495-3.472-8.153-8.37-8.153-4.929 0-8.432 3.658-8.432 8.153 0 4.495 3.503 8.153 8.432 8.153zm0-3.596c-2.697 0-4.619-2.077-4.619-4.557 0-2.48 1.922-4.557 4.619-4.557 2.666 0 4.557 2.077 4.557 4.557 0 2.48-1.891 4.557-4.557 4.557zM230.494 27.243v-3.627c-1.054-.93-2.604-1.612-4.619-1.612-4.65 0-8.06 3.751-8.06 8.153 0 4.433 3.41 8.153 8.06 8.153 2.015 0 3.565-.682 4.619-1.612V33.04c-1.24 1.178-2.542 1.674-3.999 1.674-2.325 0-4.65-1.829-4.65-4.557 0-2.728 2.325-4.557 4.65-4.557 1.457 0 2.759.465 3.999 1.643zM247.623 30.343c0-4.495-3.007-8.339-7.843-8.339-4.743 0-7.843 3.689-7.843 8.06 0 4.588 3.255 8.246 8.091 8.246 4.34 0 6.789-3.007 7.254-5.146l-3.348-.372c-.62 1.085-1.891 2.139-3.875 2.139-2.759 0-4.216-1.674-4.309-3.596h11.873v-.992zm-7.843-4.96c2.387 0 3.906 1.581 4.03 3.317h-8.06c.093-1.798 1.705-3.317 4.03-3.317zM249.055 30.157c0 4.495 3.286 8.153 7.781 8.153 2.697 0 4.805-1.426 5.611-3.224l.217 2.914h3.627V22.314h-3.627l-.217 2.914c-.806-1.798-2.914-3.224-5.611-3.224-4.495 0-7.781 3.658-7.781 8.153zm3.813 0c0-2.48 1.922-4.557 4.619-4.557 2.666 0 4.557 2.077 4.557 4.557 0 2.48-1.891 4.557-4.557 4.557-2.697 0-4.619-2.077-4.619-4.557zM278.51 22.004c-2.356 0-4.34 1.116-5.859 2.635l-.186-2.325h-3.596V38h3.813v-7.843c.093-2.542 1.674-4.557 4.34-4.557 2.108 0 3.441 1.24 3.441 4.898V38h3.813v-9.269c0-4.278-1.984-6.727-5.766-6.727zM288.191 31.645h3.41l.217-15.655h-3.844l.217 15.655zm1.705 6.665a1.926 1.926 0 0 0 1.953-1.953 1.926 1.926 0 0 0-1.953-1.953 1.945 1.945 0 0 0-1.953 1.953c0 1.085.868 1.953 1.953 1.953z" fill="#000"/>
</svg>
