<svg width="275" height="119" viewBox="0 0 275 119" fill="none" xmlns="http://www.w3.org/2000/svg">
<path d="M15 59.5C15 34.371 35.371 14 60.5 14H214.5C239.629 14 260 34.371 260 59.5C260 84.629 239.629 105 214.5 105H60.5C35.371 105 15 84.629 15 59.5Z" fill="white" fill-opacity="0.5"/>
<path d="M0 59.5C0 26.6391 26.6391 0 59.5 0H215.5C248.361 0 275 26.6391 275 59.5C275 92.3609 248.361 119 215.5 119H59.5C26.639 119 0 92.3609 0 59.5Z" fill="white" fill-opacity="0.3"/>
<path d="M31 59.5C31 42.103 45.103 28 62.5 28H212.5C229.897 28 244 42.103 244 59.5C244 76.897 229.897 91 212.5 91H62.5C45.103 91 31 76.897 31 59.5Z" fill="white"/>
<path d="M99.2633 64.16C99.2933 67.64 101.783 71.3 106.733 71.3C110.423 71.3 113.663 69.26 113.663 65.51C113.663 62.3 111.413 60.47 107.153 58.07C105.083 56.9 104.243 56.39 104.243 55.22C104.243 54.26 105.113 53.66 106.193 53.66C107.513 53.66 108.443 54.62 108.473 56.42H113.003C112.973 52.49 110.333 49.4 106.193 49.4C102.533 49.4 99.7133 51.68 99.7133 55.01C99.7133 57.62 100.763 59.3 105.473 62.09C107.783 63.44 109.103 64.04 109.103 65.33C109.103 66.23 108.323 67.01 106.733 67.01C105.143 67.01 103.823 66.11 103.793 64.16H99.2633ZM128.249 49.7H113.909V53.96H118.799V71H123.329V53.96H128.249V49.7ZM141.489 71H146.169L138.489 49.7H133.329L125.649 71H130.359L131.889 66.74H139.929L141.489 71ZM133.419 62.45L135.909 55.55L138.399 62.45H133.419ZM158.265 71H163.365L159.075 63.77C161.415 62.6 163.095 60.29 163.095 57.17C163.095 52.52 159.315 49.7 155.295 49.7H146.955V71H151.515V64.64H154.515L158.265 71ZM151.515 53.96H155.295C157.125 53.96 158.565 55.16 158.565 57.17C158.565 59.18 157.125 60.38 155.295 60.38H151.515V53.96ZM178.037 49.7H163.697V53.96H168.587V71H173.117V53.96H178.037V49.7Z" fill="#15D4E0"/>
</svg>
