<svg width="24" height="24" viewBox="0 0 24 24" fill="none" xmlns="http://www.w3.org/2000/svg">
<path d="M12 16L12.5303 16.5303C12.2374 16.8232 11.7626 16.8232 11.4697 16.5303L12 16ZM6.53033 9.46967L12.5303 15.4697L11.4697 16.5303L5.46967 10.5303L6.53033 9.46967ZM11.4697 15.4697L17.4697 9.46967L18.5303 10.5303L12.5303 16.5303L11.4697 15.4697Z" fill="white"/>
<path d="M11.25 2L11.25 15L12.75 15L12.75 2L11.25 2Z" fill="white"/>
<path d="M20 21H4C3.44772 21 3 20.5523 3 20V17H4.5V19.5H19.5V17H21V20C21 20.5523 20.5523 21 20 21Z" fill="white"/>
</svg>
