<svg width="16" height="15" viewBox="0 0 16 15" fill="none" xmlns="http://www.w3.org/2000/svg">
<path fill-rule="evenodd" clip-rule="evenodd" d="M8.5488 8.51468C8.38021 7.82149 8.01964 7.20343 7.5266 6.71999C7.03333 7.20337 6.67257 7.82145 6.50381 8.5147C6.82892 8.60627 7.17187 8.65526 7.52626 8.65526C7.88069 8.65526 8.22367 8.60627 8.5488 8.51468ZM5.46226 8.03924C4.43881 7.36666 3.76311 6.20829 3.76311 4.89211C3.76311 2.81377 5.44793 1.12895 7.52626 1.12895C9.52152 1.12895 11.1541 2.68177 11.2814 4.64485C10.9214 4.56044 10.5461 4.51579 10.1603 4.51579C7.93357 4.51579 6.0543 6.00353 5.46226 8.03924ZM12.4154 5.06538C12.4174 5.00787 12.4184 4.95011 12.4184 4.89211C12.4184 2.19027 10.2281 0 7.52626 0C4.82443 0 2.63416 2.19027 2.63416 4.89211C2.63416 4.94984 2.63516 5.00734 2.63714 5.06459C1.07015 5.87995 0 7.51857 0 9.40714C0 12.109 2.19027 14.2992 4.89211 14.2992C5.86169 14.2992 6.76539 14.0172 7.52563 13.5306C8.28611 14.0176 9.19025 14.3 10.1603 14.3C12.8622 14.3 15.0524 12.1097 15.0524 9.40789C15.0524 7.51935 13.9823 5.88075 12.4154 5.06538ZM2.82799 6.26008C3.41981 8.29614 5.29926 9.78421 7.52626 9.78421C7.91197 9.78421 8.28725 9.73957 8.64721 9.65519C8.5195 11.6179 6.8871 13.1703 4.89211 13.1703C2.81377 13.1703 1.12895 11.4855 1.12895 9.40714C1.12895 8.091 1.80461 6.93267 2.82799 6.26008ZM13.9235 9.40789C13.9235 11.4862 12.2387 13.1711 10.1603 13.1711C9.54549 13.1711 8.96509 13.0236 8.45256 12.7621C9.27819 11.8863 9.78421 10.7058 9.78421 9.40714C9.78421 8.10899 9.27858 6.92893 8.45352 6.05316C8.96581 5.792 9.54587 5.64473 10.1603 5.64473C12.2387 5.64473 13.9235 7.32956 13.9235 9.40789Z" fill="white"/>
</svg>
