<svg width="24" height="24" viewBox="0 0 24 24" fill="none" xmlns="http://www.w3.org/2000/svg">
    <path d="M9.733 8.68a.488.488 0 0 1-.44-.08.47.47 0 0 1-.2-.4c0-.196.058-.369.174-.52a.763.763 0 0 1 .48-.293 13.046 13.046 0 0 1 2.48-.254c1.049 0 1.853.21 2.413.627.569.409.853.956.853 1.64 0 .311-.04.591-.12.84-.08.24-.213.458-.4.653a5.716 5.716 0 0 1-.466.467c-.134.107-.33.249-.587.427-.284.195-.498.35-.64.466a3.04 3.04 0 0 0-.453.48 1.878 1.878 0 0 0-.36.667 1.168 1.168 0 0 1-.32.52.737.737 0 0 1-.52.213.708.708 0 0 1-.52-.213.59.59 0 0 1-.147-.52c.053-.267.138-.507.253-.72.116-.222.267-.422.454-.6.186-.187.342-.329.466-.427.134-.106.32-.244.56-.413.294-.204.511-.364.654-.48.142-.124.28-.293.413-.507.133-.222.2-.462.2-.72 0-.782-.644-1.173-1.933-1.173-.703 0-1.467.107-2.294.32zm1.854 6.587h.08a.73.73 0 0 1 .533.226.73.73 0 0 1 .227.534v.213a.73.73 0 0 1-.227.533.73.73 0 0 1-.533.227h-.08a.73.73 0 0 1-.534-.227.73.73 0 0 1-.226-.533v-.213a.73.73 0 0 1 .226-.534.73.73 0 0 1 .534-.226z" fill="#000"/>
    <path d="M12 21.25a9.25 9.25 0 1 0 0-18.5 9.25 9.25 0 0 0 0 18.5z" stroke="#000" stroke-width="1.5" stroke-linecap="round" stroke-linejoin="round"/>
</svg>
