<svg width="24" height="24" viewBox="0 0 24 24" fill="none" xmlns="http://www.w3.org/2000/svg">
<mask id="path-1-inside-1_772_11619" fill="white">
<path fill-rule="evenodd" clip-rule="evenodd" d="M12.0006 5.84904L11.2038 4.98208C9.13126 2.72735 5.59799 2.65298 3.43246 4.81853C1.3298 6.92121 1.32981 10.3303 3.43248 12.433L11.2422 20.2427C11.4501 20.4506 11.7253 20.5471 11.9956 20.5345C12.2691 20.5498 12.5483 20.4535 12.7586 20.2432L20.5684 12.4335C22.671 10.3308 22.6711 6.92169 20.5684 4.81902C18.4029 2.65347 14.8696 2.72783 12.7971 4.98257L12.0006 5.84904Z"/>
</mask>
<path d="M12.0006 5.84904L10.8963 6.86413L12.0006 8.06559L13.105 6.86413L12.0006 5.84904ZM11.2038 4.98208L12.3081 3.96699V3.96699L11.2038 4.98208ZM3.43246 4.81853L4.49312 5.87919L3.43246 4.81853ZM3.43248 12.433L4.49314 11.3723L3.43248 12.433ZM11.2422 20.2427L12.3029 19.1821L12.3029 19.1821L11.2422 20.2427ZM11.9956 20.5345L12.0792 19.0369L12.0028 19.0326L11.9263 19.0361L11.9956 20.5345ZM12.7586 20.2432L13.8193 21.3039L13.8193 21.3039L12.7586 20.2432ZM20.5684 12.4335L19.5077 11.3728V11.3728L20.5684 12.4335ZM20.5684 4.81902L19.5077 5.87967V5.87967L20.5684 4.81902ZM12.7971 4.98257L11.6927 3.96748V3.96748L12.7971 4.98257ZM13.105 4.83395L12.3081 3.96699L10.0994 5.99717L10.8963 6.86413L13.105 4.83395ZM12.3081 3.96699C9.65823 1.08411 5.14062 0.989027 2.37179 3.75787L4.49312 5.87919C6.05535 4.31694 8.60429 4.37059 10.0994 5.99717L12.3081 3.96699ZM2.37179 3.75787C-0.316648 6.44634 -0.316639 10.8052 2.37182 13.4936L4.49314 11.3723C2.97625 9.85543 2.97625 7.39608 4.49312 5.87919L2.37179 3.75787ZM2.37182 13.4936L10.1816 21.3034L12.3029 19.1821L4.49314 11.3723L2.37182 13.4936ZM10.1816 21.3034C10.701 21.8228 11.3922 22.0641 12.0649 22.0329L11.9263 19.0361C12.0584 19.03 12.1992 19.0784 12.3029 19.1821L10.1816 21.3034ZM11.698 19.1826C11.8029 19.0776 11.9458 19.0294 12.0792 19.0369L11.9121 22.0322C12.5923 22.0702 13.2936 21.8295 13.8193 21.3039L11.698 19.1826ZM19.5077 11.3728L11.698 19.1826L13.8193 21.3039L21.629 13.4941L19.5077 11.3728ZM19.5077 5.87967C21.0246 7.39656 21.0246 9.85592 19.5077 11.3728L21.629 13.4941C24.3175 10.8057 24.3175 6.44683 21.6291 3.75836L19.5077 5.87967ZM13.9014 5.99766C15.3966 4.37107 17.9455 4.31743 19.5077 5.87967L21.6291 3.75836C18.8602 0.989514 14.3426 1.08459 11.6927 3.96748L13.9014 5.99766ZM13.105 6.86413L13.9014 5.99766L11.6927 3.96748L10.8963 4.83395L13.105 6.86413Z" fill="white" mask="url(#path-1-inside-1_772_11619)"/>
</svg>
