<svg width="16" height="16" viewBox="0 0 16 16" fill="none" xmlns="http://www.w3.org/2000/svg">
<path d="M12.6345 6.38462C12.6345 7.61146 12.1639 8.81785 11.3073 10.0985C10.4836 11.33 9.33692 12.5807 7.99987 13.936C6.66292 12.5807 5.51624 11.33 4.69246 10.0985C3.83583 8.81781 3.36523 7.61144 3.36523 6.38462C3.36523 3.82499 5.44022 1.75 7.99985 1.75C10.5595 1.75 12.6345 3.82499 12.6345 6.38462Z" stroke="#868E96" stroke-width="1.5"/>
<path d="M9.5 6.5C9.5 7.32843 8.82843 8 8 8C7.17157 8 6.5 7.32843 6.5 6.5C6.5 5.67157 7.17157 5 8 5C8.82843 5 9.5 5.67157 9.5 6.5Z" fill="#868E96"/>
</svg>
