<svg width="24" height="24" viewBox="0 0 24 24" fill="none" xmlns="http://www.w3.org/2000/svg">
<rect width="24" height="24" fill="white"/>
<path fill-rule="evenodd" clip-rule="evenodd" d="M13.3583 13.3133C13.1342 12.3924 12.655 11.5714 11.9999 10.9292C11.3448 11.5714 10.8657 12.3924 10.6416 13.3133C11.0735 13.4349 11.5291 13.5 12 13.5C12.4708 13.5 12.9264 13.4349 13.3583 13.3133ZM9.25766 12.6815C7.89781 11.7879 7 10.2488 7 8.5C7 5.73858 9.23858 3.5 12 3.5C14.651 3.5 16.8202 5.56319 16.9894 8.17147C16.5111 8.05932 16.0124 8 15.4999 8C12.5412 8 10.0443 9.97673 9.25766 12.6815ZM18.496 8.7302C18.4987 8.65379 18.5 8.57705 18.5 8.5C18.5 4.91015 15.5899 2 12 2C8.41015 2 5.5 4.91015 5.5 8.5C5.5 8.57703 5.50134 8.65375 5.504 8.73013C3.42193 9.81345 2 11.9907 2 14.5C2 18.0899 4.91015 21 8.5 21C9.78861 21 10.9896 20.625 11.9999 19.9782C13.0102 20.625 14.2113 21 15.4999 21C19.0897 21 21.9999 18.0899 21.9999 14.5C21.9999 11.9907 20.578 9.81354 18.496 8.7302ZM5.75777 10.3184C6.54437 13.0232 9.04134 15 12 15C12.5125 15 13.0111 14.9407 13.4894 14.8286C13.3202 17.4368 11.151 19.5 8.5 19.5C5.73858 19.5 3.5 17.2614 3.5 14.5C3.5 12.7512 4.39786 11.212 5.75777 10.3184ZM20.4999 14.5C20.4999 17.2614 18.2613 19.5 15.4999 19.5C14.6832 19.5 13.9122 19.3042 13.2314 18.957C14.3279 17.7933 15 16.2251 15 14.5C15 12.7749 14.3279 11.2067 13.2314 10.043C13.9122 9.69581 14.6832 9.5 15.4999 9.5C18.2613 9.5 20.4999 11.7386 20.4999 14.5Z" fill="black"/>
</svg>
