<svg width="24" height="24" viewBox="0 0 24 24" fill="none" xmlns="http://www.w3.org/2000/svg">
<path d="M15.25 6C15.25 7.79493 13.7949 9.25 12 9.25C10.2051 9.25 8.75 7.79493 8.75 6C8.75 4.20507 10.2051 2.75 12 2.75C13.7949 2.75 15.25 4.20507 15.25 6Z" stroke="#ADB5BD" stroke-width="1.5"/>
<path d="M14 16C13.4477 16 13 16.4477 13 17C13 17.5523 13.4477 18 14 18V16ZM16 18C16.5523 18 17 17.5523 17 17C17 16.4477 16.5523 16 16 16V18ZM14 18H16V16H14V18Z" fill="#ADB5BD"/>
<mask id="path-3-inside-1_307_7811" fill="white">
<path d="M3 18C3 13.0294 7.02944 9 12 9C16.9706 9 21 13.0294 21 18V21C21 21.5523 20.5523 22 20 22H4C3.44772 22 3 21.5523 3 21V18Z"/>
</mask>
<path d="M19.5 18V21H22.5V18H19.5ZM20 20.5H4V23.5H20V20.5ZM4.5 21V18H1.5V21H4.5ZM4 20.5C4.27614 20.5 4.5 20.7239 4.5 21H1.5C1.5 22.3807 2.61929 23.5 4 23.5V20.5ZM19.5 21C19.5 20.7239 19.7239 20.5 20 20.5V23.5C21.3807 23.5 22.5 22.3807 22.5 21H19.5ZM12 10.5C16.1421 10.5 19.5 13.8579 19.5 18H22.5C22.5 12.201 17.799 7.5 12 7.5V10.5ZM12 7.5C6.20101 7.5 1.5 12.201 1.5 18H4.5C4.5 13.8579 7.85786 10.5 12 10.5V7.5Z" fill="#ADB5BD" mask="url(#path-3-inside-1_307_7811)"/>
</svg>
