<svg width="24" height="24" viewBox="0 0 24 24" fill="none" xmlns="http://www.w3.org/2000/svg">
<path d="M9 13.5L14 17.25" stroke="white" stroke-width="1.5" stroke-linejoin="round"/>
<path d="M9 10.5L14 6.75" stroke="white" stroke-width="1.5" stroke-linejoin="round"/>
<path d="M9.25 12C9.25 13.2426 8.24265 14.25 7.00002 14.25C5.75738 14.25 4.75 13.2426 4.75 12C4.75 10.7574 5.75738 9.75 7.00002 9.75C8.24265 9.75 9.25 10.7574 9.25 12Z" stroke="white" stroke-width="1.5" stroke-linecap="round" stroke-linejoin="round"/>
<path d="M18.25 5C18.25 6.24265 17.2426 7.25 16 7.25C14.7574 7.25 13.75 6.24263 13.75 5C13.75 3.75737 14.7574 2.75 16 2.75C17.2426 2.75 18.25 3.75735 18.25 5Z" stroke="white" stroke-width="1.5" stroke-linecap="round" stroke-linejoin="round"/>
<path d="M18.25 19C18.25 20.2426 17.2426 21.25 16 21.25C14.7574 21.25 13.75 20.2426 13.75 19C13.75 17.7574 14.7574 16.75 16 16.75C17.2426 16.75 18.25 17.7574 18.25 19Z" stroke="white" stroke-width="1.5" stroke-linecap="round" stroke-linejoin="round"/>
</svg>
