<svg width="32" height="32" viewBox="0 0 32 32" fill="none" xmlns="http://www.w3.org/2000/svg">
    <path d="M3.334 5.333a2 2 0 0 1 2-2h4.667v1.334H4.667V10H3.334V5.333z" fill="#15D4E0"/>
    <circle cx="10.833" cy="13.5" r=".833" fill="#15D4E0"/>
    <path d="M3.334 26.667a2 2 0 0 0 2 2h4.667v-1.334H4.667V22H3.334v4.667zM28.666 5.333a2 2 0 0 0-2-2h-4.667v1.334h5.334V10h1.333V5.333zM28.666 26.667a2 2 0 0 1-2 2h-4.667v-1.334h5.334V22h1.333v4.667zM3.334 15.333h25.333v1.333H3.334z" fill="#15D4E0"/>
    <path fill-rule="evenodd" clip-rule="evenodd" d="M12.332 11.333h.667l.4-.533.6-.8h4.666l.6.8.4.533h3.667v5.333h1.333v-5.8A.867.867 0 0 0 23.8 10h-3.467l-.74-.987a.866.866 0 0 0-.693-.347h-5.134a.867.867 0 0 0-.693.347l-.74.987H8.199a.867.867 0 0 0-.867.867v5.8h1.333v-5.334h3.667zM8.665 18H7.332v3.8c0 .479.388.866.867.866h15.6a.867.867 0 0 0 .866-.866V18h-1.333v3.333H8.665V18z" fill="#15D4E0"/>
    <path fill-rule="evenodd" clip-rule="evenodd" d="M18.096 18a2.657 2.657 0 0 1-1.764.667A2.657 2.657 0 0 1 14.568 18h-1.7a3.998 3.998 0 0 0 3.464 2c1.48 0 2.773-.804 3.465-2h-1.701zm-4.347-1.333a2.67 2.67 0 0 1 2.583-3.334 2.667 2.667 0 0 1 2.583 3.334h1.362a4 4 0 1 0-7.89 0h1.362z" fill="#15D4E0"/>
</svg>
