<svg width="348" height="231" viewBox="0 0 348 231" fill="none" xmlns="http://www.w3.org/2000/svg">
<mask id="mask0_960_20386" style="mask-type:alpha" maskUnits="userSpaceOnUse" x="0" y="0" width="169" height="231">
<rect width="169" height="230.005" fill="#D9D9D9"/>
</mask>
<g mask="url(#mask0_960_20386)">
<path d="M23.8793 218.253L23.4738 217.681C23.4738 217.681 17.4869 221.878 13.098 227.674C7.63575 227.769 -100.297 226.648 -105.402 226.601L-112.438 216.727L-113.01 217.132L-105.783 227.292H-105.616C-100.87 227.34 10.4026 228.509 13.265 228.366H13.4319L13.5273 228.223C17.8685 222.451 23.7839 218.301 23.8316 218.253" fill="#231815" fill-opacity="0.3"/>
<path d="M129.284 196.334C129.284 196.048 129.284 195.761 129.236 195.499C128.377 187.843 125.348 183.836 125.229 183.669L124.68 184.098C124.68 184.098 127.733 188.129 128.544 195.571C129.379 203.012 117.644 212.815 114.376 213.268C109.892 214.174 107.268 213.578 105.861 212.91C104.358 212.195 103.881 211.264 103.881 211.24L103.261 211.551C103.356 211.717 105.407 215.796 114.495 213.959C117.858 213.506 129.308 204.157 129.308 196.358" fill="#231815" fill-opacity="0.3"/>
<path d="M123.535 198.6C123.535 198.6 123.273 198.481 123.178 198.505C122.915 198.505 122.605 198.695 122.391 198.958L115.473 207.21C115.068 207.687 115.068 208.26 115.306 208.45L116.356 209.381C116.356 209.381 116.571 209.5 116.714 209.476C116.976 209.476 117.286 209.285 117.501 209.023L124.418 200.77C124.824 200.293 124.824 199.721 124.585 199.506L123.535 198.6ZM125.229 201.438L118.312 209.691C117.906 210.168 117.358 210.478 116.809 210.525C116.38 210.549 115.974 210.43 115.664 210.168L114.615 209.261C113.899 208.641 113.923 207.449 114.662 206.542L121.58 198.29C121.985 197.813 122.534 197.503 123.082 197.455C123.512 197.431 123.917 197.551 124.227 197.813L125.277 198.743C125.635 199.053 125.801 199.482 125.801 199.959C125.801 200.46 125.611 200.985 125.229 201.438Z" fill="#231815" fill-opacity="0.3"/>
<path d="M152.397 148.061H128.091V149.301H152.397V148.061Z" fill="#231815" fill-opacity="0.3"/>
<path d="M152.493 74.1943H128.855V75.4346H152.493V74.1943Z" fill="#231815" fill-opacity="0.3"/>
<path d="M-219.417 172.913V172.961C-215.385 193.806 -204.318 203.728 -195.755 208.379C-186.452 213.436 -177.985 213.555 -177.865 213.555C-175.719 213.65 36.7122 222.284 84.2027 214.008C84.799 213.913 85.443 213.841 86.1109 213.746C97.4886 212.291 118.693 209.548 124.275 180.378C128.306 156.241 128.497 118.509 128.497 118.128V103.722C128.497 103.34 128.306 65.6084 124.299 41.4952C118.741 12.3018 97.5363 9.58285 86.1348 8.12795C85.4669 8.03255 84.8228 7.961 84.1788 7.86559C36.7361 -0.410635 -175.719 8.22336 -177.889 8.31876C-177.985 8.31876 -186.452 8.43801 -195.755 13.4944C-204.318 18.1453 -215.362 28.0672 -219.393 48.9128V48.9605C-221.993 59.1687 -222.088 110.567 -222.088 111.068C-222.088 111.569 -221.993 162.681 -219.393 172.889L-219.417 172.913ZM126.016 180.689C123.512 193.806 117.549 203.323 108.27 208.952C100.518 213.65 92.0025 214.747 86.3733 215.487C85.7054 215.582 85.0614 215.654 84.5128 215.725C36.8792 224.049 -175.743 215.391 -177.865 215.296C-178.223 215.296 -186.786 215.177 -196.47 209.953C-205.391 205.136 -216.888 194.856 -221.062 173.319C-223.71 162.848 -223.805 113.191 -223.805 111.092C-223.805 108.969 -223.71 59.0494 -221.062 48.5789C-216.888 27.0416 -205.391 16.7619 -196.47 11.9441C-186.786 6.69691 -178.223 6.6015 -177.889 6.6015C-175.743 6.5061 36.8792 -2.15174 84.4889 6.17219C85.0852 6.24374 85.7054 6.33914 86.3733 6.4107C92.0025 7.12622 100.518 8.22336 108.27 12.9458C117.549 18.5746 123.512 28.0911 126.016 41.2329C130.071 65.513 130.262 103.388 130.262 103.77V118.199C130.262 118.581 130.071 156.456 126.016 180.76" fill="#231815" fill-opacity="0.3"/>
<path d="M152.612 97.9253C152.612 91.1517 152.564 75.8633 152.564 73.7168V54.3738C152.564 49.8183 149.893 49.5798 147.746 49.3651C147.364 49.3412 147.03 49.2935 146.696 49.2458H146.649C127.71 49.1981 125.515 41.7805 125.492 41.709L124.824 41.8759C124.919 42.2099 127.114 49.866 146.625 49.9375C146.983 49.9852 147.34 50.0329 147.698 50.0568C149.845 50.2476 151.872 50.4384 151.872 54.3499V73.6929C151.896 82.947 151.944 100.573 151.92 101.05C151.92 101.05 151.825 102.195 151.014 102.195C150.823 102.195 150.37 102.195 149.773 102.195C147.531 102.195 143.333 102.195 141.258 102.147C138.014 102.075 137.275 106.321 137.012 107.704L136.965 107.943C136.869 109.278 136.869 111.926 136.869 112.021H137.561C137.561 112.021 137.561 109.207 137.656 107.919V107.823C137.895 106.583 138.563 102.791 141.21 102.839C143.286 102.886 147.484 102.886 149.726 102.862C150.322 102.862 150.751 102.862 150.966 102.862C152.111 102.862 152.516 101.694 152.564 101.074C152.564 100.978 152.564 99.7618 152.564 97.8776" fill="#231815" fill-opacity="0.3"/>
<path d="M152.612 126.166C152.612 124.281 152.612 123.065 152.612 122.97C152.564 122.349 152.159 121.181 151.014 121.181C150.799 121.181 150.346 121.181 149.749 121.181C147.507 121.181 143.309 121.181 141.258 121.228C138.61 121.276 137.942 117.484 137.728 116.244V116.148C137.608 114.86 137.608 112.07 137.608 112.046H136.917C136.917 112.046 136.917 114.789 137.012 116.124V116.244L137.06 116.339C137.298 117.722 138.062 121.968 141.306 121.896C143.357 121.849 147.531 121.849 149.773 121.849C150.393 121.849 150.847 121.849 151.037 121.849C151.825 121.849 151.944 122.993 151.944 122.993C151.968 123.47 151.944 141.096 151.92 150.35V169.693C151.92 173.605 149.893 173.796 147.746 174.01C147.388 174.034 147.03 174.082 146.672 174.13C127.137 174.201 124.943 181.857 124.871 182.191L125.539 182.358C125.539 182.358 127.757 174.869 146.696 174.821H146.744C147.078 174.774 147.436 174.726 147.793 174.702C149.94 174.511 152.588 174.249 152.588 169.693V150.35C152.588 148.204 152.636 132.892 152.636 126.142" fill="#231815" fill-opacity="0.3"/>
<path d="M143.643 121.156H146.052V102.91H143.643V121.156ZM142.951 102.194H146.744V121.847H142.951V102.194Z" fill="#231815" fill-opacity="0.3"/>
<path d="M-208.54 168.715V168.763C-204.747 188.297 -194.395 197.598 -186.357 201.963C-177.627 206.709 -169.684 206.829 -169.589 206.829C-167.585 206.924 31.5601 215.01 76.0689 207.258C76.6414 207.186 77.2377 207.091 77.8579 207.019C88.5438 205.636 108.413 203.084 113.613 175.751C117.382 153.141 117.549 117.746 117.572 117.412V103.912C117.572 103.555 117.405 68.1839 113.637 45.5734C108.413 18.2165 88.5438 15.6645 77.8817 14.2811C77.2377 14.2096 76.6414 14.1142 76.0689 14.0426C31.5839 6.26723 -167.561 14.3765 -169.589 14.4719C-169.66 14.4719 -177.603 14.5912 -186.333 19.3375C-194.348 23.7022 -204.723 33.004 -208.492 52.5378V52.5855C-210.949 62.1497 -211.02 110.328 -211.02 110.805C-211.02 111.282 -210.949 159.175 -208.492 168.763L-208.54 168.715ZM115.283 176.061C112.945 188.368 107.34 197.264 98.6573 202.559C91.3823 206.972 83.3917 207.997 78.1203 208.689C77.5001 208.761 76.9038 208.856 76.379 208.928C31.727 216.727 -167.585 208.617 -169.565 208.522C-169.899 208.522 -177.937 208.403 -187.001 203.513C-195.349 198.982 -206.155 189.37 -210.066 169.168C-212.547 159.342 -212.619 112.809 -212.619 110.829C-212.619 108.85 -212.547 62.0304 -210.066 52.2277C-206.155 32.05 -195.373 22.4142 -187.001 17.8826C-177.937 12.9693 -169.899 12.8739 -169.589 12.8739C-167.585 12.7785 31.727 4.66923 76.3552 12.4684C76.9038 12.54 77.5001 12.6354 78.1441 12.707C83.4155 13.3986 91.4061 14.4242 98.6812 18.8366C107.363 24.1076 112.969 33.0278 115.306 45.3349C119.099 68.0885 119.29 103.602 119.29 103.96V117.484C119.29 117.841 119.123 153.331 115.306 176.109" fill="#231815" fill-opacity="0.3"/>
<path d="M45.4183 146.151C45.4183 151.065 49.4017 155.048 54.3153 155.048C59.2289 155.048 63.2123 151.065 63.2123 146.151C63.2123 141.238 59.2289 137.255 54.3153 137.255C49.4017 137.255 45.4183 141.238 45.4183 146.151ZM64.7389 146.151C64.7389 151.899 60.0638 156.574 54.3153 156.574C48.5669 156.574 43.8917 151.899 43.8917 146.151C43.8917 140.403 48.5669 135.729 54.3153 135.729C60.0638 135.729 64.7389 140.403 64.7389 146.151Z" fill="#231815"/>
<path d="M45.4183 76.6513C45.4183 81.5407 49.4017 85.5477 54.3153 85.5477C59.2289 85.5477 63.2123 81.5646 63.2123 76.6513C63.2123 71.738 59.2289 67.755 54.3153 67.755C49.4017 67.755 45.4183 71.738 45.4183 76.6513ZM64.7389 76.6513C64.7389 82.3994 60.0638 87.0741 54.3153 87.0741C48.5669 87.0741 43.8917 82.3994 43.8917 76.6513C43.8917 70.9033 48.5669 66.2285 54.3153 66.2285C60.0638 66.2285 64.7389 70.9033 64.7389 76.6513Z" fill="#231815"/>
<path d="M65.1682 111.664C65.1682 116.553 69.1516 120.56 74.0653 120.56C78.9789 120.56 82.9623 116.577 82.9623 111.664C82.9623 106.751 78.9789 102.768 74.0653 102.768C69.1516 102.768 65.1682 106.751 65.1682 111.664ZM84.4888 111.664C84.4888 117.412 79.8137 122.087 74.0653 122.087C68.3168 122.087 63.6417 117.412 63.6417 111.664C63.6417 105.916 68.3168 101.241 74.0653 101.241C79.8137 101.241 84.4888 105.916 84.4888 111.664Z" fill="#231815"/>
<path d="M70.1773 143.338L70.3919 143.075C74.3992 138.281 77.4285 132.843 79.3844 126.952L79.5036 126.618L79.8376 126.499C86.0154 124.114 90.1657 118.08 90.1657 111.473C90.1657 104.866 86.0154 98.832 79.8376 96.4469L79.5036 96.3276L79.3844 95.9937C77.4285 90.0787 74.3992 84.6646 70.3919 79.8706L70.1773 79.6082L70.225 79.2743C70.3681 78.4395 70.4158 77.6048 70.4158 76.77C70.4158 67.8975 63.1885 60.6707 54.3153 60.6707C45.4422 60.6707 38.2148 67.8975 38.2148 76.77C38.2148 85.6425 45.4422 92.8693 54.3153 92.8693C56.1043 92.8693 57.8932 92.5592 59.5867 91.9868L60.1353 91.796L60.4693 92.273C61.805 94.2049 62.9261 96.2561 63.8087 98.3788L64.0233 98.9035L63.594 99.2613C59.9923 102.338 57.9171 106.798 57.9171 111.521C57.9171 116.243 59.9922 120.703 63.5701 123.78L63.9995 124.138L63.7848 124.662C62.8784 126.809 61.7573 128.884 60.4454 130.768L60.1115 131.245L59.5629 131.054C57.8694 130.458 56.0804 130.172 54.2915 130.172C45.4183 130.172 38.191 137.399 38.191 146.271C38.191 155.144 45.4183 162.371 54.2915 162.371C63.1646 162.371 70.3919 155.144 70.3919 146.271C70.3919 145.436 70.3204 144.602 70.2011 143.767L70.1534 143.433L70.1773 143.338ZM91.6923 111.425C91.6923 118.557 87.3034 125.068 80.7201 127.739C78.7403 133.583 75.7349 138.973 71.7754 143.767C71.8947 144.554 71.9424 145.365 71.9424 146.176C71.9424 155.907 64.0233 163.802 54.3153 163.802C44.6074 163.802 36.6883 155.883 36.6883 146.176C36.6883 136.469 44.6074 128.55 54.3153 128.55C56.0804 128.55 57.8455 128.812 59.5152 129.337C60.5408 127.811 61.4234 126.165 62.1867 124.472C58.5134 121.132 56.4143 116.41 56.4143 111.425C56.4143 106.44 58.5134 101.718 62.1867 98.3788C61.4472 96.7093 60.5408 95.0635 59.5152 93.5132C57.8217 94.038 56.0804 94.3003 54.2915 94.3003C44.5596 94.3003 36.6644 86.3819 36.6644 76.6746C36.6644 66.9673 44.5835 59.0488 54.2915 59.0488C63.9995 59.0488 71.9185 66.9673 71.9185 76.6746C71.9185 77.4617 71.8708 78.2726 71.7516 79.0835C75.7111 83.8775 78.7165 89.2678 80.6963 95.1112C87.2796 97.8064 91.6684 104.318 91.6684 111.425" fill="#231815"/>
<g opacity="0.1">
<path d="M40.4332 15.6169C40.4332 15.6169 81.0064 11.8962 97.2023 24.7995C113.374 37.6789 115.736 70.2591 114.4 82.9716C113.04 95.6841 109.725 55.1377 98.8958 40.8988C74.6377 9.0341 35.7104 21.5558 40.457 15.6169" fill="#231815" fill-opacity="0.3"/>
</g>
<g opacity="0.1">
<path d="M18.7273 205.421C18.7273 205.421 78.4302 209.833 95.3894 197.097C112.349 184.384 114.829 152.257 113.398 139.688C111.991 127.143 108.508 167.164 97.1545 181.188C71.7277 212.624 2.17362 197.979 18.7273 205.397" fill="#231815" fill-opacity="0.3"/>
</g>
<g opacity="0.1">
<path d="M-36.6821 40.4693C-40.4031 40.8271 -78.9489 52.4663 -85.0313 81.1827C-91.6623 112.451 -86.2716 148.013 -82.6699 156.981C-79.0681 165.948 -64.2557 118.39 -59.676 101.456C-47.5112 56.4017 0.337029 36.8679 -36.6821 40.4455" fill="#231815"/>
</g>
<ellipse cx="54.2658" cy="146.187" rx="8.91693" ry="9.1717" fill="#64DEE4"/>
<ellipse cx="74.1379" cy="111.539" rx="8.91693" ry="9.1717" fill="#64DEE4"/>
<circle cx="54.5206" cy="76.8895" r="9.1717" fill="#64DEE4"/>
</g>
<path d="M63.6667 147C63.6667 145.527 62.4728 144.333 61 144.333C59.5272 144.333 58.3333 145.527 58.3333 147C58.3333 148.473 59.5272 149.667 61 149.667C62.4728 149.667 63.6667 148.473 63.6667 147ZM175 146.5L61 146.5L61 147.5L175 147.5L175 146.5Z" fill="black"/>
<path d="M78.6667 111C78.6667 109.527 77.4728 108.333 76 108.333C74.5272 108.333 73.3333 109.527 73.3333 111C73.3333 112.473 74.5272 113.667 76 113.667C77.4728 113.667 78.6667 112.473 78.6667 111ZM175 110.5L76 110.5V111.5L175 111.5V110.5Z" fill="black"/>
<path d="M63.6667 76C63.6667 74.5272 62.4728 73.3333 61 73.3333C59.5272 73.3333 58.3333 74.5272 58.3333 76C58.3333 77.4728 59.5272 78.6667 61 78.6667C62.4728 78.6667 63.6667 77.4728 63.6667 76ZM175 75.5L61 75.5L61 76.5L175 76.5L175 75.5Z" fill="black"/>
<path opacity="0.7" d="M202.8 77V76.19H199.68V69.9H198.79V77H202.8ZM206.01 77.1C207.58 77.1 208.75 75.95 208.75 74.42C208.75 72.89 207.58 71.74 206.01 71.74C204.45 71.74 203.27 72.89 203.27 74.42C203.27 75.95 204.45 77.1 206.01 77.1ZM206.01 76.31C204.94 76.31 204.12 75.49 204.12 74.41C204.12 73.34 204.94 72.53 206.01 72.53C207.09 72.53 207.9 73.34 207.9 74.41C207.9 75.49 207.09 76.31 206.01 76.31ZM212.37 71.74C211.49 71.74 210.86 72.15 210.54 72.85L210.43 71.85H209.68V77H210.56V74.21C210.56 73.14 211.15 72.5 212.12 72.5C212.86 72.5 213.56 72.89 213.56 74.09V77H214.44V73.97C214.44 72.39 213.47 71.74 212.37 71.74ZM219.957 73.03V72.97C219.557 72.21 218.797 71.74 217.897 71.74C216.317 71.74 215.277 72.88 215.277 74.41C215.277 75.92 216.287 77.1 217.857 77.1C218.877 77.1 219.637 76.58 219.957 75.79V76.54C219.957 78.04 219.197 78.67 217.977 78.67C217.007 78.67 216.227 78.22 215.887 77.99V78.78C216.457 79.2 217.337 79.43 218.147 79.43C219.827 79.43 220.827 78.41 220.827 76.54V71.85H220.097L219.957 73.03ZM218.067 76.32C216.957 76.32 216.157 75.53 216.157 74.42C216.157 73.32 216.957 72.53 218.067 72.53C219.167 72.53 219.947 73.36 219.947 74.42C219.947 75.49 219.167 76.32 218.067 76.32ZM227.145 71.75C226.125 71.75 225.365 72.27 225.045 73.05V73.03L224.915 71.85H224.175V79.3H225.045V75.87C225.445 76.64 226.205 77.1 227.105 77.1C228.685 77.1 229.725 75.97 229.725 74.44C229.725 72.93 228.715 71.75 227.145 71.75ZM226.935 76.32C225.835 76.32 225.055 75.49 225.055 74.43C225.055 73.36 225.835 72.53 226.935 72.53C228.045 72.53 228.845 73.32 228.845 74.43C228.845 75.53 228.045 76.32 226.935 76.32ZM231.377 71.85H230.647V77H231.517V73.82C231.517 72.91 232.147 72.45 233.237 72.6L233.247 71.83C232.307 71.71 231.767 72.09 231.477 72.7L231.377 71.85ZM236.091 71.74C234.571 71.74 233.471 72.91 233.471 74.42C233.471 76.04 234.631 77.1 236.171 77.1C237.391 77.1 238.301 76.37 238.571 75.5L237.801 75.41C237.571 75.9 237.041 76.37 236.181 76.37C235.181 76.37 234.401 75.7 234.341 74.69H238.721C238.751 72.87 237.661 71.74 236.091 71.74ZM236.091 72.46C237.101 72.46 237.781 73.14 237.811 74.02H234.341C234.411 73.12 235.141 72.46 236.091 72.46ZM241.507 77.1C242.717 77.1 243.537 76.57 243.537 75.61C243.537 73.69 240.387 74.32 240.387 73.15C240.387 72.71 240.817 72.43 241.397 72.43C242.017 72.43 242.437 72.77 242.507 73.29L243.347 73.26C243.287 72.38 242.497 71.75 241.407 71.75C240.357 71.75 239.537 72.31 239.537 73.2C239.537 75.04 242.657 74.44 242.657 75.65C242.657 76.13 242.217 76.4 241.537 76.4C240.797 76.4 240.227 76.07 240.147 75.43L239.287 75.46C239.377 76.59 240.337 77.1 241.507 77.1ZM246.27 77.1C247.48 77.1 248.3 76.57 248.3 75.61C248.3 73.69 245.15 74.32 245.15 73.15C245.15 72.71 245.58 72.43 246.16 72.43C246.78 72.43 247.2 72.77 247.27 73.29L248.11 73.26C248.05 72.38 247.26 71.75 246.17 71.75C245.12 71.75 244.3 72.31 244.3 73.2C244.3 75.04 247.42 74.44 247.42 75.65C247.42 76.13 246.98 76.4 246.3 76.4C245.56 76.4 244.99 76.07 244.91 75.43L244.05 75.46C244.14 76.59 245.1 77.1 246.27 77.1Z" fill="black"/>
<path d="M259.184 77V72.905H262.863V71.878H259.184V68.836H263.461V67.77H258.027V77H259.184ZM264.494 67.25V77H265.625V67.25H264.494ZM272.903 71.826V71.761C272.383 70.773 271.395 70.162 270.225 70.162C268.171 70.162 266.819 71.644 266.819 73.633C266.819 75.596 268.132 77.13 270.173 77.13C271.499 77.13 272.487 76.454 272.903 75.427V77H274.047V70.305H273.072L272.903 71.826ZM270.446 76.116C269.003 76.116 267.963 75.089 267.963 73.646C267.963 72.216 269.003 71.189 270.446 71.189C271.876 71.189 272.89 72.268 272.89 73.646C272.89 75.037 271.876 76.116 270.446 76.116ZM278.015 77.13C279.588 77.13 280.654 76.441 280.654 75.193C280.654 72.697 276.559 73.516 276.559 71.995C276.559 71.423 277.118 71.059 277.872 71.059C278.678 71.059 279.224 71.501 279.315 72.177L280.407 72.138C280.329 70.994 279.302 70.175 277.885 70.175C276.52 70.175 275.454 70.903 275.454 72.06C275.454 74.452 279.51 73.672 279.51 75.245C279.51 75.869 278.938 76.22 278.054 76.22C277.092 76.22 276.351 75.791 276.247 74.959L275.129 74.998C275.246 76.467 276.494 77.13 278.015 77.13ZM285.26 70.162C284.129 70.162 283.336 70.669 282.907 71.566V67.25H281.776V77H282.907V73.373C282.907 71.982 283.674 71.15 284.935 71.15C285.897 71.15 286.807 71.657 286.807 73.217V77H287.964V73.061C287.964 71.007 286.69 70.162 285.26 70.162ZM296.574 77.13C299.226 77.13 301.228 75.089 301.228 72.385C301.228 69.681 299.226 67.64 296.574 67.64C293.909 67.64 291.907 69.681 291.907 72.385C291.907 75.089 293.909 77.13 296.574 77.13ZM296.574 76.051C294.559 76.051 293.064 74.413 293.064 72.385C293.064 70.357 294.559 68.719 296.574 68.719C298.576 68.719 300.071 70.357 300.071 72.385C300.071 74.413 298.576 76.051 296.574 76.051ZM308.934 67.77C308.934 73.139 308.947 74.556 309.012 75.219L303.76 67.77H302.668V77H303.812C303.812 71.683 303.799 70.253 303.734 69.603L308.986 77H310.078V67.77H308.934ZM314.414 67.25L310.956 78.703H311.97L315.428 67.25H314.414ZM320.495 77.13C323.147 77.13 325.149 75.089 325.149 72.385C325.149 69.681 323.147 67.64 320.495 67.64C317.83 67.64 315.828 69.681 315.828 72.385C315.828 75.089 317.83 77.13 320.495 77.13ZM320.495 76.051C318.48 76.051 316.985 74.413 316.985 72.385C316.985 70.357 318.48 68.719 320.495 68.719C322.497 68.719 323.992 70.357 323.992 72.385C323.992 74.413 322.497 76.051 320.495 76.051ZM327.746 77V72.905H331.425V71.878H327.746V68.836H332.023V67.77H326.589V77H327.746ZM334.408 77V72.905H338.087V71.878H334.408V68.836H338.685V67.77H333.251V77H334.408Z" fill="black"/>
<circle cx="187" cy="73" r="5" fill="black"/>
<path opacity="0.7" d="M200.82 59.1C202.21 59.1 203.2 58.36 203.2 57.16C203.2 54.81 199.5 55.35 199.5 53.6C199.5 52.94 200.06 52.56 200.75 52.56C201.53 52.56 202.03 53.06 202.1 53.85L202.99 53.83C202.93 52.62 202.06 51.8 200.74 51.8C199.51 51.8 198.58 52.52 198.58 53.63C198.58 55.95 202.27 55.55 202.27 57.21C202.27 57.88 201.71 58.34 200.83 58.34C200.03 58.34 199.28 57.89 199.22 56.91H198.31C198.37 58.2 199.38 59.1 200.82 59.1ZM206.777 53.74C205.907 53.74 205.297 54.13 204.967 54.82V51.5H204.097V59H204.967V56.21C204.967 55.14 205.557 54.5 206.527 54.5C207.267 54.5 207.967 54.89 207.967 56.09V59H208.857V55.97C208.857 54.39 207.877 53.74 206.777 53.74ZM212.424 59.1C213.994 59.1 215.164 57.95 215.164 56.42C215.164 54.89 213.994 53.74 212.424 53.74C210.864 53.74 209.684 54.89 209.684 56.42C209.684 57.95 210.864 59.1 212.424 59.1ZM212.424 58.31C211.354 58.31 210.534 57.49 210.534 56.41C210.534 55.34 211.354 54.53 212.424 54.53C213.504 54.53 214.314 55.34 214.314 56.41C214.314 57.49 213.504 58.31 212.424 58.31ZM216.824 53.85H216.094V59H216.964V55.82C216.964 54.91 217.594 54.45 218.684 54.6L218.694 53.83C217.754 53.71 217.214 54.09 216.924 54.7L216.824 53.85ZM220.691 53.85V52.37H219.811V53.85H219.051V54.54H219.811V59H220.691V54.54H221.781V53.85H220.691ZM227.709 53.75C226.689 53.75 225.929 54.27 225.609 55.05V55.03L225.479 53.85H224.739V61.3H225.609V57.87C226.009 58.64 226.769 59.1 227.669 59.1C229.249 59.1 230.289 57.97 230.289 56.44C230.289 54.93 229.279 53.75 227.709 53.75ZM227.499 58.32C226.399 58.32 225.619 57.49 225.619 56.43C225.619 55.36 226.399 54.53 227.499 54.53C228.609 54.53 229.409 55.32 229.409 56.43C229.409 57.53 228.609 58.32 227.499 58.32ZM231.941 53.85H231.211V59H232.081V55.82C232.081 54.91 232.711 54.45 233.801 54.6L233.811 53.83C232.871 53.71 232.331 54.09 232.041 54.7L231.941 53.85ZM236.655 53.74C235.135 53.74 234.035 54.91 234.035 56.42C234.035 58.04 235.195 59.1 236.735 59.1C237.955 59.1 238.865 58.37 239.135 57.5L238.365 57.41C238.135 57.9 237.605 58.37 236.745 58.37C235.745 58.37 234.965 57.7 234.905 56.69H239.285C239.315 54.87 238.225 53.74 236.655 53.74ZM236.655 54.46C237.665 54.46 238.345 55.14 238.375 56.02H234.905C234.975 55.12 235.705 54.46 236.655 54.46ZM242.071 59.1C243.281 59.1 244.101 58.57 244.101 57.61C244.101 55.69 240.951 56.32 240.951 55.15C240.951 54.71 241.381 54.43 241.961 54.43C242.581 54.43 243.001 54.77 243.071 55.29L243.911 55.26C243.851 54.38 243.061 53.75 241.971 53.75C240.921 53.75 240.101 54.31 240.101 55.2C240.101 57.04 243.221 56.44 243.221 57.65C243.221 58.13 242.781 58.4 242.101 58.4C241.361 58.4 240.791 58.07 240.711 57.43L239.851 57.46C239.941 58.59 240.901 59.1 242.071 59.1ZM246.834 59.1C248.044 59.1 248.864 58.57 248.864 57.61C248.864 55.69 245.714 56.32 245.714 55.15C245.714 54.71 246.144 54.43 246.724 54.43C247.344 54.43 247.764 54.77 247.834 55.29L248.674 55.26C248.614 54.38 247.824 53.75 246.734 53.75C245.684 53.75 244.864 54.31 244.864 55.2C244.864 57.04 247.984 56.44 247.984 57.65C247.984 58.13 247.544 58.4 246.864 58.4C246.124 58.4 245.554 58.07 245.474 57.43L244.614 57.46C244.704 58.59 245.664 59.1 246.834 59.1Z" fill="black"/>
<path d="M261.148 59.13C262.461 59.13 263.358 58.714 263.878 58.285V57.128C263.41 57.57 262.591 58.077 261.291 58.077C259.289 58.077 257.703 56.465 257.703 54.385C257.703 52.305 259.276 50.693 261.291 50.693C262.591 50.693 263.397 51.2 263.878 51.642V50.485C263.358 50.056 262.461 49.64 261.148 49.64C258.561 49.64 256.546 51.733 256.546 54.385C256.546 57.037 258.561 59.13 261.148 59.13ZM270.928 53.826V53.761C270.408 52.773 269.42 52.162 268.25 52.162C266.196 52.162 264.844 53.644 264.844 55.633C264.844 57.596 266.157 59.13 268.198 59.13C269.524 59.13 270.512 58.454 270.928 57.427V59H272.072V52.305H271.097L270.928 53.826ZM268.471 58.116C267.028 58.116 265.988 57.089 265.988 55.646C265.988 54.216 267.028 53.189 268.471 53.189C269.901 53.189 270.915 54.268 270.915 55.646C270.915 57.037 269.901 58.116 268.471 58.116ZM281.253 52.162C280.135 52.162 279.381 52.695 278.965 53.475C278.575 52.643 277.808 52.162 276.833 52.162C275.793 52.162 275.091 52.682 274.714 53.449L274.558 52.305H273.609V59H274.74V55.126C274.74 53.839 275.468 53.15 276.469 53.15C277.431 53.15 278.12 53.813 278.12 55.126V59H279.251V55.126C279.251 53.839 279.966 53.15 280.98 53.15C281.942 53.15 282.618 53.813 282.618 55.126V59H283.762V54.853C283.762 53.202 282.761 52.162 281.253 52.162ZM288.265 52.162C286.289 52.162 284.859 53.683 284.859 55.646C284.859 57.752 286.367 59.13 288.369 59.13C289.955 59.13 291.138 58.181 291.489 57.05L290.488 56.933C290.189 57.57 289.5 58.181 288.382 58.181C287.082 58.181 286.068 57.31 285.99 55.997H291.684C291.723 53.631 290.306 52.162 288.265 52.162ZM288.265 53.098C289.578 53.098 290.462 53.982 290.501 55.126H285.99C286.081 53.956 287.03 53.098 288.265 53.098ZM293.823 52.305H292.874V59H294.005V54.866C294.005 53.683 294.824 53.085 296.241 53.28L296.254 52.279C295.032 52.123 294.33 52.617 293.953 53.41L293.823 52.305ZM302.629 53.826V53.761C302.109 52.773 301.121 52.162 299.951 52.162C297.897 52.162 296.545 53.644 296.545 55.633C296.545 57.596 297.858 59.13 299.899 59.13C301.225 59.13 302.213 58.454 302.629 57.427V59H303.773V52.305H302.798L302.629 53.826ZM300.172 58.116C298.729 58.116 297.689 57.089 297.689 55.646C297.689 54.216 298.729 53.189 300.172 53.189C301.602 53.189 302.616 54.268 302.616 55.646C302.616 57.037 301.602 58.116 300.172 58.116ZM315.769 52.162C314.651 52.162 313.897 52.695 313.481 53.475C313.091 52.643 312.324 52.162 311.349 52.162C310.309 52.162 309.607 52.682 309.23 53.449L309.074 52.305H308.125V59H309.256V55.126C309.256 53.839 309.984 53.15 310.985 53.15C311.947 53.15 312.636 53.813 312.636 55.126V59H313.767V55.126C313.767 53.839 314.482 53.15 315.496 53.15C316.458 53.15 317.134 53.813 317.134 55.126V59H318.278V54.853C318.278 53.202 317.277 52.162 315.769 52.162ZM322.937 59.13C324.978 59.13 326.499 57.635 326.499 55.646C326.499 53.657 324.978 52.162 322.937 52.162C320.909 52.162 319.375 53.657 319.375 55.646C319.375 57.635 320.909 59.13 322.937 59.13ZM322.937 58.103C321.546 58.103 320.48 57.037 320.48 55.633C320.48 54.242 321.546 53.189 322.937 53.189C324.341 53.189 325.394 54.242 325.394 55.633C325.394 57.037 324.341 58.103 322.937 58.103ZM333.454 53.761C332.934 52.773 331.946 52.162 330.776 52.162C328.722 52.162 327.37 53.644 327.37 55.633C327.37 57.596 328.683 59.13 330.724 59.13C332.05 59.13 333.038 58.454 333.454 57.427V59H334.585V49.25H333.454V53.761ZM330.997 58.116C329.554 58.116 328.514 57.089 328.514 55.646C328.514 54.216 329.554 53.189 330.997 53.189C332.427 53.189 333.441 54.268 333.441 55.646C333.441 57.037 332.427 58.116 330.997 58.116ZM339.19 52.162C337.214 52.162 335.784 53.683 335.784 55.646C335.784 57.752 337.292 59.13 339.294 59.13C340.88 59.13 342.063 58.181 342.414 57.05L341.413 56.933C341.114 57.57 340.425 58.181 339.307 58.181C338.007 58.181 336.993 57.31 336.915 55.997H342.609C342.648 53.631 341.231 52.162 339.19 52.162ZM339.19 53.098C340.503 53.098 341.387 53.982 341.426 55.126H336.915C337.006 53.956 337.955 53.098 339.19 53.098Z" fill="black"/>
<circle cx="187" cy="56" r="4.5" stroke="black"/>
<path opacity="0.7" d="M202.8 124V123.19H199.68V116.9H198.79V124H202.8ZM206.01 124.1C207.58 124.1 208.75 122.95 208.75 121.42C208.75 119.89 207.58 118.74 206.01 118.74C204.45 118.74 203.27 119.89 203.27 121.42C203.27 122.95 204.45 124.1 206.01 124.1ZM206.01 123.31C204.94 123.31 204.12 122.49 204.12 121.41C204.12 120.34 204.94 119.53 206.01 119.53C207.09 119.53 207.9 120.34 207.9 121.41C207.9 122.49 207.09 123.31 206.01 123.31ZM212.37 118.74C211.49 118.74 210.86 119.15 210.54 119.85L210.43 118.85H209.68V124H210.56V121.21C210.56 120.14 211.15 119.5 212.12 119.5C212.86 119.5 213.56 119.89 213.56 121.09V124H214.44V120.97C214.44 119.39 213.47 118.74 212.37 118.74ZM219.957 120.03V119.97C219.557 119.21 218.797 118.74 217.897 118.74C216.317 118.74 215.277 119.88 215.277 121.41C215.277 122.92 216.287 124.1 217.857 124.1C218.877 124.1 219.637 123.58 219.957 122.79V123.54C219.957 125.04 219.197 125.67 217.977 125.67C217.007 125.67 216.227 125.22 215.887 124.99V125.78C216.457 126.2 217.337 126.43 218.147 126.43C219.827 126.43 220.827 125.41 220.827 123.54V118.85H220.097L219.957 120.03ZM218.067 123.32C216.957 123.32 216.157 122.53 216.157 121.42C216.157 120.32 216.957 119.53 218.067 119.53C219.167 119.53 219.947 120.36 219.947 121.42C219.947 122.49 219.167 123.32 218.067 123.32ZM227.145 118.75C226.125 118.75 225.365 119.27 225.045 120.05V120.03L224.915 118.85H224.175V126.3H225.045V122.87C225.445 123.64 226.205 124.1 227.105 124.1C228.685 124.1 229.725 122.97 229.725 121.44C229.725 119.93 228.715 118.75 227.145 118.75ZM226.935 123.32C225.835 123.32 225.055 122.49 225.055 121.43C225.055 120.36 225.835 119.53 226.935 119.53C228.045 119.53 228.845 120.32 228.845 121.43C228.845 122.53 228.045 123.32 226.935 123.32ZM231.377 118.85H230.647V124H231.517V120.82C231.517 119.91 232.147 119.45 233.237 119.6L233.247 118.83C232.307 118.71 231.767 119.09 231.477 119.7L231.377 118.85ZM236.091 118.74C234.571 118.74 233.471 119.91 233.471 121.42C233.471 123.04 234.631 124.1 236.171 124.1C237.391 124.1 238.301 123.37 238.571 122.5L237.801 122.41C237.571 122.9 237.041 123.37 236.181 123.37C235.181 123.37 234.401 122.7 234.341 121.69H238.721C238.751 119.87 237.661 118.74 236.091 118.74ZM236.091 119.46C237.101 119.46 237.781 120.14 237.811 121.02H234.341C234.411 120.12 235.141 119.46 236.091 119.46ZM241.507 124.1C242.717 124.1 243.537 123.57 243.537 122.61C243.537 120.69 240.387 121.32 240.387 120.15C240.387 119.71 240.817 119.43 241.397 119.43C242.017 119.43 242.437 119.77 242.507 120.29L243.347 120.26C243.287 119.38 242.497 118.75 241.407 118.75C240.357 118.75 239.537 119.31 239.537 120.2C239.537 122.04 242.657 121.44 242.657 122.65C242.657 123.13 242.217 123.4 241.537 123.4C240.797 123.4 240.227 123.07 240.147 122.43L239.287 122.46C239.377 123.59 240.337 124.1 241.507 124.1ZM246.27 124.1C247.48 124.1 248.3 123.57 248.3 122.61C248.3 120.69 245.15 121.32 245.15 120.15C245.15 119.71 245.58 119.43 246.16 119.43C246.78 119.43 247.2 119.77 247.27 120.29L248.11 120.26C248.05 119.38 247.26 118.75 246.17 118.75C245.12 118.75 244.3 119.31 244.3 120.2C244.3 122.04 247.42 121.44 247.42 122.65C247.42 123.13 246.98 123.4 246.3 123.4C245.56 123.4 244.99 123.07 244.91 122.43L244.05 122.46C244.14 123.59 245.1 124.1 246.27 124.1Z" fill="black"/>
<path d="M261.134 124V115.823H263.721V114.77H257.39V115.823H259.964V124H261.134ZM269.174 118.826V118.761C268.654 117.773 267.666 117.162 266.496 117.162C264.442 117.162 263.09 118.644 263.09 120.633C263.09 122.596 264.403 124.13 266.444 124.13C267.77 124.13 268.758 123.454 269.174 122.427V124H270.318V117.305H269.343L269.174 118.826ZM266.717 123.116C265.274 123.116 264.234 122.089 264.234 120.646C264.234 119.216 265.274 118.189 266.717 118.189C268.147 118.189 269.161 119.268 269.161 120.646C269.161 122.037 268.147 123.116 266.717 123.116ZM274.051 120.399L277.665 117.305H276.3L272.907 120.191C272.985 118.761 272.985 117.162 272.985 114.25H271.854V124H272.985C272.985 122.583 272.972 121.543 272.907 120.62L276.313 124H277.678L274.051 120.399ZM279.152 116.304C279.555 116.304 279.88 115.979 279.88 115.589C279.88 115.186 279.555 114.861 279.152 114.861C278.749 114.861 278.437 115.186 278.437 115.589C278.437 115.979 278.749 116.304 279.152 116.304ZM278.58 117.305V124H279.711V117.305H278.58ZM284.74 117.162C283.596 117.162 282.777 117.695 282.361 118.605L282.218 117.305H281.243V124H282.387V120.373C282.387 118.982 283.154 118.15 284.415 118.15C285.377 118.15 286.287 118.657 286.287 120.217V124H287.431V120.061C287.431 118.007 286.17 117.162 284.74 117.162ZM294.603 118.839V118.761C294.083 117.773 293.095 117.162 291.925 117.162C289.871 117.162 288.519 118.644 288.519 120.633C288.519 122.596 289.832 124.13 291.873 124.13C293.199 124.13 294.187 123.454 294.603 122.427V123.402C294.603 125.352 293.615 126.171 292.029 126.171C290.768 126.171 289.754 125.586 289.312 125.287V126.314C290.053 126.86 291.197 127.159 292.25 127.159C294.434 127.159 295.734 125.833 295.734 123.402V117.305H294.785L294.603 118.839ZM292.146 123.116C290.703 123.116 289.663 122.089 289.663 120.646C289.663 119.216 290.703 118.189 292.146 118.189C293.576 118.189 294.59 119.268 294.59 120.646C294.59 122.037 293.576 123.116 292.146 123.116ZM304.922 117.305C303.349 121.348 303.076 122.141 302.868 123.051C302.647 122.206 302.361 121.4 300.736 117.305H299.501L302.27 124H303.44L306.131 117.305H304.922ZM307.65 116.304C308.053 116.304 308.378 115.979 308.378 115.589C308.378 115.186 308.053 114.861 307.65 114.861C307.247 114.861 306.935 115.186 306.935 115.589C306.935 115.979 307.247 116.304 307.65 116.304ZM307.078 117.305V124H308.209V117.305H307.078ZM315.487 118.761C314.967 117.773 313.979 117.162 312.809 117.162C310.755 117.162 309.403 118.644 309.403 120.633C309.403 122.596 310.716 124.13 312.757 124.13C314.083 124.13 315.071 123.454 315.487 122.427V124H316.618V114.25H315.487V118.761ZM313.03 123.116C311.587 123.116 310.547 122.089 310.547 120.646C310.547 119.216 311.587 118.189 313.03 118.189C314.46 118.189 315.474 119.268 315.474 120.646C315.474 122.037 314.46 123.116 313.03 123.116ZM321.223 117.162C319.247 117.162 317.817 118.683 317.817 120.646C317.817 122.752 319.325 124.13 321.327 124.13C322.913 124.13 324.096 123.181 324.447 122.05L323.446 121.933C323.147 122.57 322.458 123.181 321.34 123.181C320.04 123.181 319.026 122.31 318.948 120.997H324.642C324.681 118.631 323.264 117.162 321.223 117.162ZM321.223 118.098C322.536 118.098 323.42 118.982 323.459 120.126H318.948C319.039 118.956 319.988 118.098 321.223 118.098ZM329.057 124.13C331.098 124.13 332.619 122.635 332.619 120.646C332.619 118.657 331.098 117.162 329.057 117.162C327.029 117.162 325.495 118.657 325.495 120.646C325.495 122.635 327.029 124.13 329.057 124.13ZM329.057 123.103C327.666 123.103 326.6 122.037 326.6 120.633C326.6 119.242 327.666 118.189 329.057 118.189C330.461 118.189 331.514 119.242 331.514 120.633C331.514 122.037 330.461 123.103 329.057 123.103Z" fill="black"/>
<circle cx="187" cy="120" r="5" fill="black"/>
<path opacity="0.7" d="M200.82 106.1C202.21 106.1 203.2 105.36 203.2 104.16C203.2 101.81 199.5 102.35 199.5 100.6C199.5 99.94 200.06 99.56 200.75 99.56C201.53 99.56 202.03 100.06 202.1 100.85L202.99 100.83C202.93 99.62 202.06 98.8 200.74 98.8C199.51 98.8 198.58 99.52 198.58 100.63C198.58 102.95 202.27 102.55 202.27 104.21C202.27 104.88 201.71 105.34 200.83 105.34C200.03 105.34 199.28 104.89 199.22 103.91H198.31C198.37 105.2 199.38 106.1 200.82 106.1ZM206.777 100.74C205.907 100.74 205.297 101.13 204.967 101.82V98.5H204.097V106H204.967V103.21C204.967 102.14 205.557 101.5 206.527 101.5C207.267 101.5 207.967 101.89 207.967 103.09V106H208.857V102.97C208.857 101.39 207.877 100.74 206.777 100.74ZM212.424 106.1C213.994 106.1 215.164 104.95 215.164 103.42C215.164 101.89 213.994 100.74 212.424 100.74C210.864 100.74 209.684 101.89 209.684 103.42C209.684 104.95 210.864 106.1 212.424 106.1ZM212.424 105.31C211.354 105.31 210.534 104.49 210.534 103.41C210.534 102.34 211.354 101.53 212.424 101.53C213.504 101.53 214.314 102.34 214.314 103.41C214.314 104.49 213.504 105.31 212.424 105.31ZM216.824 100.85H216.094V106H216.964V102.82C216.964 101.91 217.594 101.45 218.684 101.6L218.694 100.83C217.754 100.71 217.214 101.09 216.924 101.7L216.824 100.85ZM220.691 100.85V99.37H219.811V100.85H219.051V101.54H219.811V106H220.691V101.54H221.781V100.85H220.691ZM227.709 100.75C226.689 100.75 225.929 101.27 225.609 102.05V102.03L225.479 100.85H224.739V108.3H225.609V104.87C226.009 105.64 226.769 106.1 227.669 106.1C229.249 106.1 230.289 104.97 230.289 103.44C230.289 101.93 229.279 100.75 227.709 100.75ZM227.499 105.32C226.399 105.32 225.619 104.49 225.619 103.43C225.619 102.36 226.399 101.53 227.499 101.53C228.609 101.53 229.409 102.32 229.409 103.43C229.409 104.53 228.609 105.32 227.499 105.32ZM231.941 100.85H231.211V106H232.081V102.82C232.081 101.91 232.711 101.45 233.801 101.6L233.811 100.83C232.871 100.71 232.331 101.09 232.041 101.7L231.941 100.85ZM236.655 100.74C235.135 100.74 234.035 101.91 234.035 103.42C234.035 105.04 235.195 106.1 236.735 106.1C237.955 106.1 238.865 105.37 239.135 104.5L238.365 104.41C238.135 104.9 237.605 105.37 236.745 105.37C235.745 105.37 234.965 104.7 234.905 103.69H239.285C239.315 101.87 238.225 100.74 236.655 100.74ZM236.655 101.46C237.665 101.46 238.345 102.14 238.375 103.02H234.905C234.975 102.12 235.705 101.46 236.655 101.46ZM242.071 106.1C243.281 106.1 244.101 105.57 244.101 104.61C244.101 102.69 240.951 103.32 240.951 102.15C240.951 101.71 241.381 101.43 241.961 101.43C242.581 101.43 243.001 101.77 243.071 102.29L243.911 102.26C243.851 101.38 243.061 100.75 241.971 100.75C240.921 100.75 240.101 101.31 240.101 102.2C240.101 104.04 243.221 103.44 243.221 104.65C243.221 105.13 242.781 105.4 242.101 105.4C241.361 105.4 240.791 105.07 240.711 104.43L239.851 104.46C239.941 105.59 240.901 106.1 242.071 106.1ZM246.834 106.1C248.044 106.1 248.864 105.57 248.864 104.61C248.864 102.69 245.714 103.32 245.714 102.15C245.714 101.71 246.144 101.43 246.724 101.43C247.344 101.43 247.764 101.77 247.834 102.29L248.674 102.26C248.614 101.38 247.824 100.75 246.734 100.75C245.684 100.75 244.864 101.31 244.864 102.2C244.864 104.04 247.984 103.44 247.984 104.65C247.984 105.13 247.544 105.4 246.864 105.4C246.124 105.4 245.554 105.07 245.474 104.43L244.614 104.46C244.704 105.59 245.664 106.1 246.834 106.1Z" fill="black"/>
<path d="M260.134 106V97.823H262.721V96.77H256.39V97.823H258.964V106H260.134ZM268.174 100.826V100.761C267.654 99.773 266.666 99.162 265.496 99.162C263.442 99.162 262.09 100.644 262.09 102.633C262.09 104.596 263.403 106.13 265.444 106.13C266.77 106.13 267.758 105.454 268.174 104.427V106H269.318V99.305H268.343L268.174 100.826ZM265.717 105.116C264.274 105.116 263.234 104.089 263.234 102.646C263.234 101.216 264.274 100.189 265.717 100.189C267.147 100.189 268.161 101.268 268.161 102.646C268.161 104.037 267.147 105.116 265.717 105.116ZM273.051 102.399L276.665 99.305H275.3L271.907 102.191C271.985 100.761 271.985 99.162 271.985 96.25H270.854V106H271.985C271.985 104.583 271.972 103.543 271.907 102.62L275.313 106H276.678L273.051 102.399ZM278.152 98.304C278.555 98.304 278.88 97.979 278.88 97.589C278.88 97.186 278.555 96.861 278.152 96.861C277.749 96.861 277.437 97.186 277.437 97.589C277.437 97.979 277.749 98.304 278.152 98.304ZM277.58 99.305V106H278.711V99.305H277.58ZM283.74 99.162C282.596 99.162 281.777 99.695 281.361 100.605L281.218 99.305H280.243V106H281.387V102.373C281.387 100.982 282.154 100.15 283.415 100.15C284.377 100.15 285.287 100.657 285.287 102.217V106H286.431V102.061C286.431 100.007 285.17 99.162 283.74 99.162ZM293.603 100.839V100.761C293.083 99.773 292.095 99.162 290.925 99.162C288.871 99.162 287.519 100.644 287.519 102.633C287.519 104.596 288.832 106.13 290.873 106.13C292.199 106.13 293.187 105.454 293.603 104.427V105.402C293.603 107.352 292.615 108.171 291.029 108.171C289.768 108.171 288.754 107.586 288.312 107.287V108.314C289.053 108.86 290.197 109.159 291.25 109.159C293.434 109.159 294.734 107.833 294.734 105.402V99.305H293.785L293.603 100.839ZM291.146 105.116C289.703 105.116 288.663 104.089 288.663 102.646C288.663 101.216 289.703 100.189 291.146 100.189C292.576 100.189 293.59 101.268 293.59 102.646C293.59 104.037 292.576 105.116 291.146 105.116ZM302.947 99.175C301.621 99.175 300.633 99.851 300.217 100.865V100.839L300.048 99.305H299.086V108.99H300.217V104.531C300.737 105.532 301.725 106.13 302.895 106.13C304.949 106.13 306.301 104.661 306.301 102.672C306.301 100.709 304.988 99.175 302.947 99.175ZM302.674 105.116C301.244 105.116 300.23 104.037 300.23 102.659C300.23 101.268 301.244 100.189 302.674 100.189C304.117 100.189 305.157 101.216 305.157 102.659C305.157 104.089 304.117 105.116 302.674 105.116ZM310.984 99.162C309.853 99.162 309.06 99.669 308.631 100.566V96.25H307.5V106H308.631V102.373C308.631 100.982 309.398 100.15 310.659 100.15C311.621 100.15 312.531 100.657 312.531 102.217V106H313.688V102.061C313.688 100.007 312.414 99.162 310.984 99.162ZM318.325 106.13C320.366 106.13 321.887 104.635 321.887 102.646C321.887 100.657 320.366 99.162 318.325 99.162C316.297 99.162 314.763 100.657 314.763 102.646C314.763 104.635 316.297 106.13 318.325 106.13ZM318.325 105.103C316.934 105.103 315.868 104.037 315.868 102.633C315.868 101.242 316.934 100.189 318.325 100.189C319.729 100.189 320.782 101.242 320.782 102.633C320.782 104.037 319.729 105.103 318.325 105.103ZM324.581 99.305V97.381H323.437V99.305H322.449V100.202H323.437V106H324.581V100.202H325.998V99.305H324.581ZM329.847 106.13C331.888 106.13 333.409 104.635 333.409 102.646C333.409 100.657 331.888 99.162 329.847 99.162C327.819 99.162 326.285 100.657 326.285 102.646C326.285 104.635 327.819 106.13 329.847 106.13ZM329.847 105.103C328.456 105.103 327.39 104.037 327.39 102.633C327.39 101.242 328.456 100.189 329.847 100.189C331.251 100.189 332.304 101.242 332.304 102.633C332.304 104.037 331.251 105.103 329.847 105.103Z" fill="black"/>
<circle cx="187" cy="103" r="4.5" stroke="black"/>
<path opacity="0.7" d="M202.8 171V170.19H199.68V163.9H198.79V171H202.8ZM206.01 171.1C207.58 171.1 208.75 169.95 208.75 168.42C208.75 166.89 207.58 165.74 206.01 165.74C204.45 165.74 203.27 166.89 203.27 168.42C203.27 169.95 204.45 171.1 206.01 171.1ZM206.01 170.31C204.94 170.31 204.12 169.49 204.12 168.41C204.12 167.34 204.94 166.53 206.01 166.53C207.09 166.53 207.9 167.34 207.9 168.41C207.9 169.49 207.09 170.31 206.01 170.31ZM212.37 165.74C211.49 165.74 210.86 166.15 210.54 166.85L210.43 165.85H209.68V171H210.56V168.21C210.56 167.14 211.15 166.5 212.12 166.5C212.86 166.5 213.56 166.89 213.56 168.09V171H214.44V167.97C214.44 166.39 213.47 165.74 212.37 165.74ZM219.957 167.03V166.97C219.557 166.21 218.797 165.74 217.897 165.74C216.317 165.74 215.277 166.88 215.277 168.41C215.277 169.92 216.287 171.1 217.857 171.1C218.877 171.1 219.637 170.58 219.957 169.79V170.54C219.957 172.04 219.197 172.67 217.977 172.67C217.007 172.67 216.227 172.22 215.887 171.99V172.78C216.457 173.2 217.337 173.43 218.147 173.43C219.827 173.43 220.827 172.41 220.827 170.54V165.85H220.097L219.957 167.03ZM218.067 170.32C216.957 170.32 216.157 169.53 216.157 168.42C216.157 167.32 216.957 166.53 218.067 166.53C219.167 166.53 219.947 167.36 219.947 168.42C219.947 169.49 219.167 170.32 218.067 170.32ZM227.145 165.75C226.125 165.75 225.365 166.27 225.045 167.05V167.03L224.915 165.85H224.175V173.3H225.045V169.87C225.445 170.64 226.205 171.1 227.105 171.1C228.685 171.1 229.725 169.97 229.725 168.44C229.725 166.93 228.715 165.75 227.145 165.75ZM226.935 170.32C225.835 170.32 225.055 169.49 225.055 168.43C225.055 167.36 225.835 166.53 226.935 166.53C228.045 166.53 228.845 167.32 228.845 168.43C228.845 169.53 228.045 170.32 226.935 170.32ZM231.377 165.85H230.647V171H231.517V167.82C231.517 166.91 232.147 166.45 233.237 166.6L233.247 165.83C232.307 165.71 231.767 166.09 231.477 166.7L231.377 165.85ZM236.091 165.74C234.571 165.74 233.471 166.91 233.471 168.42C233.471 170.04 234.631 171.1 236.171 171.1C237.391 171.1 238.301 170.37 238.571 169.5L237.801 169.41C237.571 169.9 237.041 170.37 236.181 170.37C235.181 170.37 234.401 169.7 234.341 168.69H238.721C238.751 166.87 237.661 165.74 236.091 165.74ZM236.091 166.46C237.101 166.46 237.781 167.14 237.811 168.02H234.341C234.411 167.12 235.141 166.46 236.091 166.46ZM241.507 171.1C242.717 171.1 243.537 170.57 243.537 169.61C243.537 167.69 240.387 168.32 240.387 167.15C240.387 166.71 240.817 166.43 241.397 166.43C242.017 166.43 242.437 166.77 242.507 167.29L243.347 167.26C243.287 166.38 242.497 165.75 241.407 165.75C240.357 165.75 239.537 166.31 239.537 167.2C239.537 169.04 242.657 168.44 242.657 169.65C242.657 170.13 242.217 170.4 241.537 170.4C240.797 170.4 240.227 170.07 240.147 169.43L239.287 169.46C239.377 170.59 240.337 171.1 241.507 171.1ZM246.27 171.1C247.48 171.1 248.3 170.57 248.3 169.61C248.3 167.69 245.15 168.32 245.15 167.15C245.15 166.71 245.58 166.43 246.16 166.43C246.78 166.43 247.2 166.77 247.27 167.29L248.11 167.26C248.05 166.38 247.26 165.75 246.17 165.75C245.12 165.75 244.3 166.31 244.3 167.2C244.3 169.04 247.42 168.44 247.42 169.65C247.42 170.13 246.98 170.4 246.3 170.4C245.56 170.4 244.99 170.07 244.91 169.43L244.05 169.46C244.14 170.59 245.1 171.1 246.27 171.1Z" fill="black"/>
<path d="M264.436 171C261.992 168.478 261.121 167.555 260.666 167.126H261.381C262.915 167.126 264.345 166.255 264.345 164.448C264.345 162.836 263.201 161.77 261.277 161.77H258.027V171H259.184C259.184 169.05 259.184 167.724 259.093 166.775L263.006 171H264.436ZM263.188 164.539C263.188 165.553 262.486 166.281 261.147 166.281H259.184V162.823H261.147C262.486 162.823 263.188 163.538 263.188 164.539ZM268.219 164.162C266.243 164.162 264.813 165.683 264.813 167.646C264.813 169.752 266.321 171.13 268.323 171.13C269.909 171.13 271.092 170.181 271.443 169.05L270.442 168.933C270.143 169.57 269.454 170.181 268.336 170.181C267.036 170.181 266.022 169.31 265.944 167.997H271.638C271.677 165.631 270.26 164.162 268.219 164.162ZM268.219 165.098C269.532 165.098 270.416 165.982 270.455 167.126H265.944C266.035 165.956 266.984 165.098 268.219 165.098ZM278.445 165.826V165.761C277.925 164.773 276.937 164.162 275.767 164.162C273.713 164.162 272.361 165.644 272.361 167.633C272.361 169.596 273.674 171.13 275.715 171.13C277.041 171.13 278.029 170.454 278.445 169.427V171H279.589V164.305H278.614L278.445 165.826ZM275.988 170.116C274.545 170.116 273.505 169.089 273.505 167.646C273.505 166.216 274.545 165.189 275.988 165.189C277.418 165.189 278.432 166.268 278.432 167.646C278.432 169.037 277.418 170.116 275.988 170.116ZM280.995 161.25V171H282.126V161.25H280.995ZM287.813 164.305V162.381H286.669V164.305H285.681V165.202H286.669V171H287.813V165.202H289.23V164.305H287.813ZM290.702 163.304C291.105 163.304 291.43 162.979 291.43 162.589C291.43 162.186 291.105 161.861 290.702 161.861C290.299 161.861 289.987 162.186 289.987 162.589C289.987 162.979 290.299 163.304 290.702 163.304ZM290.13 164.305V171H291.261V164.305H290.13ZM300.307 164.162C299.189 164.162 298.435 164.695 298.019 165.475C297.629 164.643 296.862 164.162 295.887 164.162C294.847 164.162 294.145 164.682 293.768 165.449L293.612 164.305H292.663V171H293.794V167.126C293.794 165.839 294.522 165.15 295.523 165.15C296.485 165.15 297.174 165.813 297.174 167.126V171H298.305V167.126C298.305 165.839 299.02 165.15 300.034 165.15C300.996 165.15 301.672 165.813 301.672 167.126V171H302.816V166.853C302.816 165.202 301.815 164.162 300.307 164.162ZM307.189 164.162C305.213 164.162 303.783 165.683 303.783 167.646C303.783 169.752 305.291 171.13 307.293 171.13C308.879 171.13 310.062 170.181 310.413 169.05L309.412 168.933C309.113 169.57 308.424 170.181 307.306 170.181C306.006 170.181 304.992 169.31 304.914 167.997H310.608C310.647 165.631 309.23 164.162 307.189 164.162ZM307.189 165.098C308.502 165.098 309.386 165.982 309.425 167.126H304.914C305.005 165.956 305.954 165.098 307.189 165.098ZM261.043 191.13C261.888 191.13 262.629 190.87 263.201 190.337V189.219C262.668 189.739 262.005 190.116 261.147 190.116C259.73 190.116 258.638 189.037 258.638 187.646C258.638 186.255 259.73 185.189 261.147 185.189C262.005 185.189 262.668 185.553 263.201 186.086V184.955C262.629 184.435 261.888 184.162 261.043 184.162C258.963 184.162 257.494 185.657 257.494 187.646C257.494 189.635 258.963 191.13 261.043 191.13ZM267.575 191.13C269.616 191.13 271.137 189.635 271.137 187.646C271.137 185.657 269.616 184.162 267.575 184.162C265.547 184.162 264.013 185.657 264.013 187.646C264.013 189.635 265.547 191.13 267.575 191.13ZM267.575 190.103C266.184 190.103 265.118 189.037 265.118 187.633C265.118 186.242 266.184 185.189 267.575 185.189C268.979 185.189 270.032 186.242 270.032 187.633C270.032 189.037 268.979 190.103 267.575 190.103ZM272.216 181.25V191H273.347V181.25H272.216ZM277.973 191.13C280.014 191.13 281.535 189.635 281.535 187.646C281.535 185.657 280.014 184.162 277.973 184.162C275.945 184.162 274.411 185.657 274.411 187.646C274.411 189.635 275.945 191.13 277.973 191.13ZM277.973 190.103C276.582 190.103 275.516 189.037 275.516 187.633C275.516 186.242 276.582 185.189 277.973 185.189C279.377 185.189 280.43 186.242 280.43 187.633C280.43 189.037 279.377 190.103 277.973 190.103ZM283.563 184.305H282.614V191H283.745V186.866C283.745 185.683 284.564 185.085 285.981 185.28L285.994 184.279C284.772 184.123 284.07 184.617 283.693 185.41L283.563 184.305ZM292.757 191.13C293.602 191.13 294.343 190.87 294.915 190.337V189.219C294.382 189.739 293.719 190.116 292.861 190.116C291.444 190.116 290.352 189.037 290.352 187.646C290.352 186.255 291.444 185.189 292.861 185.189C293.719 185.189 294.382 185.553 294.915 186.086V184.955C294.343 184.435 293.602 184.162 292.757 184.162C290.677 184.162 289.208 185.657 289.208 187.646C289.208 189.635 290.677 191.13 292.757 191.13ZM299.29 191.13C301.331 191.13 302.852 189.635 302.852 187.646C302.852 185.657 301.331 184.162 299.29 184.162C297.262 184.162 295.728 185.657 295.728 187.646C295.728 189.635 297.262 191.13 299.29 191.13ZM299.29 190.103C297.899 190.103 296.833 189.037 296.833 187.633C296.833 186.242 297.899 185.189 299.29 185.189C300.694 185.189 301.747 186.242 301.747 187.633C301.747 189.037 300.694 190.103 299.29 190.103ZM304.88 184.305H303.931V191H305.062V186.866C305.062 185.683 305.881 185.085 307.298 185.28L307.311 184.279C306.089 184.123 305.387 184.617 305.01 185.41L304.88 184.305ZM309.127 184.305H308.178V191H309.309V186.866C309.309 185.683 310.128 185.085 311.545 185.28L311.558 184.279C310.336 184.123 309.634 184.617 309.257 185.41L309.127 184.305ZM315.124 184.162C313.148 184.162 311.718 185.683 311.718 187.646C311.718 189.752 313.226 191.13 315.228 191.13C316.814 191.13 317.997 190.181 318.348 189.05L317.347 188.933C317.048 189.57 316.359 190.181 315.241 190.181C313.941 190.181 312.927 189.31 312.849 187.997H318.543C318.582 185.631 317.165 184.162 315.124 184.162ZM315.124 185.098C316.437 185.098 317.321 185.982 317.36 187.126H312.849C312.94 185.956 313.889 185.098 315.124 185.098ZM322.815 191.13C323.66 191.13 324.401 190.87 324.973 190.337V189.219C324.44 189.739 323.777 190.116 322.919 190.116C321.502 190.116 320.41 189.037 320.41 187.646C320.41 186.255 321.502 185.189 322.919 185.189C323.777 185.189 324.44 185.553 324.973 186.086V184.955C324.401 184.435 323.66 184.162 322.815 184.162C320.735 184.162 319.266 185.657 319.266 187.646C319.266 189.635 320.735 191.13 322.815 191.13ZM327.608 184.305V182.381H326.464V184.305H325.476V185.202H326.464V191H327.608V185.202H329.025V184.305H327.608ZM330.498 183.304C330.901 183.304 331.226 182.979 331.226 182.589C331.226 182.186 330.901 181.861 330.498 181.861C330.095 181.861 329.783 182.186 329.783 182.589C329.783 182.979 330.095 183.304 330.498 183.304ZM329.926 184.305V191H331.057V184.305H329.926ZM335.683 191.13C337.724 191.13 339.245 189.635 339.245 187.646C339.245 185.657 337.724 184.162 335.683 184.162C333.655 184.162 332.121 185.657 332.121 187.646C332.121 189.635 333.655 191.13 335.683 191.13ZM335.683 190.103C334.292 190.103 333.226 189.037 333.226 187.633C333.226 186.242 334.292 185.189 335.683 185.189C337.087 185.189 338.14 186.242 338.14 187.633C338.14 189.037 337.087 190.103 335.683 190.103ZM343.821 184.162C342.677 184.162 341.858 184.695 341.442 185.605L341.299 184.305H340.324V191H341.468V187.373C341.468 185.982 342.235 185.15 343.496 185.15C344.458 185.15 345.368 185.657 345.368 187.217V191H346.512V187.061C346.512 185.007 345.251 184.162 343.821 184.162ZM262.213 211.13C264.865 211.13 266.867 209.089 266.867 206.385C266.867 203.681 264.865 201.64 262.213 201.64C259.548 201.64 257.546 203.681 257.546 206.385C257.546 209.089 259.548 211.13 262.213 211.13ZM262.213 210.051C260.198 210.051 258.703 208.413 258.703 206.385C258.703 204.357 260.198 202.719 262.213 202.719C264.215 202.719 265.71 204.357 265.71 206.385C265.71 208.413 264.215 210.051 262.213 210.051ZM274.443 201.77C274.443 207.139 274.456 208.556 274.521 209.219L269.269 201.77H268.177V211H269.321C269.321 205.683 269.308 204.253 269.243 203.603L274.495 211H275.587V201.77H274.443ZM279.793 201.25L276.335 212.703H277.349L280.807 201.25H279.793ZM285.745 211.13C288.397 211.13 290.399 209.089 290.399 206.385C290.399 203.681 288.397 201.64 285.745 201.64C283.08 201.64 281.078 203.681 281.078 206.385C281.078 209.089 283.08 211.13 285.745 211.13ZM285.745 210.051C283.73 210.051 282.235 208.413 282.235 206.385C282.235 204.357 283.73 202.719 285.745 202.719C287.747 202.719 289.242 204.357 289.242 206.385C289.242 208.413 287.747 210.051 285.745 210.051ZM292.866 211V206.905H296.545V205.878H292.866V202.836H297.143V201.77H291.709V211H292.866ZM299.398 211V206.905H303.077V205.878H299.398V202.836H303.675V201.77H298.241V211H299.398Z" fill="black"/>
<circle cx="187" cy="167" r="5" fill="black"/>
<path opacity="0.7" d="M200.82 153.1C202.21 153.1 203.2 152.36 203.2 151.16C203.2 148.81 199.5 149.35 199.5 147.6C199.5 146.94 200.06 146.56 200.75 146.56C201.53 146.56 202.03 147.06 202.1 147.85L202.99 147.83C202.93 146.62 202.06 145.8 200.74 145.8C199.51 145.8 198.58 146.52 198.58 147.63C198.58 149.95 202.27 149.55 202.27 151.21C202.27 151.88 201.71 152.34 200.83 152.34C200.03 152.34 199.28 151.89 199.22 150.91H198.31C198.37 152.2 199.38 153.1 200.82 153.1ZM206.777 147.74C205.907 147.74 205.297 148.13 204.967 148.82V145.5H204.097V153H204.967V150.21C204.967 149.14 205.557 148.5 206.527 148.5C207.267 148.5 207.967 148.89 207.967 150.09V153H208.857V149.97C208.857 148.39 207.877 147.74 206.777 147.74ZM212.424 153.1C213.994 153.1 215.164 151.95 215.164 150.42C215.164 148.89 213.994 147.74 212.424 147.74C210.864 147.74 209.684 148.89 209.684 150.42C209.684 151.95 210.864 153.1 212.424 153.1ZM212.424 152.31C211.354 152.31 210.534 151.49 210.534 150.41C210.534 149.34 211.354 148.53 212.424 148.53C213.504 148.53 214.314 149.34 214.314 150.41C214.314 151.49 213.504 152.31 212.424 152.31ZM216.824 147.85H216.094V153H216.964V149.82C216.964 148.91 217.594 148.45 218.684 148.6L218.694 147.83C217.754 147.71 217.214 148.09 216.924 148.7L216.824 147.85ZM220.691 147.85V146.37H219.811V147.85H219.051V148.54H219.811V153H220.691V148.54H221.781V147.85H220.691ZM227.709 147.75C226.689 147.75 225.929 148.27 225.609 149.05V149.03L225.479 147.85H224.739V155.3H225.609V151.87C226.009 152.64 226.769 153.1 227.669 153.1C229.249 153.1 230.289 151.97 230.289 150.44C230.289 148.93 229.279 147.75 227.709 147.75ZM227.499 152.32C226.399 152.32 225.619 151.49 225.619 150.43C225.619 149.36 226.399 148.53 227.499 148.53C228.609 148.53 229.409 149.32 229.409 150.43C229.409 151.53 228.609 152.32 227.499 152.32ZM231.941 147.85H231.211V153H232.081V149.82C232.081 148.91 232.711 148.45 233.801 148.6L233.811 147.83C232.871 147.71 232.331 148.09 232.041 148.7L231.941 147.85ZM236.655 147.74C235.135 147.74 234.035 148.91 234.035 150.42C234.035 152.04 235.195 153.1 236.735 153.1C237.955 153.1 238.865 152.37 239.135 151.5L238.365 151.41C238.135 151.9 237.605 152.37 236.745 152.37C235.745 152.37 234.965 151.7 234.905 150.69H239.285C239.315 148.87 238.225 147.74 236.655 147.74ZM236.655 148.46C237.665 148.46 238.345 149.14 238.375 150.02H234.905C234.975 149.12 235.705 148.46 236.655 148.46ZM242.071 153.1C243.281 153.1 244.101 152.57 244.101 151.61C244.101 149.69 240.951 150.32 240.951 149.15C240.951 148.71 241.381 148.43 241.961 148.43C242.581 148.43 243.001 148.77 243.071 149.29L243.911 149.26C243.851 148.38 243.061 147.75 241.971 147.75C240.921 147.75 240.101 148.31 240.101 149.2C240.101 151.04 243.221 150.44 243.221 151.65C243.221 152.13 242.781 152.4 242.101 152.4C241.361 152.4 240.791 152.07 240.711 151.43L239.851 151.46C239.941 152.59 240.901 153.1 242.071 153.1ZM246.834 153.1C248.044 153.1 248.864 152.57 248.864 151.61C248.864 149.69 245.714 150.32 245.714 149.15C245.714 148.71 246.144 148.43 246.724 148.43C247.344 148.43 247.764 148.77 247.834 149.29L248.674 149.26C248.614 148.38 247.824 147.75 246.734 147.75C245.684 147.75 244.864 148.31 244.864 149.2C244.864 151.04 247.984 150.44 247.984 151.65C247.984 152.13 247.544 152.4 246.864 152.4C246.124 152.4 245.554 152.07 245.474 151.43L244.614 151.46C244.704 152.59 245.664 153.1 246.834 153.1Z" fill="black"/>
<path d="M266.307 153L262.966 143.77H261.653L258.338 153H259.534L260.366 150.582H264.214C264.461 151.297 264.734 152.09 265.059 153H266.307ZM260.704 149.62C261.978 145.889 262.173 145.161 262.277 144.511C262.368 145.161 262.576 145.889 263.876 149.62H260.704ZM272.262 149.932C272.262 151.323 271.495 152.155 270.247 152.155C269.272 152.155 268.362 151.648 268.362 150.088V146.305H267.231V150.244C267.231 152.298 268.492 153.13 269.909 153.13C271.079 153.13 271.898 152.584 272.314 151.648L272.431 153H273.406V146.305H272.262V149.932ZM276.535 146.305V144.381H275.391V146.305H274.403V147.202H275.391V153H276.535V147.202H277.952V146.305H276.535ZM281.801 153.13C283.842 153.13 285.363 151.635 285.363 149.646C285.363 147.657 283.842 146.162 281.801 146.162C279.773 146.162 278.239 147.657 278.239 149.646C278.239 151.635 279.773 153.13 281.801 153.13ZM281.801 152.103C280.41 152.103 279.344 151.037 279.344 149.633C279.344 148.242 280.41 147.189 281.801 147.189C283.205 147.189 284.258 148.242 284.258 149.633C284.258 151.037 283.205 152.103 281.801 152.103ZM291.922 144.134C292.182 144.134 292.468 144.186 292.741 144.264V143.341C292.455 143.25 292.091 143.172 291.727 143.172C290.661 143.172 289.79 143.783 289.79 145.239V146.305H288.997V147.202H289.79V153H290.921V147.202H292.715V146.305H290.921V145.382C290.869 144.459 291.259 144.134 291.922 144.134ZM296.442 153.13C298.483 153.13 300.004 151.635 300.004 149.646C300.004 147.657 298.483 146.162 296.442 146.162C294.414 146.162 292.88 147.657 292.88 149.646C292.88 151.635 294.414 153.13 296.442 153.13ZM296.442 152.103C295.051 152.103 293.985 151.037 293.985 149.633C293.985 148.242 295.051 147.189 296.442 147.189C297.846 147.189 298.899 148.242 298.899 149.633C298.899 151.037 297.846 152.103 296.442 152.103ZM304.424 153.13C305.269 153.13 306.01 152.87 306.582 152.337V151.219C306.049 151.739 305.386 152.116 304.528 152.116C303.111 152.116 302.019 151.037 302.019 149.646C302.019 148.255 303.111 147.189 304.528 147.189C305.386 147.189 306.049 147.553 306.582 148.086V146.955C306.01 146.435 305.269 146.162 304.424 146.162C302.344 146.162 300.875 147.657 300.875 149.646C300.875 151.635 302.344 153.13 304.424 153.13ZM312.789 149.932C312.789 151.323 312.022 152.155 310.774 152.155C309.799 152.155 308.889 151.648 308.889 150.088V146.305H307.758V150.244C307.758 152.298 309.019 153.13 310.436 153.13C311.606 153.13 312.425 152.584 312.841 151.648L312.958 153H313.933V146.305H312.789V149.932ZM317.895 153.13C319.468 153.13 320.534 152.441 320.534 151.193C320.534 148.697 316.439 149.516 316.439 147.995C316.439 147.423 316.998 147.059 317.752 147.059C318.558 147.059 319.104 147.501 319.195 148.177L320.287 148.138C320.209 146.994 319.182 146.175 317.765 146.175C316.4 146.175 315.334 146.903 315.334 148.06C315.334 150.452 319.39 149.672 319.39 151.245C319.39 151.869 318.818 152.22 317.934 152.22C316.972 152.22 316.231 151.791 316.127 150.959L315.009 150.998C315.126 152.467 316.374 153.13 317.895 153.13Z" fill="black"/>
<circle cx="187" cy="150" r="4.5" stroke="black"/>
</svg>
