<svg width="350" height="60" viewBox="0 0 350 60" fill="none" xmlns="http://www.w3.org/2000/svg">
    <path fill="#fff" d="M0 0h350v60H0z"/>
    <path d="M71.623 19.836V16.24H59.285v22.01h12.338v-3.596h-8.525v-5.828h6.696V25.23h-6.696v-5.394h8.525zM83.878 22.254c-2.356 0-4.34 1.116-5.86 2.635l-.185-2.325h-3.596V38.25h3.813v-7.843c.093-2.542 1.674-4.557 4.34-4.557 2.108 0 3.44 1.24 3.44 4.898v7.502h3.814v-9.269c0-4.278-1.984-6.727-5.766-6.727zM94.51 20.363a1.945 1.945 0 0 0 1.952-1.953 1.945 1.945 0 0 0-1.953-1.953 1.945 1.945 0 0 0-1.953 1.953c0 1.085.868 1.953 1.953 1.953zm1.89 2.201h-3.813v15.438l-2.759 7.378h3.968l2.604-7.13V22.564zM106.643 38.56c4.898 0 8.37-3.658 8.37-8.153 0-4.495-3.472-8.153-8.37-8.153-4.929 0-8.431 3.658-8.431 8.153 0 4.495 3.502 8.153 8.431 8.153zm0-3.596c-2.697 0-4.619-2.077-4.619-4.557 0-2.48 1.922-4.557 4.619-4.557 2.666 0 4.557 2.077 4.557 4.557 0 2.48-1.891 4.557-4.557 4.557zM114.899 22.564l6.665 15.655-3.038 7.161h4.03l9.734-22.816h-4.092l-4.588 10.943-4.619-10.943h-4.092zM151.802 22.564h-3.472v-4.65h-3.813v4.65h-2.449v3.596h2.449v12.09h3.813V26.16h3.472v-3.596zM163.219 22.254c-2.356 0-4.309 1.116-5.828 2.604V15h-3.813v23.25h3.813v-7.843c.093-2.542 1.674-4.557 4.34-4.557 2.108 0 3.441 1.24 3.441 4.898v7.502h3.813v-9.269c0-4.278-1.984-6.727-5.766-6.727zM186.322 30.593c0-4.495-3.007-8.339-7.843-8.339-4.743 0-7.843 3.689-7.843 8.06 0 4.588 3.255 8.246 8.091 8.246 4.34 0 6.789-3.007 7.254-5.146l-3.348-.372c-.62 1.085-1.891 2.139-3.875 2.139-2.759 0-4.216-1.674-4.309-3.596h11.873v-.992zm-7.843-4.96c2.387 0 3.906 1.581 4.03 3.317h-8.06c.093-1.798 1.705-3.317 4.03-3.317zM205.768 38.56c4.898 0 8.37-3.658 8.37-8.153 0-4.495-3.472-8.153-8.37-8.153-4.929 0-8.432 3.658-8.432 8.153 0 4.495 3.503 8.153 8.432 8.153zm0-3.596c-2.697 0-4.619-2.077-4.619-4.557 0-2.48 1.922-4.557 4.619-4.557 2.666 0 4.557 2.077 4.557 4.557 0 2.48-1.891 4.557-4.557 4.557zM227.951 27.493v-3.627c-1.054-.93-2.604-1.612-4.619-1.612-4.65 0-8.06 3.751-8.06 8.153 0 4.433 3.41 8.153 8.06 8.153 2.015 0 3.565-.682 4.619-1.612V33.29c-1.24 1.178-2.542 1.674-3.999 1.674-2.325 0-4.65-1.829-4.65-4.557 0-2.728 2.325-4.557 4.65-4.557 1.457 0 2.759.465 3.999 1.643zM245.08 30.593c0-4.495-3.007-8.339-7.843-8.339-4.743 0-7.843 3.689-7.843 8.06 0 4.588 3.255 8.246 8.091 8.246 4.34 0 6.789-3.007 7.254-5.146l-3.348-.372c-.62 1.085-1.891 2.139-3.875 2.139-2.759 0-4.216-1.674-4.309-3.596h11.873v-.992zm-7.843-4.96c2.387 0 3.906 1.581 4.03 3.317h-8.06c.093-1.798 1.705-3.317 4.03-3.317zM246.513 30.407c0 4.495 3.286 8.153 7.781 8.153 2.697 0 4.805-1.426 5.611-3.224l.217 2.914h3.627V22.564h-3.627l-.217 2.914c-.806-1.798-2.914-3.224-5.611-3.224-4.495 0-7.781 3.658-7.781 8.153zm3.813 0c0-2.48 1.922-4.557 4.619-4.557 2.666 0 4.557 2.077 4.557 4.557 0 2.48-1.891 4.557-4.557 4.557-2.697 0-4.619-2.077-4.619-4.557zM275.967 22.254c-2.356 0-4.34 1.116-5.859 2.635l-.186-2.325h-3.596V38.25h3.813v-7.843c.093-2.542 1.674-4.557 4.34-4.557 2.108 0 3.441 1.24 3.441 4.898v7.502h3.813v-9.269c0-4.278-1.984-6.727-5.766-6.727zM285.648 31.895h3.41l.217-15.655h-3.844l.217 15.655zm1.705 6.665a1.926 1.926 0 0 0 1.953-1.953 1.926 1.926 0 0 0-1.953-1.953 1.945 1.945 0 0 0-1.953 1.953c0 1.085.868 1.953 1.953 1.953z" fill="#000"/>
</svg>
